<svg height="512pt" viewBox="0 0 512 512" width="512pt" xmlns="http://www.w3.org/2000/svg"><path d="m256 462v-166c0-22.089844-17.910156-40-40-40h-86.679688c-22.089843 0-40 17.910156-40 40v166c0 22.089844 17.910157 40 40 40h86.679688c22.089844 0 40-17.910156 40-40zm0 0" fill="#ff5d5d"/><path d="m502 462v-166c0-22.089844-17.910156-40-40-40h-86.679688c-22.089843 0-40 17.910156-40 40v166c0 22.089844 17.910157 40 40 40h86.679688c22.089844 0 40-17.910156 40-40zm0 0" fill="#72d8ff"/><path d="m379 216v-166c0-22.089844-17.910156-40-40-40h-86.679688c-22.089843 0-40 17.910156-40 40v166c0 22.089844 17.910157 40 40 40h86.679688c22.089844 0 40-17.910156 40-40zm0 0" fill="#a0e557"/><path d="m242.226562 163c-5.523437 0-10 4.476562-10 10s4.476563 10 10 10h31.597657c5.523437 0 10-4.476562 10-10s-4.476563-10-10-10h-5.796875v-70c0-4.507812-3.019532-8.460938-7.367188-9.644531-4.34375-1.191407-8.953125.679687-11.246094 4.5625l-14.011718 23.734375c-2.808594 4.753906-1.226563 10.886718 3.527344 13.695312 2.878906 1.699219 6.253906 1.789063 9.097656.546875v37.105469zm0 0"/><path d="m157.054688 409h-21.667969c12.429687-12.796875 25.777343-30.761719 25.777343-48.890625 0-18.605469-12.503906-31.109375-31.109374-31.109375-17.152344 0-31.109376 13.957031-31.109376 31.109375 0 5.523437 4.480469 10 10 10 5.523438 0 10-4.476563 10-10 0-6.125 4.984376-11.109375 11.109376-11.109375 9.957031 0 11.109374 6.339844 11.109374 11.109375 0 18.53125-28.253906 43.539063-38.144531 50.832031-3.480469 2.5625-4.921875 7.070313-3.578125 11.175782 1.347656 4.105468 5.183594 6.882812 9.503906 6.882812h48.109376c5.519531 0 10-4.476562 10-10s-4.476563-10-10-10zm0 0"/><path d="m377.679688 329.1875h-17.304688c-5.523438 0-10 4.476562-10 10s4.476562 10 10 10h17.304688c5.484374 0 9.945312 4.460938 9.945312 9.945312 0 4.984376-3.691406 9.113282-8.480469 9.828126-.484375-.023438-.972656-.039063-1.464843-.039063h-17.304688c-5.523438 0-10 4.476563-10 10s4.476562 10 10 10h6.960938c.558593.097656 1.128906.15625 1.714843.15625h8.628907c.492187 0 .976562-.011719 1.464843-.035156 4.789063.710937 8.480469 4.839843 8.480469 9.824219 0 5.484374-4.464844 9.945312-9.945312 9.945312h-17.304688c-5.523438 0-10 4.476562-10 10s4.476562 10 10 10h17.304688c16.511718 0 29.945312-13.433594 29.945312-29.945312 0-7.617188-2.863281-14.578126-7.566406-19.867188 4.703125-5.289062 7.566406-12.246094 7.566406-19.867188 0-16.511718-13.433594-29.945312-29.945312-29.945312zm0 0"/><path d="m462 246h-83.027344c6.292969-8.363281 10.027344-18.753906 10.027344-30v-44.667969c0-5.523437-4.476562-10-10-10s-10 4.476563-10 10v44.667969c0 16.542969-13.457031 30-30 30h-166c-16.542969 0-30-13.457031-30-30v-166c0-16.542969 13.457031-30 30-30h166c16.542969 0 30 13.457031 30 30v38c0 5.523438 4.476562 10 10 10s10-4.476562 10-10v-38c0-27.570312-22.429688-50-50-50h-166c-27.570312 0-50 22.429688-50 50v166c0 11.246094 3.734375 21.636719 10.027344 30h-83.027344c-27.570312 0-50 22.429688-50 50v166c0 27.570312 22.429688 50 50 50h166c16.339844 0 30.871094-7.878906 40-20.035156 9.128906 12.15625 23.660156 20.035156 40 20.035156h166c27.570312 0 50-22.429688 50-50v-166c0-27.570312-22.429688-50-50-50zm-205.972656 20c-.007813.011719-.019532.023438-.027344.035156-.007812-.011718-.019531-.023437-.027344-.035156zm-40.027344 226h-166c-16.542969 0-30-13.457031-30-30v-166c0-16.542969 13.457031-30 30-30h166c16.542969 0 30 13.457031 30 30v166c0 16.542969-13.457031 30-30 30zm276-30c0 16.542969-13.457031 30-30 30h-166c-16.542969 0-30-13.457031-30-30v-166c0-16.542969 13.457031-30 30-30h166c16.542969 0 30 13.457031 30 30zm0 0"/><path d="m379 123c-2.628906 0-5.210938 1.070312-7.070312 2.929688-1.859376 1.859374-2.929688 4.441406-2.929688 7.070312s1.070312 5.210938 2.929688 7.070312c1.859374 1.859376 4.441406 2.929688 7.070312 2.929688s5.210938-1.070312 7.070312-2.929688c1.859376-1.859374 2.929688-4.441406 2.929688-7.070312s-1.070312-5.210938-2.929688-7.070312c-1.859374-1.859376-4.441406-2.929688-7.070312-2.929688zm0 0"/></svg>