<?xml version="1.0" encoding="iso-8859-1"?>
<!-- Generator: Adobe Illustrator 19.0.0, SVG Export Plug-In . SVG Version: 6.00 Build 0)  -->
<svg version="1.1" id="Capa_1" xmlns="http://www.w3.org/2000/svg" xmlns:xlink="http://www.w3.org/1999/xlink" x="0px" y="0px"
	 viewBox="0 0 512 512" style="enable-background:new 0 0 512 512;" xml:space="preserve">
<polygon style="fill:#54BBFF;" points="474.5,7.5 256,256 474.5,504.5 504.5,504.5 504.5,7.5 "/>
<rect x="7.5" y="7.5" style="fill:#8DD2FF;" width="467" height="497"/>
<polygon style="fill:#C6E8FF;" points="444.5,37.5 256,256 444.5,474.5 474.5,474.5 474.5,37.5 "/>
<rect x="37.5" y="37.5" style="fill:#DEF1FF;" width="407" height="437"/>
<path style="fill:#54BBFF;" d="M325.5,190c0-38.322-31.178-69.5-69.5-69.5s-69.5,31.178-69.5,69.5v16.5
	c0,19.358,7.963,36.886,20.777,49.5c-12.813,12.614-20.777,30.142-20.777,49.5V322c0,38.322,31.178,69.5,69.5,69.5
	s69.5-31.178,69.5-69.5v-16.5c0-19.358-7.963-36.886-20.777-49.5c12.813-12.614,20.777-30.142,20.777-49.5V190z M285.5,322
	c0,16.267-13.233,29.5-29.5,29.5s-29.5-13.233-29.5-29.5v-16.5c0-16.267,13.233-29.5,29.5-29.5s29.5,13.233,29.5,29.5V322z
	 M285.5,206.5c0,16.267-13.233,29.5-29.5,29.5s-29.5-13.233-29.5-29.5V190c0-16.267,13.233-29.5,29.5-29.5s29.5,13.233,29.5,29.5
	V206.5z"/>
<path d="M504.5,0H7.5C3.358,0,0,3.358,0,7.5v497c0,4.142,3.358,7.5,7.5,7.5h497c4.143,0,7.5-3.358,7.5-7.5V7.5
	C512,3.358,508.643,0,504.5,0z M497,497H15V15h482V497z"/>
<path d="M37.5,482h437c4.143,0,7.5-3.358,7.5-7.5v-437c0-4.142-3.357-7.5-7.5-7.5h-437c-4.142,0-7.5,3.358-7.5,7.5v45
	c0,4.142,3.358,7.5,7.5,7.5s7.5-3.358,7.5-7.5V45h422v422H45V112.5c0-4.142-3.358-7.5-7.5-7.5s-7.5,3.358-7.5,7.5v362
	C30,478.642,33.358,482,37.5,482z"/>
<path d="M179,322c0,42.458,34.542,77,77,77s77-34.542,77-77v-16.5c0-18.318-6.366-35.641-18.063-49.5
	C326.634,242.141,333,224.818,333,206.5V190c0-42.458-34.542-77-77-77s-77,34.542-77,77v16.5c0,18.317,6.367,35.64,18.063,49.5
	C185.367,269.86,179,287.183,179,305.5V322z M194,305.5c0-16.705,6.583-32.386,18.539-44.155c1.432-1.41,2.238-3.335,2.238-5.345
	s-0.807-3.935-2.238-5.345C200.583,238.886,194,223.205,194,206.5V190c0-34.187,27.813-62,62-62s62,27.813,62,62v16.5
	c0,16.706-6.584,32.387-18.539,44.155c-1.432,1.41-2.238,3.335-2.238,5.345c0,2.01,0.807,3.935,2.238,5.345
	C311.416,273.113,318,288.794,318,305.5V322c0,34.187-27.813,62-62,62s-62-27.813-62-62V305.5z"/>
<path d="M256,359c20.402,0,37-16.598,37-37v-16.5c0-20.402-16.598-37-37-37s-37,16.598-37,37V322C219,342.402,235.598,359,256,359z
	 M234,305.5c0-12.131,9.869-22,22-22c12.131,0,22,9.869,22,22V322c0,12.131-9.869,22-22,22s-22-9.869-22-22V305.5z"/>
<path d="M256,243.5c20.402,0,37-16.598,37-37V190c0-20.402-16.598-37-37-37s-37,16.598-37,37v16.5
	C219,226.902,235.598,243.5,256,243.5z M234,190c0-12.131,9.869-22,22-22c12.131,0,22,9.869,22,22v16.5c0,12.131-9.869,22-22,22
	s-22-9.869-22-22V190z"/>
<g>
</g>
<g>
</g>
<g>
</g>
<g>
</g>
<g>
</g>
<g>
</g>
<g>
</g>
<g>
</g>
<g>
</g>
<g>
</g>
<g>
</g>
<g>
</g>
<g>
</g>
<g>
</g>
<g>
</g>
</svg>
