<?xml version="1.0" encoding="iso-8859-1"?>
<!-- Generator: Adobe Illustrator 19.0.0, SVG Export Plug-In . SVG Version: 6.00 Build 0)  -->
<svg version="1.1" id="Capa_1" xmlns="http://www.w3.org/2000/svg" xmlns:xlink="http://www.w3.org/1999/xlink" x="0px" y="0px"
	 viewBox="0 0 512 512" style="enable-background:new 0 0 512 512;" xml:space="preserve">
<polygon style="fill:#54BBFF;" points="474.5,7.5 256,256 474.5,504.5 504.5,504.5 504.5,7.5 "/>
<rect x="7.5" y="7.5" style="fill:#8DD2FF;" width="467" height="497"/>
<polygon style="fill:#C6E8FF;" points="444.5,37.5 256,256 444.5,474.5 474.5,474.5 474.5,37.5 "/>
<rect x="37.5" y="37.5" style="fill:#DEF1FF;" width="407" height="437"/>
<path style="fill:#54BBFF;" d="M256,391.5c-38.322,0-69.5-31.178-69.5-69.5c0-11.046,8.954-20,20-20s20,8.954,20,20
	c0,16.266,13.233,29.5,29.5,29.5s29.5-13.234,29.5-29.5v-52.576C276.541,273.641,266.54,276,256,276
	c-38.322,0-69.5-31.178-69.5-69.5V190c0-38.322,31.178-69.5,69.5-69.5s69.5,31.178,69.5,69.5v132
	C325.5,360.322,294.322,391.5,256,391.5z M256,160.5c-16.267,0-29.5,13.234-29.5,29.5v16.5c0,16.266,13.233,29.5,29.5,29.5
	s29.5-13.234,29.5-29.5V190C285.5,173.734,272.267,160.5,256,160.5z"/>
<path d="M504.5,0H7.5C3.357,0,0,3.358,0,7.5v497c0,4.142,3.357,7.5,7.5,7.5h497c4.143,0,7.5-3.358,7.5-7.5V7.5
	C512,3.358,508.643,0,504.5,0z M497,497H15V15h482V497z"/>
<path d="M37.5,482h437c4.143,0,7.5-3.358,7.5-7.5v-437c0-4.142-3.357-7.5-7.5-7.5h-437c-4.143,0-7.5,3.358-7.5,7.5v45
	c0,4.142,3.357,7.5,7.5,7.5s7.5-3.358,7.5-7.5V45h422v422H45V112.5c0-4.142-3.357-7.5-7.5-7.5s-7.5,3.358-7.5,7.5v362
	C30,478.642,33.357,482,37.5,482z"/>
<path d="M293,190c0-20.402-16.598-37-37-37s-37,16.598-37,37v16.5c0,20.402,16.598,37,37,37s37-16.598,37-37V190z M278,206.5
	c0,12.131-9.869,22-22,22s-22-9.869-22-22V190c0-12.131,9.869-22,22-22c12.131,0,22,9.869,22,22V206.5z"/>
<path d="M256,344c-12.131,0-22-9.869-22-22c0-15.164-12.337-27.5-27.5-27.5S179,306.836,179,322c0,42.458,34.542,77,77,77
	s77-34.542,77-77V190c0-42.458-34.542-77-77-77s-77,34.542-77,77v16.5c0,42.458,34.542,77,77,77c7.545,0,14.907-1.071,22-3.194V322
	C278,334.131,268.131,344,256,344z M289.519,263.092c-2.169-1.377-4.89-1.547-7.212-0.454c-8.265,3.89-17.116,5.862-26.307,5.862
	c-34.187,0-62-27.813-62-62V190c0-34.187,27.813-62,62-62s62,27.813,62,62v132c0,34.187-27.813,62-62,62s-62-27.813-62-62
	c0-6.893,5.607-12.5,12.5-12.5S219,315.107,219,322c0,20.402,16.598,37,37,37s37-16.598,37-37v-52.576
	C293,266.856,291.687,264.467,289.519,263.092z"/>
<g>
</g>
<g>
</g>
<g>
</g>
<g>
</g>
<g>
</g>
<g>
</g>
<g>
</g>
<g>
</g>
<g>
</g>
<g>
</g>
<g>
</g>
<g>
</g>
<g>
</g>
<g>
</g>
<g>
</g>
</svg>
