<svg id="Layer_1" enable-background="new 0 0 505.118 505.118" height="512" viewBox="0 0 505.118 505.118" width="512" xmlns="http://www.w3.org/2000/svg"><path d="m489.118 96.5h-473.118c-8.836 0-16 7.164-16 16v280.119c0 8.836 7.164 16 16 16h473.118c8.836 0 16-7.164 16-16v-280.119c0-8.837-7.163-16-16-16zm-378.117 209.239c0 8.836-7.164 16-16 16s-16-7.164-16-16v-83.67c-12.525-4.046-15.152-20.974-4.018-28.486l11.069-7.468c10.604-7.155 24.949.457 24.949 13.264zm152.191-15.425c8.836.093 15.923 7.332 15.83 16.168-.093 8.778-7.238 15.831-15.996 15.831-3.165 0 13.686.146-49.781-.526-16.133-.17-29.259-13.436-29.259-29.571 0-10.576 5.702-20.41 14.88-25.665 39.98-22.887 37.13-21.324 38.52-21.893 8.225-3.37 12.021-12.978 8.052-21.17-3.214-6.632-11.054-10.102-18.098-8.127l-23.932 11.089c-8.019 3.714-17.529.226-21.244-7.791-3.715-8.018-.227-17.529 7.791-21.244 27.051-12.534 25.331-11.784 26.539-12.188 37.765-12.629 73.729 24.555 59.389 62.046-4.53 11.842-13.712 21.458-25.296 26.542l-28.066 16.067zm173.679-11.668c-2.727 24.69-23.993 45.094-50.404 45.094-19.282 0-37.155-10.904-45.764-28.479-3.887-7.936-.605-17.52 7.33-21.407 7.934-3.888 17.52-.606 21.407 7.33 3.597 7.343 11.226 11.423 19.417 10.407 14.849-1.847 21.635-19.941 11.537-31.217-3.571-3.987-8.685-6.273-14.03-6.273-14.165 0-21.34-17.131-11.401-27.226l13.298-13.506h-36.72c-8.836 0-16-7.164-16-16s7.164-16 16-16h55.498c21.369 0 32.204 25.83 17.199 41.07l-8.722 8.859c15.471 10.825 23.37 29.096 21.355 47.348z"/></svg>