<?xml version="1.0" encoding="iso-8859-1"?>
<!-- Generator: Adobe Illustrator 19.0.0, SVG Export Plug-In . SVG Version: 6.00 Build 0)  -->
<svg version="1.1" id="Capa_1" xmlns="http://www.w3.org/2000/svg" xmlns:xlink="http://www.w3.org/1999/xlink" x="0px" y="0px"
	 viewBox="0 0 512 512" style="enable-background:new 0 0 512 512;" xml:space="preserve">
<polygon style="fill:#54BBFF;" points="474.5,7.5 256,256 474.5,504.5 504.5,504.5 504.5,7.5 "/>
<rect x="7.5" y="7.5" style="fill:#8DD2FF;" width="467" height="497"/>
<polygon style="fill:#C6E8FF;" points="444.5,37.5 256,256 444.5,474.5 474.5,474.5 474.5,37.5 "/>
<rect x="37.5" y="37.5" style="fill:#DEF1FF;" width="407" height="437"/>
<path style="fill:#54BBFF;" d="M305.5,236h-19.168l37.551-87.622c2.648-6.179,2.015-13.276-1.686-18.888
	c-3.701-5.613-9.974-8.99-16.697-8.99h-99c-11.046,0-20,8.954-20,20s8.954,20,20,20h68.669L242.813,236H206.5
	c-11.046,0-20,8.954-20,20c0,11.046,8.954,20,20,20h19.171l-37.549,87.617c-4.351,10.153,0.352,21.91,10.504,26.261
	c2.569,1.101,5.24,1.623,7.869,1.622c7.759,0,15.142-4.543,18.392-12.126L269.189,276H305.5c11.046,0,20-8.954,20-20
	S316.546,236,305.5,236z"/>
<path d="M504.5,0H7.5C3.358,0,0,3.358,0,7.5v497c0,4.142,3.358,7.5,7.5,7.5h497c4.142,0,7.5-3.358,7.5-7.5V7.5
	C512,3.358,508.642,0,504.5,0z M497,497H15V15h482V497z"/>
<path d="M37.5,482h437c4.142,0,7.5-3.358,7.5-7.5v-437c0-4.142-3.358-7.5-7.5-7.5h-437c-4.142,0-7.5,3.358-7.5,7.5v45
	c0,4.142,3.358,7.5,7.5,7.5s7.5-3.358,7.5-7.5V45h422v422H45V112.5c0-4.142-3.358-7.5-7.5-7.5s-7.5,3.358-7.5,7.5v362
	C30,478.642,33.358,482,37.5,482z"/>
<path d="M206.5,228.5c-15.164,0-27.5,12.336-27.5,27.5s12.336,27.5,27.5,27.5h7.797l-33.068,77.163
	c-5.973,13.937,0.506,30.136,14.444,36.109c3.45,1.479,7.091,2.229,10.82,2.229c11.023,0,20.949-6.544,25.289-16.672l42.354-98.828
	H305.5c15.164,0,27.5-12.336,27.5-27.5s-12.336-27.5-27.5-27.5h-7.794l33.07-77.167c3.652-8.522,2.786-18.231-2.318-25.971
	C323.354,117.621,314.772,113,305.5,113h-99c-15.164,0-27.5,12.336-27.5,27.5s12.336,27.5,27.5,27.5h57.295l-25.928,60.5H206.5z
	 M249.707,238.954l32.356-75.5c0.993-2.317,0.755-4.978-0.632-7.083c-1.388-2.104-3.74-3.371-6.261-3.371H206.5
	c-6.893,0-12.5-5.607-12.5-12.5s5.607-12.5,12.5-12.5h99c4.214,0,8.116,2.101,10.436,5.619c2.32,3.519,2.714,7.932,1.054,11.806
	l-37.551,87.622c-0.993,2.317-0.755,4.978,0.632,7.083c1.388,2.104,3.74,3.371,6.261,3.371H305.5c6.893,0,12.5,5.607,12.5,12.5
	s-5.607,12.5-12.5,12.5h-36.311c-3,0-5.712,1.788-6.894,4.546l-44.302,103.374c-1.974,4.605-6.487,7.581-11.5,7.581l-0.002,7.5V384
	c-1.687,0-3.339-0.342-4.911-1.016c-6.335-2.715-9.28-10.078-6.565-16.414l37.549-87.617c0.993-2.317,0.755-4.978-0.632-7.083
	c-1.388-2.104-3.74-3.371-6.261-3.371H206.5c-6.893,0-12.5-5.607-12.5-12.5s5.607-12.5,12.5-12.5h36.313
	C245.814,243.5,248.525,241.712,249.707,238.954z"/>
<g>
</g>
<g>
</g>
<g>
</g>
<g>
</g>
<g>
</g>
<g>
</g>
<g>
</g>
<g>
</g>
<g>
</g>
<g>
</g>
<g>
</g>
<g>
</g>
<g>
</g>
<g>
</g>
<g>
</g>
</svg>
