<?xml version="1.0" encoding="iso-8859-1"?>
<!-- Generator: Adobe Illustrator 19.0.0, SVG Export Plug-In . SVG Version: 6.00 Build 0)  -->
<svg version="1.1" id="Capa_1" xmlns="http://www.w3.org/2000/svg" xmlns:xlink="http://www.w3.org/1999/xlink" x="0px" y="0px"
	 viewBox="0 0 512 512" style="enable-background:new 0 0 512 512;" xml:space="preserve">
<polygon style="fill:#54BBFF;" points="474.5,7.5 256,256 474.5,504.5 504.5,504.5 504.5,7.5 "/>
<rect x="7.5" y="7.5" style="fill:#8DD2FF;" width="467" height="497"/>
<polygon style="fill:#C6E8FF;" points="444.5,37.5 256,256 444.5,474.5 474.5,474.5 474.5,37.5 "/>
<rect x="37.5" y="37.5" style="fill:#DEF1FF;" width="407" height="437"/>
<g>
	<path style="fill:#54BBFF;" d="M316,120.5c-38.322,0-69.5,31.178-69.5,69.5v132c0,38.322,31.178,69.5,69.5,69.5
		s69.5-31.178,69.5-69.5V190C385.5,151.678,354.322,120.5,316,120.5z M345.5,322c0,16.266-13.234,29.5-29.5,29.5
		s-29.5-13.234-29.5-29.5V190c0-16.266,13.234-29.5,29.5-29.5s29.5,13.234,29.5,29.5V322z"/>
	<path style="fill:#54BBFF;" d="M202.87,121.543c-2.094-0.703-4.241-1.043-6.367-1.043c-6.143,0-12.091,2.837-15.944,7.924
		l-49.999,66c-6.67,8.805-4.94,21.349,3.865,28.019c3.613,2.737,7.854,4.06,12.062,4.059c6.047,0,12.024-2.732,15.957-7.924
		l14.057-18.557V371.5c0,11.046,8.954,20,20,20s20-8.954,20-20V140.501C216.5,131.911,211.014,124.279,202.87,121.543z"/>
</g>
<path d="M504.5,0H7.5C3.357,0,0,3.358,0,7.5v497c0,4.142,3.357,7.5,7.5,7.5h497c4.143,0,7.5-3.358,7.5-7.5V7.5
	C512,3.358,508.643,0,504.5,0z M497,497H15V15h482V497z"/>
<path d="M37.5,482h437c4.143,0,7.5-3.358,7.5-7.5v-437c0-4.142-3.357-7.5-7.5-7.5h-437c-4.143,0-7.5,3.358-7.5,7.5v45
	c0,4.142,3.357,7.5,7.5,7.5s7.5-3.358,7.5-7.5V45h422v422H45V112.5c0-4.142-3.357-7.5-7.5-7.5s-7.5,3.358-7.5,7.5v362
	C30,478.642,33.357,482,37.5,482z"/>
<path d="M393,322V190c0-42.458-34.542-77-77-77s-77,34.542-77,77v132c0,42.458,34.542,77,77,77S393,364.458,393,322z M254,322V190
	c0-34.187,27.813-62,62-62s62,27.813,62,62v132c0,34.187-27.813,62-62,62S254,356.187,254,322z"/>
<path d="M353,322V190c0-20.402-16.598-37-37-37s-37,16.598-37,37v132c0,20.402,16.598,37,37,37S353,342.402,353,322z M294,322V190
	c0-12.131,9.869-22,22-22s22,9.869,22,22v132c0,12.131-9.869,22-22,22S294,334.131,294,322z"/>
<path d="M196.5,399c15.163,0,27.5-12.336,27.5-27.5V140.501c0-11.825-7.531-22.301-18.742-26.068
	c-2.832-0.951-5.777-1.433-8.755-1.433c-8.56,0-16.755,4.073-21.923,10.896l-49.999,66c-4.436,5.855-6.325,13.087-5.322,20.363
	c1.004,7.277,4.781,13.727,10.637,18.163c4.82,3.651,10.556,5.581,16.588,5.581c8.697,0,16.692-3.972,21.938-10.895l0.578-0.764
	V371.5C169,386.664,181.337,399,196.5,399z M156.466,214.049c-2.385,3.147-6.022,4.953-9.98,4.953c-2.736,0-5.341-0.877-7.532-2.537
	c-2.662-2.016-4.379-4.948-4.835-8.255c-0.456-3.308,0.403-6.595,2.42-9.257l49.999-66c2.349-3.101,6.074-4.953,9.966-4.953
	c1.351,0,2.689,0.22,3.979,0.652c5.095,1.712,8.519,6.474,8.519,11.849V371.5c0,6.893-5.607,12.5-12.5,12.5s-12.5-5.607-12.5-12.5
	V200.022c0-3.222-2.058-6.083-5.111-7.109c-0.785-0.264-1.591-0.391-2.388-0.391c-2.304,0-4.534,1.064-5.979,2.972L156.466,214.049z
	"/>
<g>
</g>
<g>
</g>
<g>
</g>
<g>
</g>
<g>
</g>
<g>
</g>
<g>
</g>
<g>
</g>
<g>
</g>
<g>
</g>
<g>
</g>
<g>
</g>
<g>
</g>
<g>
</g>
<g>
</g>
</svg>
