<?xml version="1.0" encoding="iso-8859-1"?>
<!-- Generator: Adobe Illustrator 19.0.0, SVG Export Plug-In . SVG Version: 6.00 Build 0)  -->
<svg version="1.1" id="Capa_1" xmlns="http://www.w3.org/2000/svg" xmlns:xlink="http://www.w3.org/1999/xlink" x="0px" y="0px"
	 viewBox="0 0 512 512" style="enable-background:new 0 0 512 512;" xml:space="preserve">
<polygon style="fill:#54BBFF;" points="474.5,7.5 256,256 474.5,504.5 504.5,504.5 504.5,7.5 "/>
<rect x="7.5" y="7.5" style="fill:#8DD2FF;" width="467" height="497"/>
<polygon style="fill:#C6E8FF;" points="444.5,37.5 256,256 444.5,474.5 474.5,474.5 474.5,37.5 "/>
<rect x="37.5" y="37.5" style="fill:#DEF1FF;" width="407" height="437"/>
<path style="fill:#54BBFF;" d="M256,120.5c-38.322,0-69.5,31.178-69.5,69.5v132c0,38.322,31.178,69.5,69.5,69.5
	s69.5-31.178,69.5-69.5V190C325.5,151.678,294.322,120.5,256,120.5z M285.5,322c0,16.266-13.234,29.5-29.5,29.5
	s-29.5-13.234-29.5-29.5V190c0-16.266,13.234-29.5,29.5-29.5s29.5,13.234,29.5,29.5V322z"/>
<path d="M504.5,0H7.5C3.357,0,0,3.358,0,7.5v497c0,4.142,3.357,7.5,7.5,7.5h497c4.143,0,7.5-3.358,7.5-7.5V7.5
	C512,3.358,508.643,0,504.5,0z M497,497H15V15h482V497z"/>
<path d="M37.5,482h437c4.143,0,7.5-3.358,7.5-7.5v-437c0-4.142-3.357-7.5-7.5-7.5h-437c-4.143,0-7.5,3.358-7.5,7.5v45
	c0,4.142,3.357,7.5,7.5,7.5s7.5-3.358,7.5-7.5V45h422v422H45V112.5c0-4.142-3.357-7.5-7.5-7.5s-7.5,3.358-7.5,7.5v362
	C30,478.642,33.357,482,37.5,482z"/>
<path d="M333,322V190c0-42.458-34.542-77-77-77s-77,34.542-77,77v132c0,42.458,34.542,77,77,77S333,364.458,333,322z M194,322V190
	c0-34.187,27.813-62,62-62s62,27.813,62,62v132c0,34.187-27.813,62-62,62S194,356.187,194,322z"/>
<path d="M293,322V190c0-20.402-16.598-37-37-37s-37,16.598-37,37v132c0,20.402,16.598,37,37,37S293,342.402,293,322z M234,322V190
	c0-12.131,9.869-22,22-22c12.131,0,22,9.869,22,22v132c0,12.131-9.869,22-22,22S234,334.131,234,322z"/>
<g>
</g>
<g>
</g>
<g>
</g>
<g>
</g>
<g>
</g>
<g>
</g>
<g>
</g>
<g>
</g>
<g>
</g>
<g>
</g>
<g>
</g>
<g>
</g>
<g>
</g>
<g>
</g>
<g>
</g>
</svg>
