<?xml version="1.0" encoding="utf-8"?>
<!-- Generator: Adobe Illustrator 21.0.0, SVG Export Plug-In . SVG Version: 6.00 Build 0)  -->
<svg version="1.1" id="Capa_1" xmlns="http://www.w3.org/2000/svg" xmlns:xlink="http://www.w3.org/1999/xlink" x="0px" y="0px"
	 viewBox="0 0 512 512" style="enable-background:new 0 0 512 512;" xml:space="preserve">
<style type="text/css">
	.st0{fill:#EFEFEF;}
	.st1{fill:#4BB9E1;}
	.st2{fill:#46A5CD;}
	.st3{fill:#CDF5FF;}
	.st4{fill:#9BE6FF;}
</style>
<circle class="st0" cx="256" cy="246" r="238"/>
<g>
	<path class="st1" d="M180.5,114h203.7c6.2,0,11.3,5.1,11.3,11.3v237.6c0,6.2-5.1,11.3-11.3,11.3H180.5c-6.2,0-11.3-5.1-11.3-11.3
		V125.3C169.2,119.1,174.3,114,180.5,114z"/>
	<path class="st2" d="M395.5,338.5v24.4c0,6.2-5.1,11.3-11.3,11.3H180.5c-6.2,0-11.3-5.1-11.3-11.3V125.3c0-6.2,5.1-11.3,11.3-11.3
		h28c-0.2,3.7-0.3,7.5-0.3,11.3C208.2,234.6,289.9,324.9,395.5,338.5z"/>
	<path class="st3" d="M169.2,351.6h226.3V510h-215c-6.2,0-11.3-5.1-11.3-11.3V351.6z"/>
	<path class="st1" d="M325.4,396.9H194.1c-1.3,0-2.3-1-2.3-2.3v-6.8c0-1.3,1-2.3,2.3-2.3h131.2c1.3,0,2.3,1,2.3,2.3v6.8
		C327.6,395.8,326.6,396.9,325.4,396.9z"/>
	<path class="st4" d="M282.4,421.7v6.8c0,1.3-1,2.3-2.3,2.3h-86c-1.2,0-2.3-1-2.3-2.3v-6.8c0-1.3,1-2.3,2.3-2.3h86
		C281.3,419.5,282.4,420.5,282.4,421.7z M280.1,442.1h-86c-1.2,0-2.3,1-2.3,2.3v6.8c0,1.3,1,2.3,2.3,2.3h86c1.2,0,2.3-1,2.3-2.3
		v-6.8C282.4,443.1,281.3,442.1,280.1,442.1z"/>
</g>
</svg>
