<?xml version="1.0"?>
<svg xmlns="http://www.w3.org/2000/svg" width="512" height="512" viewBox="0 0 128 128"><g><g><path d="M1.75,126.25h15a109.622,109.622,0,0,1,109.5-109.5v-15A124.5,124.5,0,0,0,1.75,126.25Z" fill="#ef5350"/><path d="M16.75,126.25h15a94.6,94.6,0,0,1,94.5-94.5v-15A109.622,109.622,0,0,0,16.75,126.25Z" fill="#ffae4d"/><path d="M61.75,126.25h15a49.555,49.555,0,0,1,49.5-49.5v-15A64.567,64.567,0,0,0,61.75,126.25Z" fill="#77bc4d"/><path d="M31.75,126.25h15a79.585,79.585,0,0,1,79.5-79.5v-15A94.6,94.6,0,0,0,31.75,126.25Z" fill="#ffe671"/><path d="M46.75,126.25h15a64.567,64.567,0,0,1,64.5-64.5v-15A79.585,79.585,0,0,0,46.75,126.25Z" fill="#70efef"/></g><g><path d="M126.25,0A126.394,126.394,0,0,0,0,126.25,1.751,1.751,0,0,0,1.75,128h75a1.751,1.751,0,0,0,1.75-1.75A47.8,47.8,0,0,1,126.25,78.5,1.751,1.751,0,0,0,128,76.75v-75A1.751,1.751,0,0,0,126.25,0ZM60.023,124.5H48.532A78.289,78.289,0,0,1,92.573,56.177a1.75,1.75,0,1,0-1.521-3.152A81.817,81.817,0,0,0,45.019,124.5h-11.5A92.855,92.855,0,0,1,124.5,33.522v11.5a81.032,81.032,0,0,0-20.624,3.113,1.75,1.75,0,1,0,.965,3.364A77.547,77.547,0,0,1,124.5,48.53V60.023A66.327,66.327,0,0,0,60.023,124.5ZM124.5,3.512v11.5A110.263,110.263,0,0,0,60.716,36.4a1.751,1.751,0,0,0,2.067,2.826A106.766,106.766,0,0,1,124.5,18.534V30.016A96.357,96.357,0,0,0,30.016,124.5H18.532A107.113,107.113,0,0,1,36.29,67a1.749,1.749,0,0,0-2.919-1.929A110.613,110.613,0,0,0,15.014,124.5H3.512A122.887,122.887,0,0,1,124.5,3.512ZM75.029,124.5H63.544A62.8,62.8,0,0,1,124.5,63.544V75.029A51.321,51.321,0,0,0,75.029,124.5Z"/><path d="M44.61,55.1a1.743,1.743,0,0,0,1.3-.584c1.808-2.022,3.716-4,5.673-5.885a1.75,1.75,0,1,0-2.427-2.521c-2.019,1.943-3.99,3.987-5.855,6.074a1.75,1.75,0,0,0,1.3,2.916Z"/></g></g></svg>
