<?xml version="1.0" encoding="utf-8"?>
<!-- Generator: Adobe Illustrator 21.0.0, SVG Export Plug-In . SVG Version: 6.00 Build 0)  -->
<svg version="1.1" id="Layer_1" xmlns="http://www.w3.org/2000/svg" xmlns:xlink="http://www.w3.org/1999/xlink" x="0px" y="0px"
	 viewBox="0 0 124.3 141.7" style="enable-background:new 0 0 124.3 141.7;" xml:space="preserve">
<style type="text/css">
	.st0{fill:url(#SVGID_1_);}
	.st1{fill:url(#SVGID_2_);}
</style>
<g>
	
		<linearGradient id="SVGID_1_" gradientUnits="userSpaceOnUse" x1="5.9197" y1="73.2603" x2="118.1783" y2="73.2603" gradientTransform="matrix(1 0 0 -1 0 144)">
		<stop  offset="0" style="stop-color:#D9BFF9"/>
		<stop  offset="0.1176" style="stop-color:#CFBCF5"/>
		<stop  offset="0.3164" style="stop-color:#B5B3EC"/>
		<stop  offset="0.5718" style="stop-color:#8AA4DC"/>
		<stop  offset="0.8712" style="stop-color:#4F90C6"/>
		<stop  offset="1" style="stop-color:#3387BC"/>
	</linearGradient>
	<path class="st0" d="M118.2,39.8c0-2.6-1.5-5.1-4.2-6.4c-0.2,0-0.2-0.2-0.4-0.2L67,7.1c-0.2,0-0.2,0-0.4-0.2c-2.9-1.5-6-1.5-8.8,0
		c-0.2,0-0.2,0.2-0.4,0.2l-46.5,26c-0.2,0.2-0.2,0.2-0.4,0.2c-2.6,1.3-4.2,3.7-4.2,6.4v62c0,2.6,1.5,5.1,4.2,6.4
		c0.2,0,0.2,0.2,0.4,0.2l46.5,26c0.2,0,0.2,0,0.4,0.2c2.9,1.5,6,1.5,8.8,0c0.2,0,0.2-0.2,0.4-0.2l46.5-26c0.2-0.2,0.2-0.2,0.4-0.2
		c2.6-1.3,4.2-3.7,4.2-6.4l0,0V39.8z"/>
	
		<linearGradient id="SVGID_2_" gradientUnits="userSpaceOnUse" x1="5.9197" y1="73.15" x2="118.1783" y2="73.15" gradientTransform="matrix(1 0 0 -1 0 144)">
		<stop  offset="0" style="stop-color:#D9BFF9"/>
		<stop  offset="0.1176" style="stop-color:#CFBCF5"/>
		<stop  offset="0.3164" style="stop-color:#B5B3EC"/>
		<stop  offset="0.5718" style="stop-color:#8AA4DC"/>
		<stop  offset="0.8712" style="stop-color:#4F90C6"/>
		<stop  offset="1" style="stop-color:#3387BC"/>
	</linearGradient>
	<path class="st1" d="M114,108.3c-0.2,0-0.2,0.2-0.4,0.2l-46.5,26c-0.2,0-0.2,0-0.4,0.2c-2.9,1.5-6,1.5-8.8,0c-0.2,0-0.2,0-0.4-0.2
		l-46.5-26c-0.2-0.2-0.2-0.2-0.4-0.2c-2.6-1.3-4.2-3.7-4.2-6.4V39.8c0-2.6,1.5-5.1,4.2-6.4c0.2,0,0.2-0.2,0.4-0.2l46.5-26
		c0.2,0,0.2,0,0.4-0.2c2.9-1.5,6-1.5,8.8,0c0.2,0,0.2,0,0.4,0.2l46.5,26c0.2,0.2,0.2,0.2,0.4,0.2c2.6,1.3,4.2,3.7,4.2,6.4v62l0,0
		C118.2,104.4,116.6,106.8,114,108.3z"/>
</g>
<g>
	<g>
		<path d="M62.4,82.3c-1.5,0-2.8,1.3-2.8,2.8v40.4c0,1.5,1.3,2.8,2.8,2.8c1.5,0,2.8-1.3,2.8-2.8V85.3C65.2,83.6,63.9,82.3,62.4,82.3
			z"/>
		<path d="M44.9,98.7C44.7,98.7,44.7,98.7,44.9,98.7l-8.6-26c-0.4-1.1-1.3-1.9-2.6-1.9c-1.1,0-2.4,0.6-2.8,1.5l-11.6,23
			c-0.6,1.5-0.2,3.2,1.3,3.9c1.5,0.6,3.2,0.2,3.9-1.3l1.5-3.2l13.5,6.9l2.6,7.5c0.4,1.3,1.5,1.9,2.8,1.9c0.2,0,0.6,0,0.9-0.2
			c1.5-0.4,2.4-2.2,1.7-3.7L44.9,98.7z M28.6,89.6l4.3-8.4l4.3,12.7L28.6,89.6z"/>
		<path d="M52,65.3L17.4,48.1c-1.5-0.6-3.2-0.2-3.9,1.3c-0.6,1.5-0.2,3.2,1.3,3.9l34.6,17.2c0.4,0.2,0.9,0.2,1.3,0.2
			c1.1,0,2.2-0.6,2.6-1.5C54,67.9,53.5,66.2,52,65.3z"/>
		<path d="M107.1,48.1L72.5,65.3c-1.5,0.6-1.9,2.4-1.3,3.9c0.4,1.1,1.5,1.5,2.6,1.5c0.4,0,0.9,0,1.3-0.2l34.6-17.2
			c1.5-0.6,1.9-2.4,1.3-3.9C110.3,47.9,108.6,47.5,107.1,48.1z"/>
		<path d="M115.9,29.4c-0.2,0-0.2-0.2-0.4-0.2L69.2,3.4c-0.2,0-0.4-0.2-0.6-0.2c-4.1-1.9-8.8-1.9-12.9,0c-0.2,0-0.4,0.2-0.6,0.2
			L8.8,29.2c-0.2,0-0.2,0.2-0.4,0.2c-4.1,2.4-6.7,6.7-6.7,11.2V101c0,4.5,2.6,8.6,6.7,11.2c0.2,0,0.2,0.2,0.4,0.2L55,138.2
			c0.2,0,0.4,0.2,0.6,0.2c2.2,1.1,4.3,1.5,6.5,1.5c2.2,0,4.3-0.4,6.5-1.5c0.2,0,0.4-0.2,0.6-0.2l46.2-25.8c0.2,0,0.2-0.2,0.4-0.2
			c4.1-2.4,6.7-6.7,6.7-11.2V40.6C122.8,36.1,120.2,32,115.9,29.4z M117,101c0,2.6-1.5,4.9-4.1,6.2c-0.2,0-0.2,0.2-0.4,0.2
			l-45.4,25.4c-0.2,0-0.2,0-0.4,0.2c-2.8,1.5-5.8,1.5-8.6,0c-0.2,0-0.2,0-0.4-0.2l-45.4-25.4c-0.2-0.2-0.2-0.2-0.4-0.2
			c-2.6-1.3-4.1-3.7-4.1-6.2V40.6c0-2.6,1.5-4.9,4.1-6.2c0.2,0,0.2-0.2,0.4-0.2L57.6,8.8c0.2,0,0.2,0,0.4-0.2c2.8-1.5,5.8-1.5,8.6,0
			c0.2,0,0.2,0,0.4,0.2l45.4,25.4c0.2,0.2,0.2,0.2,0.4,0.2c2.6,1.3,4.1,3.7,4.1,6.2V101L117,101z"/>
		<path d="M84.1,36.5c-0.2-3.4-2.2-6.5-5.4-8.2c-4.9-2.6-11-2.2-15.7,0.6l-1.1,0.6c-0.4-2.6-2.2-4.5-4.5-5.8c-2.6-1.3-5.4-1.3-8,0.2
			l-17.6,9.7c-0.9,0.4-1.5,1.5-1.5,2.6s0.6,2.2,1.7,2.6l31.6,14.4c0.4,0.2,0.9,0.2,1.3,0.2c0.4,0,1.1-0.2,1.5-0.4l12.9-8.2
			C82.6,43.2,84.3,40,84.1,36.5z M40,36.1l12.7-6.9c0.9-0.4,1.7-0.4,2.6,0c1.3,0.6,1.5,1.7,1.5,2.4c0,0.4,0,1.7-1.3,2.4l-8.4,5.4
			L40,36.1z M76.5,40.2l-11.6,7.3l-11.6-5.4l12.9-8.2c3-1.9,6.9-2.2,10.1-0.4c1.3,0.6,1.9,1.7,2.2,3.2
			C78.5,38.2,77.8,39.3,76.5,40.2z"/>
		<path d="M102.6,91.4c-1.5,0-2.8,1.3-2.8,2.8c0,2.2-1.3,4.1-3.2,5.2c-1.7,0.9-3.9,0.9-5.6-0.2c-1.7-1.1-2.8-2.8-2.8-4.9v-7.7
			c0-3.2,1.7-6.2,4.7-7.7c1.5-0.6,3.2-0.6,4.5,0.2c1.5,0.9,2.2,2.4,2.2,3.9s1.3,2.8,2.8,2.8s2.8-1.3,2.8-2.8c0-3.7-1.9-6.9-4.9-8.8
			c-3-1.9-6.9-2.2-10.1-0.4c-4.9,2.4-8,7.3-8,12.9v7.7c0,4.1,1.9,7.7,5.4,9.9c1.9,1.1,3.9,1.7,6,1.7c1.7,0,3.4-0.4,5.2-1.3
			c3.9-1.9,6.5-5.8,6.5-10.3C105.4,92.6,104.1,91.4,102.6,91.4z"/>
	</g>
</g>
</svg>
