<?xml version="1.0" encoding="utf-8"?>
<!-- Generator: Adobe Illustrator 21.0.0, SVG Export Plug-In . SVG Version: 6.00 Build 0)  -->
<svg version="1.1" id="Layer_1" xmlns="http://www.w3.org/2000/svg" xmlns:xlink="http://www.w3.org/1999/xlink" x="0px" y="0px"
	 viewBox="0 0 124.3 141.7" style="enable-background:new 0 0 124.3 141.7;" xml:space="preserve">
<style type="text/css">
	.st0{fill:#58B9E0;}
	.st1{fill:#58DD91;stroke:#1C1C1C;stroke-width:2.1815;stroke-miterlimit:10;}
	.st2{fill:#EAEA71;stroke:#1C1C1C;stroke-width:2.1815;stroke-miterlimit:10;}
	.st3{fill:#DD6558;stroke:#1C1C1C;stroke-width:2.1815;stroke-miterlimit:10;}
	.st4{fill:none;stroke:#1C1C1C;stroke-width:2.1815;stroke-linecap:round;stroke-miterlimit:10;}
	.st5{fill:none;stroke:#1C1C1C;stroke-width:2.1815;stroke-miterlimit:10;}
</style>
<g>
	<path class="st0" d="M117.5,39.8c0-2.6-1.6-5-4.2-6.3c-0.2-0.1-0.3-0.2-0.5-0.3L66.5,7.8c-0.1,0-0.2-0.1-0.4-0.1
		c-2.8-1.4-6-1.4-8.8,0.1c-0.1,0.1-0.2,0.1-0.4,0.2L11,33.8c-0.1,0.1-0.3,0.2-0.4,0.3c-2.6,1.4-4.2,3.8-4.2,6.4l0.4,61.4
		c0,2.6,1.6,5,4.2,6.3c0.2,0.1,0.3,0.2,0.5,0.3l46.3,25.4c0.1,0,0.2,0.1,0.4,0.1c2.8,1.4,6,1.4,8.8-0.1c0.1-0.1,0.2-0.1,0.4-0.2
		l45.9-26c0.1-0.1,0.3-0.2,0.4-0.3c2.6-1.4,4.2-3.8,4.2-6.4l0,0L117.5,39.8z"/>
</g>
<path class="st1" d="M44.6,99.4L44.6,99.4l-8.9-26.3c-0.4-1.1-1.4-1.9-2.6-2c-1.1-0.1-2.3,0.6-2.8,1.6L18.8,96.3
	c-0.7,1.4-0.1,3.2,1.3,3.9c1.5,0.7,3.2,0.1,3.9-1.3l1.6-3.2l13.9,6.8l2.6,7.6c0.4,1.2,1.6,2,2.8,2c0.3,0,0.6-0.1,0.9-0.2
	c1.5-0.5,2.3-2.2,1.8-3.7L44.6,99.4z M28.2,90.4l4.2-8.6l4.4,12.9L28.2,90.4z"/>
<path class="st2" d="M84.1,36c-0.2-3.6-2.2-6.6-5.4-8.2c-5.1-2.5-11.1-2.2-15.9,0.9l-1.1,0.7c-0.5-2.5-2.2-4.7-4.6-5.8
	c-2.5-1.3-5.5-1.2-8,0.2l-17.8,9.9c-1,0.5-1.6,1.6-1.5,2.7s0.7,2.1,1.7,2.5l32.2,14.4c0.4,0.2,0.8,0.3,1.2,0.3
	c0.5,0,1.1-0.2,1.6-0.5l13.1-8.3C82.6,42.8,84.3,39.6,84.1,36z M39.2,35.9l12.7-7c0.8-0.4,1.7-0.5,2.5-0.1c1.3,0.6,1.5,1.8,1.5,2.3
	s0,1.7-1.3,2.5L46.4,39L39.2,35.9z M76.4,39.8l-11.8,7.4l-11.9-5.3l13.1-8.3c3-1.9,6.9-2.1,10.2-0.5c1.3,0.6,2.1,1.8,2.1,3.3
	C78.3,37.7,77.6,39,76.4,39.8z"/>
<path class="st3" d="M103.2,91.7c-1.6,0-2.9,1.3-2.9,2.9c0,2.2-1.2,4.2-3.2,5.2c-1.8,0.9-4,0.8-5.7-0.2c-1.8-1.1-2.8-2.9-2.8-5v-7.8
	c0-3.3,1.8-6.4,4.8-7.9c1.5-0.8,3.2-0.7,4.6,0.2c1.4,0.9,2.3,2.3,2.3,4c0,1.6,1.3,2.9,2.9,2.9s2.9-1.3,2.9-2.9c0-3.7-1.9-7-5.1-9
	c-3.1-1.9-7-2.1-10.3-0.4c-5,2.5-8,7.5-8,13.1v7.8c0,4.1,2.1,7.8,5.6,9.9c1.9,1.2,4,1.7,6.2,1.7c1.8,0,3.6-0.4,5.2-1.3
	c4-2,6.4-6,6.4-10.5C106.1,92.9,104.8,91.6,103.2,91.7z"/>
<line class="st4" x1="74.7" y1="67.7" x2="108.8" y2="50.5"/>
<line class="st4" x1="15.9" y1="51.2" x2="50.4" y2="67.7"/>
<line class="st4" x1="62.2" y1="86.2" x2="62.5" y2="124.4"/>
<path class="st5" d="M116.4,29.1c-0.1-0.1-0.3-0.2-0.4-0.3l-46.7-26c-0.2-0.1-0.4-0.2-0.6-0.2c-4.2-1.9-8.9-2-13.1,0
	c-0.2,0.1-0.4,0.1-0.6,0.3l-46.7,26c-0.2,0-0.3,0.1-0.4,0.2c-4.2,2.4-6.8,6.7-6.8,11.2v61c0,4.5,2.6,8.8,6.8,11.2
	c0.1,0.1,0.3,0.2,0.4,0.3l46.7,26c0.2,0.1,0.4,0.2,0.6,0.2c2.1,1,4.3,1.5,6.6,1.5c2.2,0,4.4-0.5,6.5-1.5c0.2-0.1,0.4-0.1,0.6-0.3
	l46.7-26c0.1-0.1,0.3-0.2,0.4-0.3c4.2-2.4,6.8-6.7,6.8-11.2v-61C123.2,35.8,120.6,31.5,116.4,29.1z"/>
</svg>
