<?xml version="1.0" encoding="iso-8859-1"?>
<!-- Generator: Adobe Illustrator 19.0.0, SVG Export Plug-In . SVG Version: 6.00 Build 0)  -->
<svg version="1.1" id="Layer_1" xmlns="http://www.w3.org/2000/svg" xmlns:xlink="http://www.w3.org/1999/xlink" x="0px" y="0px"
	 viewBox="0 0 485.93 485.93" style="enable-background:new 0 0 485.93 485.93;" xml:space="preserve">
<g id="XMLID_1390_">
	<g id="XMLID_1402_">
		<path style="fill:#CBBBA0;" d="M242.965,443.5L242.965,443.5c-63.368,0-114.737-51.369-114.737-114.737v-168.28
			c0-63.367,51.369-114.737,114.737-114.737l0,0c63.367,0,114.737,51.369,114.737,114.737v168.281
			C357.702,392.131,306.333,443.5,242.965,443.5z"/>
	</g>
	<g id="XMLID_1221_">
		<path style="fill:#D5C9B3;" d="M242.965,443.5L242.965,443.5V45.746l0,0c-63.367,0-114.737,51.369-114.737,114.737v168.281
			C128.228,392.131,179.598,443.5,242.965,443.5z"/>
	</g>
	<g id="XMLID_1448_">
		<rect x="128.228" y="168.132" style="fill:#7B6A58;" width="229.474" height="45.895"/>
	</g>
	<g id="XMLID_1469_">
		<rect x="128.228" y="259.921" style="fill:#7B6A58;" width="229.474" height="45.895"/>
	</g>
	<g id="XMLID_1483_">
		<path style="fill:#7B6A58;" d="M320.926,397.605H168.87c-22.446,0-40.642-18.196-40.642-40.642l0,0
			c0-2.901,2.352-5.253,5.253-5.253h218.968c2.901,0,5.253,2.352,5.253,5.253v3.866C357.702,381.14,341.237,397.605,320.926,397.605
			z"/>
	</g>
	<g id="XMLID_840_">
		<path style="fill:#1D1D1B;" d="M242.965,451c-67.401,0-122.236-54.835-122.236-122.236V163.032
			c0-67.401,54.835-122.236,122.236-122.236c67.402,0,122.237,54.835,122.237,122.236v165.731
			C365.202,396.165,310.367,451,242.965,451z M242.965,55.796c-59.13,0-107.236,48.106-107.236,107.236v165.731
			c0,59.13,48.106,107.236,107.236,107.236c59.131,0,107.237-48.107,107.237-107.236V163.032
			C350.202,103.902,302.096,55.796,242.965,55.796z"/>
	</g>
	<g id="XMLID_862_">
		<g id="XMLID_863_">
			<polygon style="fill:#1D1D1B;" points="455.661,47.225 423.438,15 273.412,15 273.412,30.447 258.412,30.447 258.412,0 
				429.651,0 466.269,36.617 			"/>
		</g>
		<g id="XMLID_864_">
			<polygon style="fill:#1D1D1B;" points="30.269,47.225 19.661,36.617 56.28,0 227.518,0 227.518,30.447 212.518,30.447 
				212.518,15 62.492,15 			"/>
		</g>
	</g>
	<g id="XMLID_866_">
		<rect x="143.527" y="160.632" style="fill:#1D1D1B;" width="198.877" height="15"/>
	</g>
	<g id="XMLID_865_">
		<polygon style="fill:#1D1D1B;" points="405.942,188.733 392.841,175.632 373,175.632 373,160.632 399.054,160.632 
			416.549,178.126 		"/>
	</g>
	<g id="XMLID_868_">
		<polygon style="fill:#1D1D1B;" points="405.942,242.277 392.841,229.176 373,229.176 373,214.176 399.054,214.176 416.549,231.67 
					"/>
	</g>
	<g id="XMLID_869_">
		<polygon style="fill:#1D1D1B;" points="405.942,295.821 392.841,282.72 373,282.72 373,267.72 399.054,267.72 416.549,285.214 		
			"/>
	</g>
	<g id="XMLID_870_">
		<polygon style="fill:#1D1D1B;" points="405.942,349.365 392.841,336.264 373,336.264 373,321.264 399.054,321.264 
			416.549,338.758 		"/>
	</g>
	<g id="XMLID_877_">
		<polygon style="fill:#1D1D1B;" points="79.989,188.733 69.381,178.126 86.876,160.632 112.93,160.632 112.93,175.632 
			93.089,175.632 		"/>
	</g>
	<g id="XMLID_876_">
		<polygon style="fill:#1D1D1B;" points="79.989,242.277 69.381,231.67 86.876,214.176 112.93,214.176 112.93,229.176 
			93.089,229.176 		"/>
	</g>
	<g id="XMLID_872_">
		<polygon style="fill:#1D1D1B;" points="79.989,295.821 69.381,285.214 86.876,267.72 112.93,267.72 112.93,282.72 93.089,282.72 
					"/>
	</g>
	<g id="XMLID_871_">
		<polygon style="fill:#1D1D1B;" points="79.989,349.365 69.381,338.758 86.876,321.264 112.93,321.264 112.93,336.264 
			93.089,336.264 		"/>
	</g>
	<g id="XMLID_867_">
		<g id="XMLID_878_">
			
				<rect x="216.353" y="456.506" transform="matrix(-0.8321 -0.5547 0.5547 -0.8321 149.2516 985.7793)" style="fill:#1D1D1B;" width="15.001" height="27.58"/>
		</g>
		<g id="XMLID_879_">
			
				<rect x="248.313" y="462.755" transform="matrix(-0.5547 -0.832 0.832 -0.5547 16.2287 949.1948)" style="fill:#1D1D1B;" width="27.579" height="14.999"/>
		</g>
	</g>
	<g id="XMLID_881_">
		<rect x="143.527" y="206.526" style="fill:#1D1D1B;" width="198.877" height="15"/>
	</g>
	<g id="XMLID_882_">
		<rect x="143.527" y="252.421" style="fill:#1D1D1B;" width="198.877" height="15"/>
	</g>
	<g id="XMLID_883_">
		<rect x="143.527" y="298.316" style="fill:#1D1D1B;" width="198.877" height="15"/>
	</g>
	<g id="XMLID_884_">
		<rect x="143.527" y="344.211" style="fill:#1D1D1B;" width="198.877" height="15"/>
	</g>
	<g id="XMLID_890_">
		<rect x="174.123" y="390.105" style="fill:#1D1D1B;" width="137.684" height="15"/>
	</g>
	<g id="XMLID_912_">
		<rect x="212.368" y="99.438" style="fill:#FFFFFF;" width="15.299" height="15"/>
	</g>
	<g id="XMLID_913_">
		<rect x="258.263" y="99.438" style="fill:#FFFFFF;" width="15.299" height="15"/>
	</g>
</g>
<g>
</g>
<g>
</g>
<g>
</g>
<g>
</g>
<g>
</g>
<g>
</g>
<g>
</g>
<g>
</g>
<g>
</g>
<g>
</g>
<g>
</g>
<g>
</g>
<g>
</g>
<g>
</g>
<g>
</g>
</svg>
