<?xml version="1.0" encoding="iso-8859-1"?>
<!-- Generator: Adobe Illustrator 19.0.0, SVG Export Plug-In . SVG Version: 6.00 Build 0)  -->
<svg version="1.1" id="Layer_1" xmlns="http://www.w3.org/2000/svg" xmlns:xlink="http://www.w3.org/1999/xlink" x="0px" y="0px"
	 viewBox="0 0 493.779 493.779" style="enable-background:new 0 0 493.779 493.779;" xml:space="preserve">
<g id="XMLID_1001_">
	<g id="XMLID_999_">
		<path style="fill:#F5A833;" d="M201.941,309.208h-62.387c-34.272,0-62.055,27.783-62.055,62.055v7.943h124.442L201.941,309.208
			L201.941,309.208z"/>
	</g>
	<g id="XMLID_1002_">
		<path style="fill:#F5A833;" d="M295.272,309.208h62.387c34.272,0,62.055,27.783,62.055,62.055v7.943H295.272V309.208z"/>
	</g>
	<g id="XMLID_997_">
		<polygon style="fill:#F5A833;" points="201.941,153.655 7.5,153.655 7.5,90.416 139.72,91.434 178.608,114.767 		"/>
	</g>
	<g id="XMLID_1000_">
		<polygon style="fill:#F5A833;" points="295.272,153.655 481.935,153.655 481.935,90.416 349.716,91.434 310.827,114.767 		"/>
	</g>
	<g id="XMLID_965_">
		<polygon style="fill:#CA7AC1;" points="201.941,231.431 15.278,231.431 7.5,153.655 201.941,153.655 		"/>
	</g>
	<g id="XMLID_998_">
		<polygon style="fill:#CA7AC1;" points="481.935,231.431 295.272,231.431 295.272,153.655 489.713,153.655 		"/>
	</g>
	<g id="XMLID_963_">
		<polygon style="fill:#93F4E9;" points="194.163,410.317 163.053,441.427 69.721,441.427 69.721,379.206 201.941,379.206 		"/>
	</g>
	<g id="XMLID_966_">
		<polygon style="fill:#93F4E9;" points="295.272,410.317 326.383,441.427 419.714,441.427 419.714,379.206 295.272,379.206 		"/>
	</g>
	<g id="XMLID_961_">
		<polygon style="fill:#93F4E9;" points="201.941,278.097 61.944,278.097 15.278,231.431 201.941,231.431 		"/>
	</g>
	<g id="XMLID_964_">
		<polygon style="fill:#93F4E9;" points="295.272,278.097 435.269,278.097 481.935,231.431 295.272,231.431 		"/>
	</g>
	<g id="XMLID_818_">
		<circle style="fill:#93F4E9;" cx="100.832" cy="153.655" r="31.111"/>
	</g>
	<g id="XMLID_962_">
		<circle style="fill:#93F4E9;" cx="388.604" cy="153.655" r="31.111"/>
	</g>
	<g id="XMLID_88_">
		<path style="fill:#1D1D1B;" d="M403.804,288.942H287.267V172.407c0-49.613,40.363-89.977,89.977-89.977h116.535v116.535
			C493.779,248.579,453.416,288.942,403.804,288.942z M302.267,273.942h101.536c41.342,0,74.976-33.634,74.976-74.977V97.43H377.244
			c-41.342,0-74.977,33.634-74.977,74.977V273.942z"/>
	</g>
	<polygon style="fill:#1D1D1B;" points="275.617,159.035 218.163,159.035 218.163,174.035 239.39,174.035 239.39,377.198 
		254.39,377.198 254.39,174.035 275.617,174.035 	"/>
	<g id="XMLID_195_">
		<path style="fill:#1D1D1B;" d="M426.751,451.727h-70.974c-37.776,0-68.51-30.733-68.51-68.509v-80.549h70.974
			c37.776,0,68.51,30.733,68.51,68.509V451.727z M302.267,317.669v65.549c0,29.505,24.004,53.509,53.51,53.509h55.974v-65.549
			c0-29.505-24.004-53.509-53.51-53.509H302.267z"/>
	</g>
	<g id="XMLID_199_">
		<rect x="220.238" y="42.052" style="fill:#1D1D1B;" width="15" height="105.331"/>
	</g>
	<g id="XMLID_200_">
		<rect x="258.541" y="42.052" style="fill:#1D1D1B;" width="15" height="105.331"/>
	</g>
	<g id="XMLID_201_">
		<rect x="313.919" y="226.064" style="fill:#1D1D1B;" width="143.634" height="15"/>
	</g>
	<g id="XMLID_198_">
		<path style="fill:#1D1D1B;" d="M390.523,193.186c-19.976,0-36.227-16.251-36.227-36.227s16.251-36.227,36.227-36.227
			c19.976,0,36.227,16.251,36.227,36.227S410.499,193.186,390.523,193.186z M390.523,135.732c-11.704,0-21.227,9.522-21.227,21.227
			s9.522,21.227,21.227,21.227s21.227-9.522,21.227-21.227C411.751,145.255,402.228,135.732,390.523,135.732z"/>
	</g>
	<g id="XMLID_203_">
		<rect x="438.401" y="149.459" style="fill:#1D1D1B;" width="28.728" height="15"/>
	</g>
	<g id="XMLID_204_">
		<rect x="313.919" y="149.459" style="fill:#1D1D1B;" width="28.727" height="15"/>
	</g>
	<g id="XMLID_205_">
		<rect x="323.495" y="369.698" style="fill:#1D1D1B;" width="67.028" height="15"/>
	</g>
	<g id="XMLID_212_">
		<path style="fill:#1D1D1B;" d="M206.512,288.942H89.977C40.363,288.942,0,248.579,0,198.965V82.43h116.535
			c49.613,0,89.977,40.363,89.977,89.977V288.942z M15,97.43v101.535c0,41.342,33.635,74.977,74.977,74.977h101.535V172.407
			c0-41.342-33.635-74.977-74.977-74.977H15z"/>
	</g>
	<g id="XMLID_211_">
		<path style="fill:#1D1D1B;" d="M138.003,451.727H67.029v-80.549c0-37.776,30.733-68.509,68.509-68.509h70.974v80.549
			C206.512,420.994,175.778,451.727,138.003,451.727z M82.029,436.727h55.974c29.505,0,53.509-24.004,53.509-53.509v-65.549h-55.974
			c-29.505,0-53.509,24.004-53.509,53.509C82.029,371.178,82.029,436.727,82.029,436.727z"/>
	</g>
	<g id="XMLID_210_">
		<rect x="36.227" y="226.064" style="fill:#1D1D1B;" width="143.635" height="15"/>
	</g>
	<g id="XMLID_209_">
		<path style="fill:#1D1D1B;" d="M103.256,193.186c-19.976,0-36.227-16.251-36.227-36.227s16.251-36.227,36.227-36.227
			s36.227,16.251,36.227,36.227S123.231,193.186,103.256,193.186z M103.256,135.732c-11.704,0-21.227,9.522-21.227,21.227
			s9.522,21.227,21.227,21.227s21.227-9.522,21.227-21.227C124.482,145.255,114.96,135.732,103.256,135.732z"/>
	</g>
	<g id="XMLID_208_">
		<rect x="26.651" y="149.459" style="fill:#1D1D1B;" width="28.727" height="15"/>
	</g>
	<g id="XMLID_207_">
		<rect x="151.134" y="149.459" style="fill:#1D1D1B;" width="28.728" height="15"/>
	</g>
	<g id="XMLID_206_">
		<rect x="103.256" y="369.698" style="fill:#1D1D1B;" width="67.029" height="15"/>
	</g>
</g>
<g>
</g>
<g>
</g>
<g>
</g>
<g>
</g>
<g>
</g>
<g>
</g>
<g>
</g>
<g>
</g>
<g>
</g>
<g>
</g>
<g>
</g>
<g>
</g>
<g>
</g>
<g>
</g>
<g>
</g>
</svg>
