<?xml version="1.0" encoding="iso-8859-1"?>
<!-- Generator: Adobe Illustrator 19.0.0, SVG Export Plug-In . SVG Version: 6.00 Build 0)  -->
<svg version="1.1" id="Layer_1" xmlns="http://www.w3.org/2000/svg" xmlns:xlink="http://www.w3.org/1999/xlink" x="0px" y="0px"
	 viewBox="0 0 488.574 488.574" style="enable-background:new 0 0 488.574 488.574;" xml:space="preserve">
<g id="XMLID_1177_">
	<g id="XMLID_1126_">
		<path style="fill:#2FAC66;" d="M465.798,194.639l-68.745-68.745l-0.573,6.882c-13.43-16.618-34.379-22.158-57.41-22.158H160.266
			v106.936h229.149h22.915h30.553l38.191,30.553L465.798,194.639z"/>
	</g>
	<g id="XMLID_1087_">
		<rect x="160.266" y="110.618" style="fill:#61BB5D;" width="99.298" height="106.936"/>
	</g>
	<g id="XMLID_529_">
		<polygon style="fill:#61BB5D;" points="7.5,217.554 15.138,164.086 45.691,110.618 129.713,64.788 160.266,64.788 
			160.266,217.554 		"/>
	</g>
	<g id="XMLID_1085_">
		<rect x="114.436" y="72.426" style="fill:#2FAC66;" width="45.83" height="145.128"/>
	</g>
	<g id="XMLID_1084_">
		<circle style="fill:#FFFFFF;" cx="106.798" cy="141.171" r="30.553"/>
	</g>
	<g id="XMLID_381_">
		<path style="fill:#1D1D1B;" d="M106.798,179.225c-20.982,0-38.053-17.071-38.053-38.054s17.071-38.053,38.053-38.053
			s38.053,17.07,38.053,38.053S127.78,179.225,106.798,179.225z M106.798,118.118c-12.711,0-23.053,10.342-23.053,23.053
			c0,12.712,10.342,23.054,23.053,23.054c12.712,0,23.053-10.342,23.053-23.054C129.851,128.46,119.509,118.118,106.798,118.118z"/>
	</g>
	<g id="XMLID_580_">
		<rect x="106.798" y="126.033" style="fill:#1D1D1B;" width="15.276" height="15"/>
	</g>
	<g id="XMLID_422_">
		<rect x="183.181" y="210.054" style="fill:#1D1D1B;" width="152.766" height="15"/>
	</g>
	<g id="XMLID_391_">
		<rect x="190.958" y="125.895" style="fill:#1D1D1B;" width="15" height="30.553"/>
	</g>
	<g id="XMLID_397_">
		<rect x="221.511" y="125.895" style="fill:#1D1D1B;" width="15" height="53.468"/>
	</g>
	<g id="XMLID_423_">
		<rect x="252.064" y="125.895" style="fill:#1D1D1B;" width="15" height="76.383"/>
	</g>
	<g id="XMLID_425_">
		<rect x="282.617" y="125.895" style="fill:#1D1D1B;" width="15" height="76.383"/>
	</g>
	<g id="XMLID_426_">
		<rect x="313.17" y="125.895" style="fill:#1D1D1B;" width="15" height="53.468"/>
	</g>
	<g id="XMLID_429_">
		<rect x="343.723" y="125.895" style="fill:#1D1D1B;" width="15" height="53.468"/>
	</g>
	<g id="XMLID_441_">
		<rect x="374.276" y="141.171" style="fill:#1D1D1B;" width="15" height="15.276"/>
	</g>
	<g>
		<path style="fill:#1D1D1B;" d="M152.627,210.054H15.191c3.786-74.149,63.425-133.788,137.574-137.574v106.883h15V57.288h-7.5
			C71.895,57.288,0,129.183,0,217.554v7.5h152.627V210.054z"/>
		<path style="fill:#1D1D1B;" d="M68.468,264.46v-8.853h30.553v-22.776h-15v7.776H53.468v23.853
			c-13.155,3.349-22.915,15.293-22.915,29.476h15c0-8.499,6.915-15.414,15.415-15.414s15.415,6.915,15.415,15.414h15
			C91.383,279.754,81.623,267.809,68.468,264.46z"/>
		<path style="fill:#1D1D1B;" d="M152.627,187.14v15h7.777v53.468h30.553v8.853c-13.156,3.349-22.915,15.293-22.915,29.476h15
			c0-8.499,6.915-15.414,15.415-15.414c8.499,0,15.415,6.915,15.415,15.414h15c0-14.183-9.759-26.127-22.915-29.476v-23.853h-30.553
			V187.14L152.627,187.14L152.627,187.14z"/>
		<path style="fill:#1D1D1B;" d="M312.893,255.607v-22.776h-15v7.776H267.34v23.853c-13.156,3.349-22.915,15.293-22.915,29.476h15
			c0-8.499,6.915-15.414,15.415-15.414s15.415,6.915,15.415,15.414h15c0-14.183-9.759-26.127-22.915-29.476v-8.853L312.893,255.607
			L312.893,255.607z"/>
		<path style="fill:#1D1D1B;" d="M335.947,187.14v15h7.776v53.468h30.553v8.853c-13.155,3.349-22.915,15.293-22.915,29.476h15
			c0-8.499,6.915-15.414,15.415-15.414s15.415,6.915,15.415,15.414h15c0-14.183-9.759-26.127-22.915-29.476v-23.853h-30.553V187.14
			L335.947,187.14L335.947,187.14z"/>
		<path style="fill:#1D1D1B;" d="M488.542,269.748c0.013-0.848,0.032-1.694,0.032-2.545c0-90.476-73.608-164.085-164.085-164.085
			H175.542v15h148.947c67.533,0,124.712,45.139,142.976,106.828c-10.697-9.266-24.629-14.893-39.858-14.893H366.5v15h61.106
			c24.92,0,45.257,19.936,45.935,44.695c-1.365,81.035-67.698,146.539-149.053,146.539H151.075
			c-26.527,0-48.108-21.581-48.108-48.107c0-20.395,16.592-36.986,36.986-36.986c15.488,0,28.089,12.6,28.089,28.089
			c0,11.564-9.408,20.971-20.971,20.971v15c19.835,0,35.971-16.137,35.971-35.971c0-23.76-19.33-43.089-43.089-43.089
			c-28.665,0-51.986,23.321-51.986,51.986c0,34.798,28.31,63.107,63.108,63.107h173.414c89.2,0,161.999-71.547,164.036-160.266
			h0.048C488.574,270.595,488.551,270.173,488.542,269.748z"/>
	</g>
</g>
<g>
</g>
<g>
</g>
<g>
</g>
<g>
</g>
<g>
</g>
<g>
</g>
<g>
</g>
<g>
</g>
<g>
</g>
<g>
</g>
<g>
</g>
<g>
</g>
<g>
</g>
<g>
</g>
<g>
</g>
</svg>
