<?xml version="1.0" encoding="iso-8859-1"?>
<!-- Generator: Adobe Illustrator 19.0.0, SVG Export Plug-In . SVG Version: 6.00 Build 0)  -->
<svg version="1.1" id="Layer_1" xmlns="http://www.w3.org/2000/svg" xmlns:xlink="http://www.w3.org/1999/xlink" x="0px" y="0px"
	 viewBox="0 0 494.963 494.963" style="enable-background:new 0 0 494.963 494.963;" xml:space="preserve">
<g id="XMLID_1422_">
	<g id="XMLID_1421_">
		<circle style="fill:#95C11F;" cx="448.658" cy="471.988" r="15.475"/>
	</g>
	<g id="XMLID_1180_">
		<circle style="fill:#95C11F;" cx="417.707" cy="394.613" r="15.475"/>
	</g>
	<g id="XMLID_1417_">
		<path style="fill:#FFFFFF;" d="M154.632,92.85c0,0-121.549,9.537-131.538-46.425h154.75L154.632,92.85z"/>
	</g>
	<g id="XMLID_1420_">
		<path style="fill:#FFFFFF;" d="M177.844,46.425L154.632,92.85c0,0-121.549,9.537-131.538-46.425"/>
	</g>
	<g id="XMLID_1419_">
		<path style="fill:#FFFFFF;" d="M317.119,46.425l23.213,46.425c0,0,121.549,9.537,131.538-46.425"/>
	</g>
	<g id="XMLID_1416_">
		<rect x="201.057" y="448.775" style="fill:#F599CB;" width="92.85" height="30.95"/>
	</g>
	<g id="XMLID_1389_">
		<polygon style="fill:#F7CEDC;" points="340.332,441.038 154.632,441.038 146.895,402.35 154.632,363.663 340.332,363.663 
			348.069,402.35 		"/>
	</g>
	<g id="XMLID_1123_">
		<polygon style="fill:#CBBBA0;" points="123.682,170.225 177.844,46.425 317.119,46.425 371.281,170.225 312.443,355.925 
			182.521,355.925 		"/>
	</g>
	<g id="XMLID_1388_">
		<polygon style="fill:#988C78;" points="177.844,46.425 162.37,92.85 340.332,92.85 317.119,46.425 		"/>
	</g>
	<g id="XMLID_669_">
		<path style="fill:#1D1D1B;" d="M312.149,456.275H182.814c-23.941,0-43.42-19.478-43.42-43.42v-21.011
			c0-23.941,19.479-43.419,43.42-43.419h129.336c23.941,0,43.42,19.478,43.42,43.419v21.011
			C355.569,436.797,336.091,456.275,312.149,456.275z M182.814,363.426c-15.671,0-28.42,12.749-28.42,28.419v21.011
			c0,15.671,12.749,28.42,28.42,28.42h129.336c15.671,0,28.42-12.749,28.42-28.42v-21.011c0-15.67-12.749-28.419-28.42-28.419
			H182.814z"/>
	</g>
	<g id="XMLID_696_">
		<path style="fill:#1D1D1B;" d="M278.432,487.225h-61.9c-12.668,0-22.975-10.307-22.975-22.975h15c0,4.397,3.577,7.975,7.975,7.975
			h61.9c4.397,0,7.975-3.578,7.975-7.975h15C301.406,476.919,291.1,487.225,278.432,487.225z"/>
	</g>
	<g id="XMLID_697_">
		<rect x="177.844" y="379.375" style="fill:#1D1D1B;" width="15.475" height="15"/>
	</g>
	<g id="XMLID_698_">
		<rect x="301.645" y="379.375" style="fill:#1D1D1B;" width="15.475" height="15"/>
	</g>
	<g id="XMLID_700_">
		<rect x="177.844" y="85.35" style="fill:#1D1D1B;" width="139.275" height="15"/>
	</g>
	<g id="XMLID_557_">
		<rect x="146.895" y="162.725" style="fill:#1D1D1B;" width="201.176" height="15"/>
	</g>
	<g id="XMLID_558_">
		<rect x="170.107" y="178.2" style="fill:#FFFFFF;" width="15.475" height="15"/>
	</g>
	<g id="XMLID_559_">
		<rect x="309.382" y="178.2" style="fill:#FFFFFF;" width="15.475" height="15"/>
	</g>
	<g id="XMLID_565_">
		<rect x="208.795" y="131.775" style="fill:#1D1D1B;" width="77.375" height="15"/>
	</g>
	<g id="XMLID_570_">
		<rect x="363.544" y="425.801" style="fill:#1D1D1B;" width="85.112" height="15"/>
	</g>
	<g id="XMLID_556_">
		<path style="fill:#1D1D1B;" d="M419.646,417.588h-24.915v-24.914c0-11.6,9.436-21.036,21.036-21.036h24.914v24.914
			C440.682,408.151,431.245,417.588,419.646,417.588z M409.731,402.588h9.915c3.328,0,6.035-2.708,6.035-6.036v-9.914h-9.914
			c-3.328,0-6.036,2.708-6.036,6.036V402.588z"/>
	</g>
	<g id="XMLID_572_">
		<path style="fill:#1D1D1B;" d="M471.632,494.963h-25.047c-11.526,0-20.903-9.377-20.903-20.903v-25.047h25.047
			c11.526,0,20.903,9.377,20.903,20.903L471.632,494.963L471.632,494.963z M440.682,464.013v10.047c0,3.255,2.648,5.903,5.903,5.903
			h10.047v-10.047c0-3.255-2.648-5.903-5.903-5.903H440.682z"/>
	</g>
	<g id="XMLID_573_">
		<rect x="239.982" y="185.7" style="fill:#1D1D1B;" width="15" height="154.75"/>
	</g>
	<g id="XMLID_575_">
		<path style="fill:#1D1D1B;" d="M364.24,100.351c-0.243,0-0.468,0-0.712-0.001h-7.722v-15h7.737c0.216,0,0.435,0.001,0.652,0.001
			c27.336,0,64.192-3.584,86.079-20.477c5.025-3.879,8.289-7.718,10.398-10.949h-128.08v-15H480.32l-1.004,8.392
			C479.057,49.486,471.712,100.351,364.24,100.351z"/>
	</g>
	<g id="XMLID_574_">
		<path style="fill:#1D1D1B;" d="M130.708,100.351c-107.475,0-114.801-50.864-115.061-53.034l-1.004-8.392H162.37v15H34.29
			c2.109,3.231,5.373,7.07,10.398,10.949C66.749,81.9,104.007,85.433,131.404,85.35h7.753v15h-7.737
			C131.183,100.351,130.943,100.351,130.708,100.351z"/>
	</g>
	<path style="fill:#1D1D1B;" d="M322.024,38.925h-64.447c2.638-4.705,7.667-7.896,13.433-7.896v-15
		c-5.88,0-11.372,1.683-16.029,4.587V0h-15v20.233c-4.519-2.666-9.78-4.203-15.395-4.203v15c5.766,0,10.795,3.191,13.433,7.896
		h-65.08l-57.261,130.883l55.02,172.917l14.294-4.549l-53.306-167.532L182.75,53.926h129.465l51.064,116.719l-53.306,167.532
		l14.294,4.549l55.02-172.917L322.024,38.925z"/>
</g>
<g>
</g>
<g>
</g>
<g>
</g>
<g>
</g>
<g>
</g>
<g>
</g>
<g>
</g>
<g>
</g>
<g>
</g>
<g>
</g>
<g>
</g>
<g>
</g>
<g>
</g>
<g>
</g>
<g>
</g>
</svg>
