<?xml version="1.0" encoding="iso-8859-1"?>
<!-- Generator: Adobe Illustrator 19.0.0, SVG Export Plug-In . SVG Version: 6.00 Build 0)  -->
<svg version="1.1" id="Layer_1" xmlns="http://www.w3.org/2000/svg" xmlns:xlink="http://www.w3.org/1999/xlink" x="0px" y="0px"
	 viewBox="0 0 491.416 491.416" style="enable-background:new 0 0 491.416 491.416;" xml:space="preserve">
<g id="XMLID_898_">
	<g id="XMLID_1006_">
		<path style="fill:#CB454E;" d="M110.723,110.503c-1.126-1.69-23.821-55.582-23.821-55.582l-31.76,23.821v31.761H110.723z"/>
	</g>
	<g id="XMLID_1005_">
		<path style="fill:#BE1622;" d="M94.843,213.727L94.843,213.727c-21.927,0-39.701-17.775-39.701-39.701v-63.522h79.403v63.522
			C134.544,195.952,116.769,213.727,94.843,213.727z"/>
	</g>
	<g id="XMLID_1009_">
		<path style="fill:#CB454E;" d="M380.693,110.503c1.126-1.69,23.821-55.582,23.821-55.582l31.761,23.821v31.761H380.693z"/>
	</g>
	<g id="XMLID_1008_">
		<path style="fill:#BE1622;" d="M396.573,213.727L396.573,213.727c21.926,0,39.701-17.775,39.701-39.701v-63.522h-79.403v63.522
			C356.872,195.952,374.647,213.727,396.573,213.727z"/>
	</g>
	<g id="XMLID_827_">
		<path style="fill:#CB454E;" d="M353.531,428.114H137.885c-28.157,0-50.982-22.826-50.982-50.982v-56.841
			c0-28.157,22.825-50.982,50.982-50.982h215.647c28.157,0,50.982,22.825,50.982,50.982v56.841
			C404.513,405.289,381.688,428.114,353.531,428.114z"/>
	</g>
	<g id="XMLID_1004_">
		<path style="fill:#BE1622;" d="M245.708,428.114H134.845c-26.478,0-47.942-21.465-47.942-47.942v-62.921
			c0-26.478,21.464-47.942,47.942-47.942h110.863L245.708,428.114L245.708,428.114z"/>
	</g>
	<g id="XMLID_51_">
		<polygon style="fill:#1D1D1B;" points="491.416,301.07 476.416,301.07 476.416,284.749 412.454,284.749 412.454,269.749 
			491.416,269.749 		"/>
	</g>
	<g id="XMLID_55_">
		<polygon style="fill:#1D1D1B;" points="491.416,443.995 476.416,443.995 476.416,427.674 412.454,427.674 412.454,412.674 
			491.416,412.674 		"/>
	</g>
	<g id="XMLID_53_">
		<polygon style="fill:#1D1D1B;" points="491.416,348.711 476.416,348.711 476.416,332.391 428.334,332.391 428.334,317.391 
			491.416,317.391 		"/>
	</g>
	<g id="XMLID_54_">
		<polygon style="fill:#1D1D1B;" points="491.416,396.353 476.416,396.353 476.416,380.032 428.334,380.032 428.334,365.032 
			491.416,365.032 		"/>
	</g>
	<g id="XMLID_59_">
		<polygon style="fill:#1D1D1B;" points="15,301.07 0,301.07 0,269.749 78.962,269.749 78.962,284.749 15,284.749 		"/>
	</g>
	<g id="XMLID_58_">
		<polygon style="fill:#1D1D1B;" points="15,443.995 0,443.995 0,412.674 78.962,412.674 78.962,427.674 15,427.674 		"/>
	</g>
	<g id="XMLID_57_">
		<polygon style="fill:#1D1D1B;" points="15,348.711 0,348.711 0,317.391 63.082,317.391 63.082,332.391 15,332.391 		"/>
	</g>
	<g id="XMLID_56_">
		<polygon style="fill:#1D1D1B;" points="15,396.353 0,396.353 0,365.032 63.082,365.032 63.082,380.032 15,380.032 		"/>
	</g>
	<g id="XMLID_60_">
		<rect x="166.305" y="206.227" style="fill:#1D1D1B;" width="47.642" height="15"/>
	</g>
	<path style="fill:#1D1D1B;" d="M394.539,102.096c9.803-12.162,10.995-28.244,10.522-38.54
		c13.652,3.733,23.714,16.247,23.714,31.066h15c0-26.027-21.174-47.201-47.201-47.201h-9.206l1.861,9.016
		c0.047,0.226,4.358,22.938-6.368,36.245c-5.419,6.723-14.183,10.196-26.049,10.321h-7.44v71.022
		c0,26.027,21.175,47.202,47.202,47.202s47.201-21.175,47.201-47.202v-71.022H393.76
		C394.019,102.701,394.287,102.408,394.539,102.096z M428.774,174.025c0,17.756-14.445,32.202-32.201,32.202
		c-17.756,0-32.202-14.446-32.202-32.202v-56.022h64.403V174.025z"/>
	<g id="XMLID_157_">
		<rect x="349.372" y="62.862" style="fill:#1D1D1B;" width="15" height="31.761"/>
	</g>
	<path style="fill:#1D1D1B;" d="M134.605,103.003c-11.84-0.126-20.592-3.583-26.013-10.276c-10.86-13.409-6.446-36.079-6.404-36.289
		l1.861-9.016h-9.206c-26.027,0-47.201,21.174-47.201,47.201h15c0-14.82,10.062-27.333,23.714-31.066
		c-0.474,10.296,0.718,26.379,10.521,38.54c0.251,0.312,0.519,0.604,0.778,0.907H47.642v71.022
		c0,26.027,21.174,47.202,47.201,47.202s47.202-21.175,47.202-47.202v-71.022L134.605,103.003L134.605,103.003z M127.044,174.025
		c0,17.756-14.446,32.202-32.202,32.202s-32.201-14.446-32.201-32.202v-56.022h64.403
		C127.044,118.003,127.044,174.025,127.044,174.025z"/>
	<g id="XMLID_158_">
		<rect x="127.044" y="62.862" style="fill:#1D1D1B;" width="15" height="31.761"/>
	</g>
	<g>
		<path style="fill:#1D1D1B;" d="M389.171,271.436l14.902-14.902v-26.927h-15v20.714l-14.062,14.062
			c-5.159-1.666-10.654-2.576-16.359-2.576H308.79v-32.201h-15v32.201h-96.164v-32.201h-15v32.201h-49.861
			c-5.706,0-11.201,0.91-16.359,2.576l-14.062-14.062v-20.714h-15v26.927l14.902,14.902c-13.795,9.656-22.842,25.654-22.842,43.734
			v67.082c0,29.424,23.938,53.362,53.362,53.362h225.887c29.424,0,53.362-23.938,53.362-53.362V315.17
			C412.013,297.091,402.967,281.093,389.171,271.436z M397.013,382.252c0,21.153-17.209,38.362-38.362,38.362H132.765
			c-21.153,0-38.362-17.209-38.362-38.362V315.17c0-21.153,17.209-38.362,38.362-38.362h49.861v40.582h-8.38v15h31.761v-15h-8.381
			v-40.582h96.164v40.582h-8.381v15h31.761v-15h-8.38v-40.582h49.861c21.153,0,38.362,17.209,38.362,38.362L397.013,382.252
			L397.013,382.252z"/>
		<rect x="277.469" y="206.227" style="fill:#1D1D1B;" width="47.642" height="15"/>
	</g>
</g>
<g>
</g>
<g>
</g>
<g>
</g>
<g>
</g>
<g>
</g>
<g>
</g>
<g>
</g>
<g>
</g>
<g>
</g>
<g>
</g>
<g>
</g>
<g>
</g>
<g>
</g>
<g>
</g>
<g>
</g>
</svg>
