<?xml version="1.0" encoding="iso-8859-1"?>
<!-- Generator: Adobe Illustrator 19.0.0, SVG Export Plug-In . SVG Version: 6.00 Build 0)  -->
<svg version="1.1" id="Layer_1" xmlns="http://www.w3.org/2000/svg" xmlns:xlink="http://www.w3.org/1999/xlink" x="0px" y="0px"
	 viewBox="0 0 488.634 488.634" style="enable-background:new 0 0 488.634 488.634;" xml:space="preserve">
<g id="XMLID_1122_">
	<g id="XMLID_1384_">
		<polygon style="fill:#CA9E67;" points="168.209,289.211 76.88,228.324 168.209,228.324 		"/>
	</g>
	<g id="XMLID_1372_">
		<rect x="76.88" y="205.492" style="fill:#936037;" width="91.329" height="22.832"/>
	</g>
	<g id="XMLID_1386_">
		<polygon style="fill:#CA9E67;" points="320.425,289.211 411.754,228.324 320.425,228.324 		"/>
	</g>
	<g id="XMLID_1385_">
		<rect x="320.425" y="205.492" style="fill:#936037;" width="91.329" height="22.832"/>
	</g>
	<g id="XMLID_1295_">
		<path style="fill:#CA9E67;" d="M298.794,479.48H191.932c-13.102,0-23.722-10.621-23.722-23.722V205.492h152.216V457.85
			C320.425,469.796,310.741,479.48,298.794,479.48z"/>
	</g>
	<g id="XMLID_1343_">
		<rect x="168.209" y="304.432" style="fill:#936037;" width="45.665" height="45.665"/>
	</g>
	<g id="XMLID_1374_">
		<polygon style="fill:#936037;" points="213.874,474.87 170.701,473.82 168.209,426.205 213.874,426.205 		"/>
	</g>
	<g id="XMLID_1375_">
		<rect x="274.76" y="426.205" style="fill:#936037;" width="45.665" height="48.665"/>
	</g>
	<g id="XMLID_1345_">
		<rect x="274.76" y="304.432" style="fill:#936037;" width="45.665" height="45.665"/>
	</g>
	<g id="XMLID_648_">
		<polygon style="fill:#1D1D1B;" points="339.947,287.744 331.345,275.455 404.254,224.419 404.254,212.992 335.646,212.992 
			335.646,197.992 419.254,197.992 419.254,232.23 		"/>
	</g>
	<g id="XMLID_649_">
		<polygon style="fill:#1D1D1B;" points="148.687,287.744 69.38,232.23 69.38,197.992 152.988,197.992 152.988,212.992 
			84.38,212.992 84.38,224.419 157.289,275.455 		"/>
	</g>
	<g>
		<path style="fill:#1D1D1B;" d="M162.363,199.646v256.069c0,18.151,14.768,32.919,32.919,32.919h101.377
			c18.152,0,32.92-14.768,32.92-32.919V199.646H162.363z M296.659,473.634H195.282c-9.881,0-17.919-8.038-17.919-17.919V311.932
			h36.51l1.654-13.346h-38.164v-83.939h137.216v83.939h-38.165v15h5.957v13.568h15.222v-13.568h16.987v142.13
			C314.579,465.596,306.54,473.634,296.659,473.634z"/>
		<rect x="192.695" y="313.807" style="fill:#1D1D1B;" width="15.222" height="15"/>
	</g>
	<g id="XMLID_654_">
		<rect x="335.646" y="220.824" style="fill:#1D1D1B;" width="30.443" height="15"/>
	</g>
	<g id="XMLID_655_">
		<rect x="122.545" y="220.824" style="fill:#1D1D1B;" width="30.443" height="15"/>
	</g>
	<g id="XMLID_656_">
		<polygon style="fill:#1D1D1B;" points="221.374,449.037 206.374,449.037 206.374,433.705 168.21,433.705 168.21,418.705 
			221.374,418.705 		"/>
	</g>
	<g id="XMLID_657_">
		<rect x="183.43" y="441.537" style="fill:#1D1D1B;" width="15.222" height="15"/>
	</g>
	<g id="XMLID_659_">
		<polygon style="fill:#1D1D1B;" points="282.26,449.037 267.26,449.037 267.26,418.705 320.425,418.705 320.425,433.705 
			282.26,433.705 		"/>
	</g>
	<g id="XMLID_658_">
		<rect x="289.982" y="441.537" style="fill:#1D1D1B;" width="15.222" height="15"/>
	</g>
	<g id="XMLID_662_">
		<rect x="198.652" y="258.878" style="fill:#1D1D1B;" width="91.33" height="15"/>
	</g>
	<g id="XMLID_663_">
		<rect x="213.874" y="228.434" style="fill:#1D1D1B;" width="60.887" height="15"/>
	</g>
	<g id="XMLID_664_">
		<rect x="236.817" y="296.821" style="fill:#1D1D1B;" width="15" height="98.94"/>
	</g>
	<g>
		<polygon style="fill:#1D1D1B;" points="213.763,41.162 242.01,12.915 231.403,2.308 213.763,19.947 213.763,0 198.763,0 
			198.763,35.169 188.734,25.14 178.127,35.747 198.763,56.384 198.763,64.639 154.395,96.33 122.433,72.358 122.433,63.994 
			158.292,28.137 147.684,17.529 122.433,42.779 122.433,0 107.433,0 107.433,27.558 82.183,2.308 71.576,12.915 107.433,48.772 
			107.433,79.858 168.32,125.523 168.32,149.331 150.68,131.691 140.074,142.299 168.32,170.545 168.32,190.27 183.32,190.27 
			183.32,155.324 219.177,119.466 208.57,108.858 183.32,134.109 183.32,118.023 166.984,105.771 213.763,72.357 		"/>
		<polygon style="fill:#1D1D1B;" points="381.201,79.858 381.201,48.772 417.058,12.915 406.451,2.308 381.201,27.558 381.201,0 
			366.201,0 366.201,42.779 340.95,17.529 330.342,28.137 366.201,63.994 366.201,72.358 334.239,96.33 289.871,64.639 
			289.871,56.384 310.507,35.747 299.9,25.14 289.871,35.169 289.871,0 274.871,0 274.871,19.947 257.232,2.309 246.625,12.915 
			274.871,41.161 274.871,72.357 321.65,105.771 305.314,118.023 305.314,134.109 280.064,108.858 269.457,119.466 305.314,155.324 
			305.314,190.27 320.314,190.27 320.314,170.545 348.56,142.299 337.954,131.691 320.314,149.331 320.314,125.523 		"/>
	</g>
</g>
<g>
</g>
<g>
</g>
<g>
</g>
<g>
</g>
<g>
</g>
<g>
</g>
<g>
</g>
<g>
</g>
<g>
</g>
<g>
</g>
<g>
</g>
<g>
</g>
<g>
</g>
<g>
</g>
<g>
</g>
</svg>
