<?xml version="1.0" encoding="iso-8859-1"?>
<!-- Generator: Adobe Illustrator 19.0.0, SVG Export Plug-In . SVG Version: 6.00 Build 0)  -->
<svg version="1.1" id="Layer_1" xmlns="http://www.w3.org/2000/svg" xmlns:xlink="http://www.w3.org/1999/xlink" x="0px" y="0px"
	 viewBox="0 0 484.264 484.264" style="enable-background:new 0 0 484.264 484.264;" xml:space="preserve">
<g id="XMLID_1212_">
	<g id="XMLID_1204_">
		<path style="fill:#FFFFFF;" d="M196.35,161.159H14.5c-3.866,0-7-3.134-7-7V121.1h181.85c3.866,0,7,3.134,7,7V161.159z"/>
	</g>
	<g id="XMLID_1207_">
		<path style="fill:#EDEDED;" d="M196.35,161.159h-57.227c-22.124,0-40.059-17.935-40.059-40.059l0,0h57.227
			C178.415,121.1,196.35,139.035,196.35,161.159L196.35,161.159z"/>
	</g>
	<g id="XMLID_1214_">
		<path style="fill:#FFFFFF;" d="M287.914,161.159h181.85c3.866,0,7-3.134,7-7V121.1h-181.85c-3.866,0-7,3.134-7,7V161.159z"/>
	</g>
	<g id="XMLID_1213_">
		<path style="fill:#EDEDED;" d="M287.914,161.159h57.227c22.124,0,40.059-17.935,40.059-40.059l0,0h-57.227
			C305.849,121.1,287.914,139.035,287.914,161.159L287.914,161.159z"/>
	</g>
	<g id="XMLID_1219_">
		<path style="fill:#FFFFFF;" d="M196.35,178.327H14.5c-3.866,0-7,3.134-7,7v33.059h181.85c3.866,0,7-3.134,7-7V178.327z"/>
	</g>
	<g id="XMLID_1218_">
		<path style="fill:#EDEDED;" d="M196.35,178.327h-57.227c-22.124,0-40.059,17.935-40.059,40.059l0,0h57.227
			C178.415,218.387,196.35,200.451,196.35,178.327L196.35,178.327z"/>
	</g>
	<g id="XMLID_1216_">
		<path style="fill:#FFFFFF;" d="M287.914,178.327h181.85c3.866,0,7,3.134,7,7v33.059h-181.85c-3.866,0-7-3.134-7-7V178.327z"/>
	</g>
	<g id="XMLID_1215_">
		<path style="fill:#EDEDED;" d="M287.914,178.327h57.227c22.124,0,40.059,17.935,40.059,40.059l0,0h-57.227
			C305.849,218.387,287.914,200.451,287.914,178.327L287.914,178.327z"/>
	</g>
	<g id="XMLID_1196_">
		<path style="fill:#36A9E1;" d="M259.514,224.109H224.75c-6.203,0-11.232-5.029-11.232-11.232V149.5
			c0-6.203,5.029-11.232,11.232-11.232h34.764c6.203,0,11.232,5.029,11.232,11.232v63.378
			C270.746,219.081,265.717,224.109,259.514,224.109z"/>
	</g>
	<g id="XMLID_1198_">
		<rect x="213.518" y="161.159" style="fill:#95C11F;" width="57.227" height="40.059"/>
	</g>
	<g id="XMLID_1463_">
		<rect x="224.964" y="92.486" style="fill:#95C11F;" width="34.336" height="28.614"/>
	</g>
	<g id="XMLID_1449_">
		<path style="fill:#95C11F;" d="M256.3,430.127h-28.336c-1.657,0-3-1.343-3-3V224.109H259.3v203.018
			C259.3,428.784,257.957,430.127,256.3,430.127z"/>
	</g>
	<g id="XMLID_1197_">
		<rect x="224.964" y="247" style="fill:#36A9E1;" width="34.336" height="22.891"/>
	</g>
	<g id="XMLID_1199_">
		<rect x="224.964" y="292.782" style="fill:#36A9E1;" width="34.336" height="22.891"/>
	</g>
	<g id="XMLID_1201_">
		<rect x="224.964" y="338.564" style="fill:#36A9E1;" width="34.336" height="22.891"/>
	</g>
	<g id="XMLID_1203_">
		<rect x="224.964" y="384.346" style="fill:#36A9E1;" width="34.336" height="22.891"/>
	</g>
	<g id="XMLID_585_">
		<path style="fill:#1D1D1B;" d="M254.056,231.609h-23.848c-13.338,0-24.19-10.852-24.19-24.191v-52.461
			c0-13.338,10.852-24.189,24.19-24.189h23.848c13.338,0,24.19,10.852,24.19,24.189v52.461
			C278.246,220.758,267.394,231.609,254.056,231.609z M230.208,145.768c-5.067,0-9.19,4.122-9.19,9.189v52.461
			c0,5.067,4.123,9.191,9.19,9.191h23.848c5.067,0,9.19-4.123,9.19-9.191v-52.461c0-5.067-4.123-9.189-9.19-9.189H230.208z"/>
	</g>
	<g id="XMLID_614_">
		<path style="fill:#1D1D1B;" d="M241.889,437.627c-13.602,0-24.668-11.066-24.668-24.668l0.244-177.415l15,0.021L232.22,412.97
			c0,5.32,4.337,9.657,9.668,9.657s9.668-4.337,9.668-9.668l0.244-177.415l15,0.021l-0.244,177.404
			C266.557,426.56,255.491,437.627,241.889,437.627z"/>
	</g>
	<g id="XMLID_638_">
		<rect x="236.409" y="239.5" style="fill:#1D1D1B;" width="11.445" height="15"/>
	</g>
	<g id="XMLID_615_">
		<rect x="236.409" y="262.391" style="fill:#1D1D1B;" width="11.445" height="15"/>
	</g>
	<g id="XMLID_616_">
		<rect x="236.409" y="285.282" style="fill:#1D1D1B;" width="11.445" height="15"/>
	</g>
	<g id="XMLID_617_">
		<rect x="236.409" y="308.173" style="fill:#1D1D1B;" width="11.445" height="15"/>
	</g>
	<g id="XMLID_618_">
		<rect x="236.409" y="331.063" style="fill:#1D1D1B;" width="11.445" height="15"/>
	</g>
	<g id="XMLID_619_">
		<rect x="236.409" y="353.955" style="fill:#1D1D1B;" width="11.445" height="15"/>
	</g>
	<g id="XMLID_639_">
		<rect x="236.409" y="376.846" style="fill:#1D1D1B;" width="11.445" height="15"/>
	</g>
	<g id="XMLID_644_">
		<rect x="236.409" y="399.736" style="fill:#1D1D1B;" width="11.445" height="15"/>
	</g>
	<path style="fill:#1D1D1B;" d="M278.246,84.986H266.8h-3.555h-42.228h-3.554h-11.446v17.168h11.446V128.6H266.8v-26.446h11.445
		V84.986H278.246z M251.8,113.601h-19.336V99.986H251.8V113.601z"/>
	<g id="XMLID_645_">
		<path style="fill:#1D1D1B;" d="M436.705,168.659H280.414v-7.5c0-26.224,21.335-47.559,47.559-47.559h156.291v7.5
			C484.264,147.324,462.929,168.659,436.705,168.659z M296.285,153.659h140.419c15.372,0,28.291-10.709,31.688-25.059H327.973
			C312.6,128.601,299.682,139.31,296.285,153.659z"/>
	</g>
	<g id="XMLID_701_">
		<path style="fill:#1D1D1B;" d="M484.264,225.887H327.973c-26.224,0-47.559-21.335-47.559-47.56v-7.5h156.291
			c26.224,0,47.559,21.335,47.559,47.56V225.887z M296.285,185.827c3.396,14.35,16.315,25.06,31.688,25.06h140.419
			c-3.396-14.35-16.315-25.06-31.688-25.06H296.285z"/>
	</g>
	<g id="XMLID_705_">
		<path style="fill:#1D1D1B;" d="M203.85,168.659H47.559C21.335,168.659,0,147.324,0,121.101v-7.5h156.291
			c26.224,0,47.559,21.335,47.559,47.559V168.659z M15.872,128.601c3.396,14.35,16.315,25.059,31.687,25.059h140.419
			c-3.396-14.35-16.315-25.059-31.688-25.059H15.872z"/>
	</g>
	<g id="XMLID_704_">
		<path style="fill:#1D1D1B;" d="M156.291,225.887H0v-7.5c0-26.225,21.335-47.56,47.559-47.56H203.85v7.5
			C203.85,204.552,182.515,225.887,156.291,225.887z M15.872,210.887h140.419c15.372,0,28.292-10.71,31.688-25.06H47.559
			C32.187,185.827,19.267,196.537,15.872,210.887z"/>
	</g>
	<g id="XMLID_706_">
		<rect x="224.964" y="153.659" style="fill:#1D1D1B;" width="34.336" height="15"/>
	</g>
	<g id="XMLID_707_">
		<rect x="224.964" y="193.719" style="fill:#1D1D1B;" width="34.336" height="15"/>
	</g>
	<g id="XMLID_708_">
		<polygon style="fill:#1D1D1B;" points="180.959,321.396 165.959,321.396 165.959,261.393 202.101,219.229 213.49,228.99 
			180.959,266.942 		"/>
	</g>
	<g id="XMLID_709_">
		<polygon style="fill:#1D1D1B;" points="190.494,120.063 165.983,89.425 165.596,46.773 180.595,46.637 180.935,84.103 
			202.206,110.691 		"/>
	</g>
	<g id="XMLID_712_">
		<polygon style="fill:#1D1D1B;" points="317.94,321.396 302.94,321.396 302.94,266.942 270.41,228.99 281.798,219.229 
			317.94,261.393 		"/>
	</g>
	<g id="XMLID_711_">
		<polygon style="fill:#1D1D1B;" points="293.406,120.063 281.693,110.691 302.964,84.103 303.305,46.637 318.304,46.773 
			317.917,89.425 		"/>
	</g>
</g>
<g>
</g>
<g>
</g>
<g>
</g>
<g>
</g>
<g>
</g>
<g>
</g>
<g>
</g>
<g>
</g>
<g>
</g>
<g>
</g>
<g>
</g>
<g>
</g>
<g>
</g>
<g>
</g>
<g>
</g>
</svg>
