<?xml version="1.0" encoding="iso-8859-1"?>
<!-- Generator: Adobe Illustrator 19.0.0, SVG Export Plug-In . SVG Version: 6.00 Build 0)  -->
<svg version="1.1" id="Layer_1" xmlns="http://www.w3.org/2000/svg" xmlns:xlink="http://www.w3.org/1999/xlink" x="0px" y="0px"
	 viewBox="0 0 488.383 488.383" style="enable-background:new 0 0 488.383 488.383;" xml:space="preserve">
<g id="XMLID_1335_">
	<g id="XMLID_1172_">
		<circle style="fill:#FDE0AD;" cx="61.065" cy="95.347" r="61.065"/>
	</g>
	<g id="XMLID_1170_">
		<circle style="fill:#FBD185;" cx="61.065" cy="95.347" r="53.431"/>
	</g>
	<g id="XMLID_1166_">
		<circle style="fill:#FAC15C;" cx="61.065" cy="95.347" r="38.165"/>
	</g>
	<g id="XMLID_1164_">
		<circle style="fill:#F9B233;" cx="61.065" cy="95.347" r="15.266"/>
	</g>
	<g id="XMLID_1158_">
		<path style="fill:#99D9F4;" d="M404.553,171.677h-34.834c-22.918,0-41.497-18.579-41.497-41.497V95.347h34.834
			c22.918,0,41.497,18.579,41.497,41.497L404.553,171.677L404.553,171.677z"/>
	</g>
	<g id="XMLID_1165_">
		<path style="fill:#99D9F4;" d="M404.553,171.677h34.834c22.918,0,41.497-18.579,41.497-41.497V95.347H446.05
			c-22.918,0-41.497,18.579-41.497,41.497L404.553,171.677L404.553,171.677z"/>
	</g>
	<g id="XMLID_1162_">
		<polygon style="fill:#66C5EE;" points="259.524,400.669 259.524,469.367 228.992,454.101 221.359,438.835 221.359,415.936 		"/>
	</g>
	<g id="XMLID_1160_">
		<polygon style="fill:#66C5EE;" points="221.359,194.577 221.359,171.677 251.891,141.145 259.524,141.145 259.524,194.577 		"/>
	</g>
	<g id="XMLID_1267_">
		<path style="fill:#66C5EE;" d="M190.827,423.569H30.532L7.633,393.036h114.496L0,335.622c0-77.897,63.148-141.045,141.045-141.045
			h49.782V423.569z"/>
	</g>
	<g id="XMLID_1268_">
		<rect x="61.064" y="263.274" style="fill:#99D9F4;" width="122.129" height="30.532"/>
	</g>
	<g id="XMLID_1266_">
		<path style="fill:#3F8BAB;" d="M190.827,415.936L190.827,415.936V194.577h198.46v22.9
			C389.287,327.082,300.433,415.936,190.827,415.936z"/>
	</g>
	<polygon style="fill:#1D1D1B;" points="114.496,263.407 61.065,263.407 61.065,273.33 61.065,278.407 61.065,293.674 
		83.964,293.674 83.964,278.407 114.496,278.407 	"/>
	<g id="XMLID_833_">
		<path style="fill:#1D1D1B;" d="M61.065,118.113c-12.553,0-22.766-10.213-22.766-22.767c0-12.553,10.213-22.766,22.766-22.766
			s22.766,10.213,22.766,22.766C83.831,107.9,73.618,118.113,61.065,118.113z M61.065,87.581c-4.282,0-7.766,3.483-7.766,7.766
			c0,4.282,3.484,7.767,7.766,7.767s7.766-3.484,7.766-7.767S65.347,87.581,61.065,87.581z"/>
	</g>
	<path style="fill:#1D1D1B;" d="M160.161,187.077V64.814c0-29.389-23.91-53.298-53.298-53.298
		c-29.389,0-53.298,23.909-53.298,53.298h15c0-21.117,17.181-38.298,38.298-38.298c21.118,0,38.298,17.181,38.298,38.298v122.263
		h-15.405c-71.475,0-129.623,58.148-129.623,129.623v19.771l91.997,49.065H0.133v7.5c0,20.971,17.061,38.032,38.032,38.032h129.762
		c63.17,0,122.558-24.6,167.225-69.267c44.667-44.668,69.267-104.057,69.267-167.226v-7.5H160.161V187.077z M324.546,351.195
		c-41.834,41.835-97.456,64.874-156.619,64.874H38.165c-10.075,0-18.661-6.503-21.779-15.532h135.742L15.133,327.471V316.7
		c0-63.203,51.42-114.623,114.623-114.623h259.539C387.434,258.428,364.608,311.133,324.546,351.195z"/>
	<g id="XMLID_838_">
		<rect x="7.766" y="354.871" style="fill:#1D1D1B;" width="15" height="22.899"/>
	</g>
	<g id="XMLID_839_">
		<rect x="30.665" y="362.505" style="fill:#1D1D1B;" width="15" height="15.266"/>
	</g>
	<g id="XMLID_841_">
		<rect x="183.326" y="209.842" style="fill:#1D1D1B;" width="15" height="190.827"/>
	</g>
	<path style="fill:#1D1D1B;" d="M444.221,89.245c-16.63,0-31.267,8.659-39.668,21.697c-8.401-13.038-23.038-21.697-39.668-21.697
		h-44.163v44.163c0,26.009,21.159,47.168,47.168,47.168h29.163h15h29.162c26.009,0,47.168-21.159,47.168-47.168V89.245H444.221z
		 M397.053,165.576H367.89c-17.737,0-32.168-14.431-32.168-32.168v-29.163h29.163c17.737,0,32.168,14.431,32.168,32.168V165.576z
		 M473.383,133.408c0,17.737-14.431,32.168-32.168,32.168h-29.162v-29.163c0-17.737,14.431-32.168,32.168-32.168h29.162V133.408z"/>
	<g id="XMLID_842_">
		<path style="fill:#1D1D1B;" d="M312.823,339.471h-7.5c-37.807,0-68.564-30.758-68.564-68.564h15
			c0,26.99,20.067,49.382,46.064,53.041v-53.041h15V339.471z"/>
	</g>
	<g id="XMLID_844_">
		<path style="fill:#1D1D1B;" d="M267.025,179.31h-15v-29.737c-13.296,3.355-23.165,15.415-23.165,29.737h-15
			c0-25.18,20.485-45.665,45.665-45.665h7.5V179.31z"/>
	</g>
	<g id="XMLID_845_">
		<path style="fill:#1D1D1B;" d="M267.025,476.867h-7.5c-25.18,0-45.665-20.485-45.665-45.665h15
			c0,14.322,9.87,26.383,23.165,29.737v-29.737h15V476.867z"/>
	</g>
</g>
<g>
</g>
<g>
</g>
<g>
</g>
<g>
</g>
<g>
</g>
<g>
</g>
<g>
</g>
<g>
</g>
<g>
</g>
<g>
</g>
<g>
</g>
<g>
</g>
<g>
</g>
<g>
</g>
<g>
</g>
</svg>
