<?xml version="1.0" encoding="iso-8859-1"?>
<!-- Generator: Adobe Illustrator 19.0.0, SVG Export Plug-In . SVG Version: 6.00 Build 0)  -->
<svg version="1.1" id="Layer_1" xmlns="http://www.w3.org/2000/svg" xmlns:xlink="http://www.w3.org/1999/xlink" x="0px" y="0px"
	 viewBox="0 0 490.192 490.192" style="enable-background:new 0 0 490.192 490.192;" xml:space="preserve">
<g id="XMLID_1205_">
	<g id="XMLID_1056_">
		<polygon style="fill:#A8617F;" points="110.469,109.949 20.371,109.949 7.5,84.207 26.807,58.464 104.034,58.464 		"/>
	</g>
	<g id="XMLID_1058_">
		<rect x="46.113" y="90.642" style="fill:#A8617F;" width="64.356" height="19.307"/>
	</g>
	<g id="XMLID_450_">
		<path style="fill:#A8617F;" d="M470.862,303.016H262.508c-30.654,0-55.505-24.85-55.505-55.505v-24.138
			c0-30.654,24.85-55.505,55.505-55.505h111.82h64.356l-12.871,51.485l-25.742,32.178L470.862,303.016z"/>
	</g>
	<g id="XMLID_1065_">
		<path style="fill:#F5A5C7;" d="M432.248,206.483c-21.326,0-38.614-17.288-38.614-38.614h45.049L432.248,206.483z"/>
	</g>
	<g id="XMLID_1057_">
		<path style="fill:#F5A5C7;" d="M252.052,303.016c-21.326,0-38.613-17.288-38.613-38.613c0-21.326,17.288-38.614,38.613-38.614
			h135.147l102.969,77.227H252.052z"/>
	</g>
	<g id="XMLID_1200_">
		<path style="fill:#F5A5C7;" d="M181.261,238.66V97.078l-2.47,0.618c1.57-4.204,2.47-8.736,2.47-13.489
			c0-21.326-17.288-38.613-38.613-38.613c-21.326,0-38.613,17.288-38.613,38.613s17.288,38.614,38.613,38.614
			c4.52,0,8.84-0.817,12.871-2.244v137.392l25.742,12.871h25.742v-32.178h-25.742V238.66z"/>
	</g>
	<polygon style="fill:#1D1D1B;" points="336.779,382.095 336.779,315.888 321.779,315.888 321.779,365.521 304.602,363.803 
		304.602,315.888 289.602,315.888 289.602,362.303 257.423,359.085 257.423,393.114 272.423,393.114 272.423,375.659 
		289.602,377.377 289.602,437.1 258.487,437.1 258.487,452.1 316.408,452.1 316.408,437.1 304.602,437.1 304.602,378.877 	"/>
	<g id="XMLID_491_">
		<rect x="309.973" y="269.773" style="fill:#1D1D1B;" width="148.018" height="15"/>
	</g>
	<g id="XMLID_493_">
		<rect x="264.923" y="218.289" style="fill:#1D1D1B;" width="122.276" height="15"/>
	</g>
	<g id="XMLID_487_">
		<path style="fill:#1D1D1B;" d="M419.377,207.547c-14.781,0-26.807-12.025-26.807-26.807h15c0,6.51,5.297,11.807,11.807,11.807
			V207.547z"/>
	</g>
	<path style="fill:#1D1D1B;" d="M259.016,294.802c-24.544,0-44.513-19.969-44.513-44.513V219.88
		c0-24.544,19.969-44.512,44.513-44.512h18.778h25.743h127.395c-1.752,25.981-12.603,50.039-31.042,68.663H290.666v15h135.147v-15
		h-5.928c17.058-21.611,26.299-48.093,26.299-76.163v-7.5H303.537h-25.743h-18.778c-32.815,0-59.513,26.697-59.513,59.512v12.344
		c0,2.962-2.409,5.372-5.371,5.372s-5.371-2.41-5.371-5.372V84.207c0-25.428-20.687-46.114-46.113-46.114
		c-12.375,0-23.618,4.909-31.909,12.871H39.678C17.8,50.964,0,68.764,0,90.643c0,21.878,17.8,39.678,39.678,39.678v-0.225
		c1.053,0.144,2.126,0.225,3.218,0.225v-15c-4.736,0-8.589-3.853-8.589-8.589s3.852-8.589,8.589-8.589h55.796
		c0.467,1.469,1.007,2.905,1.613,4.307H46.113v15h64.625c8.291,7.962,19.535,12.871,31.91,12.871h5.371v114.776
		c0,18.33,14.912,33.242,33.242,33.242h25.284c10.04,18.709,29.785,31.463,52.447,31.463l231.153,0.715l0.047-15L259.016,294.802z
		 M19.401,104.685C16.63,100.695,15,95.857,15,90.643c0-13.607,11.07-24.679,24.678-24.679h60.627
		c-2.288,5.29-3.604,11.091-3.743,17.179H42.896C30.579,83.143,20.443,92.633,19.401,104.685z M181.261,263.339
		c-10.059,0-18.242-8.184-18.242-18.242V115.32h-20.371c-17.156,0-31.113-13.957-31.113-31.113s13.957-31.114,31.113-31.114
		s31.113,13.958,31.113,31.114v148.018c0,11.233,9.139,20.372,20.371,20.372c1.876,0,3.684-0.275,5.411-0.752
		c0.102,3.938,0.585,7.781,1.419,11.494H181.261z"/>
	<g id="XMLID_552_">
		<rect x="136.212" y="70.271" style="fill:#FFFFFF;" width="12.871" height="15"/>
	</g>
</g>
<g>
</g>
<g>
</g>
<g>
</g>
<g>
</g>
<g>
</g>
<g>
</g>
<g>
</g>
<g>
</g>
<g>
</g>
<g>
</g>
<g>
</g>
<g>
</g>
<g>
</g>
<g>
</g>
<g>
</g>
</svg>
