<?xml version="1.0" encoding="iso-8859-1"?>
<!-- Generator: Adobe Illustrator 19.0.0, SVG Export Plug-In . SVG Version: 6.00 Build 0)  -->
<svg version="1.1" id="Layer_1" xmlns="http://www.w3.org/2000/svg" xmlns:xlink="http://www.w3.org/1999/xlink" x="0px" y="0px"
	 viewBox="0 0 485.084 485.084" style="enable-background:new 0 0 485.084 485.084;" xml:space="preserve">
<g id="XMLID_1291_">
	<g id="XMLID_1312_">
		<rect x="186.58" y="349.495" style="fill:#CA9E67;" width="29.847" height="119.387"/>
	</g>
	<g id="XMLID_1316_">
		<rect x="425.645" y="349.495" style="fill:#CA9E67;" width="29.847" height="119.387"/>
	</g>
	<g id="XMLID_1318_">
		<path style="fill:#F9B233;" d="M477.584,349.495V311.36c0-44.874-36.378-81.252-81.252-81.252H171.656v-52.232v-37.308V88.337H7.5
			v30.324l126.848,45.757v65.69v44.77v1.501c0,40.381,32.735,73.116,73.115,73.116h1.501v119.387h29.847V349.495H448.03v119.387
			h29.847V349.495H477.584z"/>
	</g>
	<g id="XMLID_1313_">
		<polygon style="fill:#CA9E67;" points="208.965,230.108 298.505,282.34 388.045,230.108 		"/>
	</g>
	<g id="XMLID_469_">
		<rect x="126.887" y="103.222" style="fill:#1D1D1B;" width="14.923" height="15"/>
	</g>
	<path style="fill:#1D1D1B;" d="M460.571,247.127c-3.542-3.543-7.358-6.707-11.38-9.519h35.856v-15h-83.665h-0.006H186.579
		c-4.093,0-7.423-3.33-7.423-7.424V80.692h-12.913l55.758-61.954L210.852,8.702l-64.79,71.989h-9.982l41.22-47.109l-11.289-9.877
		l-49.863,56.986H0V121.8l126.848,46.396v105.09c0,22.419,8.397,43.412,23.645,59.113c13.662,14.067,31.541,22.529,50.972,24.263
		v104.72h-7.385V356.956h-15v119.426h22.385h0.038h44.809V356.995h149.195v-15H231.311v119.387h-14.847V341.995h-7.5
		c-37.636,0-67.117-30.181-67.117-68.709V157.71L15,111.315V95.692h149.156v119.493c0,12.364,10.059,22.424,22.423,22.424h214.796
		h0.006c18.353,0,35.605,7.147,48.582,20.125c12.977,12.978,20.122,30.232,20.121,48.583l-0.011,155.065h-14.836V341.995h-21.141
		c-12.114,0-22.446-8.841-23.523-20.127c-0.61-6.407,1.414-12.531,5.7-17.246c4.229-4.652,10.258-7.32,16.54-7.32v-15
		c-10.498,0-20.572,4.457-27.639,12.229c-7.061,7.767-10.536,18.249-9.533,28.761c1.803,18.899,18.694,33.703,38.455,33.703h6.141
		v104.387h-7.385v-96.964h-15v111.964h22.385h0.038h44.796l0.013-170.063C485.086,283.959,476.38,262.938,460.571,247.127z"/>
	<g id="XMLID_472_">
		<rect x="231.311" y="245.031" style="fill:#1D1D1B;" width="15" height="14.924"/>
	</g>
	<g id="XMLID_473_">
		<rect x="261.158" y="245.031" style="fill:#1D1D1B;" width="15" height="29.847"/>
	</g>
	<g id="XMLID_501_">
		<rect x="291.004" y="245.031" style="fill:#1D1D1B;" width="15" height="44.771"/>
	</g>
	<g id="XMLID_511_">
		<rect x="320.851" y="245.031" style="fill:#1D1D1B;" width="15" height="29.847"/>
	</g>
	<g id="XMLID_512_">
		<rect x="350.698" y="245.031" style="fill:#1D1D1B;" width="15" height="14.924"/>
	</g>
</g>
<g>
</g>
<g>
</g>
<g>
</g>
<g>
</g>
<g>
</g>
<g>
</g>
<g>
</g>
<g>
</g>
<g>
</g>
<g>
</g>
<g>
</g>
<g>
</g>
<g>
</g>
<g>
</g>
<g>
</g>
</svg>
