<?xml version="1.0" encoding="iso-8859-1"?>
<!-- Generator: Adobe Illustrator 19.0.0, SVG Export Plug-In . SVG Version: 6.00 Build 0)  -->
<svg version="1.1" id="Layer_1" xmlns="http://www.w3.org/2000/svg" xmlns:xlink="http://www.w3.org/1999/xlink" x="0px" y="0px"
	 viewBox="0 0 489.534 489.534" style="enable-background:new 0 0 489.534 489.534;" xml:space="preserve">
<g id="XMLID_848_">
	<g id="XMLID_1048_">
		<rect x="250.309" y="16.004" style="fill:#CBBBA0;" width="38.199" height="145.157"/>
	</g>
	<g id="XMLID_1046_">
		<rect x="280.868" y="16.004" style="fill:#B17F4A;" width="22.92" height="145.157"/>
	</g>
	<g id="XMLID_1045_">
		<path style="fill:#CBBBA0;" d="M233.226,260.479h-51.675v-77.703c0-24.596,19.939-44.534,44.534-44.534h77.703v51.675
			C303.788,228.887,272.196,260.479,233.226,260.479z"/>
	</g>
	<g id="XMLID_830_">
		<circle style="fill:#FFFFFF;" cx="257.949" cy="176.441" r="15.28"/>
	</g>
	<g id="XMLID_1044_">
		<rect x="181.551" y="229.919" style="fill:#B17F4A;" width="38.199" height="30.559"/>
	</g>
	<g id="XMLID_1043_">
		<rect x="341.987" y="420.915" style="fill:#B17F4A;" width="38.199" height="45.839"/>
	</g>
	<g id="XMLID_1049_">
		<path style="fill:#CBBBA0;" d="M309.489,245.199h-51.54v92.286c-25.907,3.716-45.839,25.936-45.839,52.871
			c0,19.489,10.459,36.492,26.037,45.839H105.152v30.559h30.559v15.28h122.237h15.28h68.759V277.697
			C341.987,259.749,327.437,245.199,309.489,245.199z"/>
	</g>
	<g id="XMLID_847_">
		<path style="fill:#B17F4A;" d="M341.987,482.034h-22.919V245.199l0,0c12.658,0,22.919,10.261,22.919,22.919V482.034z"/>
	</g>
	<g id="XMLID_1039_">
		<rect x="105.152" y="436.195" style="fill:#B17F4A;" width="152.797" height="30.559"/>
	</g>
	<g id="XMLID_164_">
		<path style="fill:#1D1D1B;" d="M235.029,267.979H174.05V171.8c0-24.56,23.629-41.059,45.699-41.059h68.759v15H219.75
			c-18.363,0-30.699,13.474-30.699,26.059v81.179h45.979c16.611,0,32.085-6.796,43.571-19.137
			c11.406-12.254,17.688-28.513,17.688-45.78V18.373c-4.566,2.301-9.303,6.592-9.448,14.503v85.502h-15l0.001-85.684
			c0.352-22.489,20.518-30.625,31.132-31.785L311.288,0v188.062c0,21.072-7.709,40.96-21.707,56
			C275.225,259.485,255.852,267.979,235.029,267.979z"/>
	</g>
	<g id="XMLID_271_">
		<rect x="181.551" y="222.419" style="fill:#1D1D1B;" width="38.199" height="15"/>
	</g>
	<g id="XMLID_272_">
		<rect x="189.33" y="252.839" style="fill:#1D1D1B;" width="15" height="22.919"/>
	</g>
	<g id="XMLID_165_">
		<path style="fill:#1D1D1B;" d="M256.281,118.378h-15V32.812c0.094-12.948,5.935-22.933,16.446-28.17
			c7.478-3.726,14.753-3.775,15.556-3.777l-0.055,7.5l-0.001,7.5c-2.809,0.022-16.829,0.941-16.946,17.002V118.378z"/>
	</g>
	<g id="XMLID_163_">
		<path style="fill:#1D1D1B;" d="M254.893,193.108c-10.875,0-19.724-8.848-19.724-19.724s8.848-19.724,19.724-19.724
			s19.724,8.848,19.724,19.724C274.617,184.26,265.769,193.108,254.893,193.108z M254.893,168.661c-2.604,0-4.724,2.119-4.724,4.724
			c0,2.604,2.119,4.724,4.724,4.724c2.605,0,4.724-2.119,4.724-4.724S257.498,168.661,254.893,168.661z"/>
	</g>
	<g id="XMLID_168_">
		<path style="fill:#1D1D1B;" d="M361.178,475.346h-3.911v-15h3.911c8.803,0,15.965-7.162,15.965-15.965
			s-7.162-15.965-15.965-15.965h-3.911v-15h3.911c17.074,0,30.965,13.891,30.965,30.965
			C392.143,461.455,378.252,475.346,361.178,475.346z"/>
	</g>
	<g id="XMLID_166_">
		<path style="fill:#1D1D1B;" d="M349.487,283.399h-15c0-16.928-13.772-30.699-30.699-30.699v-15
			C328.987,237.699,349.487,258.2,349.487,283.399z"/>
	</g>
	<g id="XMLID_140_">
		<path style="fill:#1D1D1B;" d="M349.487,489.534H128.461l-0.512-15.106l0.005-0.22c0.417-16.818,14.004-22.732,23.093-22.594
			h107.041v-0.738c-30.099-3.707-53.479-29.434-53.479-60.52c0-33.624,27.355-60.979,60.979-60.979s60.979,27.355,60.979,60.979h-15
			c0-25.353-20.626-45.979-45.979-45.979s-45.979,20.626-45.979,45.979s20.626,45.979,45.979,45.979h7.5v30.279h-122.25
			c-0.251,0.011-2.471,0.118-4.47,1.199c-1.511,0.817-3.256,2.303-3.413,6.567l0.005,0.153h191.526V283.399h15L349.487,489.534
			L349.487,489.534z"/>
	</g>
	<g id="XMLID_142_">
		<polygon style="fill:#1D1D1B;" points="219.61,329.237 204.61,329.237 204.61,306.458 250.449,306.458 250.449,275.758 
			265.449,275.758 265.449,321.458 219.61,321.458 		"/>
	</g>
	<g id="XMLID_141_">
		<path style="fill:#1D1D1B;" d="M120.432,474.254H97.779l-0.388-22.809l0.004-0.157c0.413-16.644,13.731-22.596,22.812-22.596
			c0.095,0,0.189,0.001,0.283,0.002h91.62v15h-91.83c-0.25,0.011-2.471,0.118-4.471,1.199c-1.518,0.821-3.271,2.316-3.415,6.624
			l0.131,7.735h7.906v15.002H120.432z"/>
	</g>
</g>
<g>
</g>
<g>
</g>
<g>
</g>
<g>
</g>
<g>
</g>
<g>
</g>
<g>
</g>
<g>
</g>
<g>
</g>
<g>
</g>
<g>
</g>
<g>
</g>
<g>
</g>
<g>
</g>
<g>
</g>
</svg>
