<?xml version="1.0" encoding="iso-8859-1"?>
<!-- Generator: Adobe Illustrator 19.0.0, SVG Export Plug-In . SVG Version: 6.00 Build 0)  -->
<svg version="1.1" id="Layer_1" xmlns="http://www.w3.org/2000/svg" xmlns:xlink="http://www.w3.org/1999/xlink" x="0px" y="0px"
	 viewBox="0 0 480.263 480.263" style="enable-background:new 0 0 480.263 480.263;" xml:space="preserve">
<g id="XMLID_1346_">
	<g id="XMLID_1344_">
		<polygon style="fill:#CB454E;" points="297.884,433.68 127.12,433.68 127.12,389.133 327.582,389.133 		"/>
	</g>
	<g id="XMLID_1341_">
		<circle style="fill:#CB454E;" cx="453.798" cy="433.68" r="14.849"/>
	</g>
	<g id="XMLID_1342_">
		<rect x="357.28" y="374.284" style="fill:#CB454E;" width="59.396" height="37.123"/>
	</g>
	<g id="XMLID_1338_">
		<rect x="379.553" y="403.982" style="fill:#BE1622;" width="59.396" height="37.123"/>
	</g>
	<g id="XMLID_1278_">
		<g id="XMLID_1127_">
			
				<rect x="66.603" y="37.112" transform="matrix(-0.9876 0.1567 -0.1567 -0.9876 185.9582 104.1069)" style="fill:#A48A7B;" width="44.545" height="44.545"/>
		</g>
		<g id="XMLID_1124_">
			<path style="fill:#CBBBA0;" d="M167.67,129.58l-49.2,7.805c-29.525,4.684-57.256-15.454-61.94-44.978l-0.825-5.203l49.2-7.805
				c29.525-4.684,57.256,15.454,61.94,44.978L167.67,129.58z"/>
		</g>
		<g id="XMLID_1125_">
			<path style="fill:#A48A7B;" d="M116.34,137.723l-12.612,2.001c-21.383,3.392-41.468-11.192-44.86-32.576l-3.164-19.944
				l12.612-2.001c21.383-3.392,41.468,11.192,44.86,32.576L116.34,137.723z"/>
		</g>
		<g id="XMLID_1336_">
			<path style="fill:#CBBBA0;" d="M336.532,388.45l-161.394,25.604C98.232,426.254,25.997,373.8,13.796,296.895l-7.909-49.857
				l166.628-26.434c74.015-11.742,143.536,38.741,155.278,112.756L336.532,388.45z"/>
		</g>
		<g id="XMLID_1337_">
			<path style="fill:#A48A7B;" d="M162.373,416.079L162.373,416.079c-69.856,11.082-135.47-36.564-146.552-106.42l-9.934-62.622
				l34.083-5.407c51.033-8.096,98.966,26.711,107.062,77.744L162.373,416.079z"/>
		</g>
		<g id="XMLID_1340_">
			<path style="fill:#CBBBA0;" d="M225.369,214.622l-88.101,13.976c-50.489,8.01-97.912-26.427-105.922-76.916l0,0l88.101-13.976
				C169.936,129.696,217.359,164.132,225.369,214.622L225.369,214.622z"/>
		</g>
		<g id="XMLID_1339_">
			<path style="fill:#A48A7B;" d="M128.764,225.277l-23.092,3.663c-29.842,4.734-57.871-15.62-62.606-45.462l-5.387-33.96
				l23.092-3.663c29.842-4.734,57.871,15.62,62.606,45.462L128.764,225.277z"/>
		</g>
		<g id="XMLID_974_">
			<g id="XMLID_761_">
				
					<rect x="456.034" y="391.451" transform="matrix(-0.0135 -0.9999 0.9999 -0.0135 70.9516 867.7518)" style="fill:#1D1D1B;" width="14.999" height="14.849"/>
			</g>
			<g id="XMLID_715_">
				
					<rect x="431.897" y="362.091" transform="matrix(-0.0134 -0.9999 0.9999 -0.0134 75.8027 813.8241)" style="fill:#1D1D1B;" width="14.999" height="14.849"/>
			</g>
			<g id="XMLID_782_">
				<polygon style="fill:#1D1D1B;" points="167.221,454.855 166.85,427.178 194.125,417.676 199.06,431.843 181.993,437.788 
					182.22,454.654 				"/>
			</g>
			<g id="XMLID_784_">
				<polygon style="fill:#1D1D1B;" points="205.268,454.343 204.896,426.668 232.173,417.166 237.107,431.332 220.04,437.277 
					220.267,454.142 				"/>
			</g>
			<g id="XMLID_785_">
				<polygon style="fill:#1D1D1B;" points="241.46,453.858 241.087,426.181 268.364,416.679 273.298,430.845 256.231,436.791 
					256.458,453.657 				"/>
			</g>
			<g>
				<path style="fill:#1D1D1B;" d="M480.136,411.744l-8.99,1.983c-2.881,0.637-12.308,1.508-17.641-2.675
					c-3.044-2.387-4.59-6.321-4.726-12.026l-0.1-7.427l-22.271,0.299l-0.399-29.695l-53.526,0.719
					c-16.416,0.22-29.592,13.755-29.371,30.172c0.119,8.814,4.081,16.688,10.261,22.061l-60.369,0.811l0.201,14.998l75.115-1.009
					c1.381,5.064,4.089,9.69,7.949,13.447c5.6,5.452,12.957,8.439,20.756,8.439c0.138,0,0.275-0.001,0.413-0.003l52.043-0.698l0,0
					l1.408-0.019c16.416-0.22,29.592-13.754,29.371-30.17L480.136,411.744z M371.167,407.356
					c-7.257-0.844-12.957-6.971-13.059-14.467c-0.053-3.945,1.435-7.676,4.186-10.504c2.753-2.827,6.442-4.413,10.388-4.467
					l38.528-0.517l0.198,14.697l-14.773,0.198C385.712,392.444,376.228,398.491,371.167,407.356z M397.234,436.84
					c-3.946,0.088-7.675-1.434-10.504-4.186c-2.827-2.752-4.413-6.441-4.467-10.387c-0.109-8.146,6.429-14.861,14.574-14.972
					l37.044-0.497l0.397,29.545L397.234,436.84z M450.686,436.122l-1.408,0.019l-0.138-10.244c4.641,2.258,9.571,3.12,13.842,3.328
					C460.399,433.309,455.868,436.051,450.686,436.122z"/>
				<path style="fill:#1D1D1B;" d="M300.249,397.073l39.569-6.347l-11.369-70.866c-8.616-53.715-49.466-94.392-99.629-105.449
					l-3.189-19.877c-3.296-20.547-14.396-38.58-31.255-50.778c-7.355-5.322-15.423-9.253-23.888-11.723l-2.375-14.805
					c-2.194-13.678-9.583-25.683-20.806-33.803c-7.121-5.152-15.246-8.341-23.727-9.429l-3.321-20.701
					c-1.401-8.737-6.121-16.404-13.29-21.592c-7.169-5.187-15.932-7.272-24.665-5.869l-26.087,4.184l5.361,33.418
					c1.035,6.456,3.888,12.325,8.196,17.044l-19.987,3.206l3.569,22.252c2.282,14.223,10.181,26.17,21.065,33.951l-44.55,7.146
					l4.148,25.859c4.089,25.487,20.186,46.105,41.581,57.039L0,242.059l11.368,70.866c9.25,57.666,55.65,100.298,110.838,107.396
					l0.274,20.359l37.194-0.499l-0.201-14.998l-22.196,0.298l-0.055-4.124c0.429,0.004,0.856,0.015,1.286,0.015
					c6.756,0,13.601-0.535,20.482-1.639l126.291-20.259l0.124,9.243l14.998-0.201L300.249,397.073z M84.681,40.643
					c4.782-0.767,9.574,0.375,13.497,3.212c3.922,2.838,6.505,7.033,7.272,11.813l2.985,18.607l-10.53,1.69l-0.748,0.12
					c-4.779,0.769-9.573-0.374-13.495-3.212c-3.923-2.838-6.505-7.034-7.272-11.814l-2.985-18.607L84.681,40.643z M68.168,103.561
					l-1.193-7.441l40.009-6.419l4.09-0.656c9.721-1.558,19.466,0.762,27.441,6.532c7.977,5.771,13.229,14.304,14.788,24.025
					l1.193,7.441l-31.545,5.061l-12.56,2.015C90.325,137.328,71.387,123.625,68.168,103.561z M48.831,170.517l-1.772-11.048
					l65.714-10.542c0.001,0,0.002-0.001,0.002-0.001l25.977-4.167c16.587-2.658,33.219,1.3,46.83,11.147
					c13.613,9.849,22.576,24.41,25.237,41l1.772,11.048l-85.785,13.762l-5.906,0.947C86.663,228.16,54.326,204.763,48.831,170.517z
					 M299.705,356.624l7.348-0.099l-0.201-14.998l-29.695,0.398l0.201,14.998l7.349-0.099l0.369,27.489l-128.464,20.608
					c-61.978,9.936-120.491-32.392-130.434-94.372l-8.992-56.056l166.018-26.632c61.981-9.936,120.491,32.394,130.434,94.371
					l8.992,56.056l-22.585,3.623L299.705,356.624z"/>
			</g>
		</g>
	</g>
</g>
<g>
</g>
<g>
</g>
<g>
</g>
<g>
</g>
<g>
</g>
<g>
</g>
<g>
</g>
<g>
</g>
<g>
</g>
<g>
</g>
<g>
</g>
<g>
</g>
<g>
</g>
<g>
</g>
<g>
</g>
</svg>
