<?xml version="1.0" encoding="iso-8859-1"?>
<!-- Generator: Adobe Illustrator 19.0.0, SVG Export Plug-In . SVG Version: 6.00 Build 0)  -->
<svg version="1.1" id="Layer_1" xmlns="http://www.w3.org/2000/svg" xmlns:xlink="http://www.w3.org/1999/xlink" x="0px" y="0px"
	 viewBox="0 0 492.193 492.193" style="enable-background:new 0 0 492.193 492.193;" xml:space="preserve">
<g id="XMLID_854_">
	<g id="XMLID_849_">
		<path style="fill:#B5477C;" d="M397.911,155.763c0-79.186-64.193-143.38-143.38-143.38s-143.38,64.193-143.38,143.38v25.302
			h286.76V155.763z"/>
	</g>
	<g id="XMLID_774_">
		<path style="fill:#A3195B;" d="M372.607,156.011c0-72.2-58.529-130.729-130.729-130.729c-72.199,0-130.729,58.529-130.729,130.729
			v23.07h261.457L372.607,156.011L372.607,156.011z"/>
	</g>
	<g id="XMLID_28_">
		<path style="fill:#1D1D1B;" d="M405.411,188.565H103.65V150.88C103.65,67.685,171.335,0,254.531,0s150.88,67.685,150.88,150.88
			V188.565z M118.65,173.565h271.76V150.88c0-74.924-60.956-135.88-135.88-135.88S118.65,75.956,118.65,150.88V173.565z"/>
	</g>
	<g id="XMLID_38_">
		<g id="XMLID_33_">
			<rect x="171.123" y="197.934" style="fill:#1D1D1B;" width="15" height="67.473"/>
		</g>
		<g id="XMLID_40_">
			<rect x="272.333" y="197.934" style="fill:#1D1D1B;" width="15" height="25.302"/>
		</g>
		<g id="XMLID_44_">
			<rect x="322.938" y="197.934" style="fill:#1D1D1B;" width="15" height="25.302"/>
		</g>
		<g>
			<path style="fill:#1D1D1B;" d="M178.623,274.774c-13.437,0-24.369,10.932-24.369,24.368c0,5.165-4.203,9.368-9.368,9.368
				s-9.368-4.203-9.368-9.368V197.934h-15v101.209c0,13.436,10.932,24.368,24.368,24.368c13.437,0,24.368-10.932,24.368-24.368
				c0-5.165,4.203-9.368,9.369-9.368s9.368,4.203,9.368,9.368v143.38h15v-143.38C202.992,285.706,192.061,274.774,178.623,274.774z"
				/>
			<path style="fill:#1D1D1B;" d="M128.018,342.248c-13.437,0-24.368,10.932-24.368,24.368v84.341c0,5.166-4.203,9.369-9.368,9.369
				c-5.166,0-9.368-4.203-9.368-9.369h-15c0,13.437,10.932,24.369,24.368,24.369c13.437,0,24.368-10.932,24.368-24.369v-84.341
				c0-5.165,4.203-9.368,9.368-9.368c13.437,0,24.368-10.932,24.368-24.368h-15C137.386,338.045,133.184,342.248,128.018,342.248z"
				/>
			<path style="fill:#1D1D1B;" d="M407.279,425.654c0,19.118-15.553,34.671-34.67,34.671c-19.117,0-34.67-15.553-34.67-34.671
				V265.406c0-18.087-14.715-32.802-32.803-32.802s-32.802,14.715-32.802,32.802c0,9.816-7.986,17.802-17.802,17.802
				c-9.816,0-17.802-7.986-17.802-17.802v-67.473h-15v67.473c0,18.087,14.715,32.802,32.802,32.802s32.802-14.715,32.802-32.802
				c0-9.816,7.986-17.802,17.802-17.802c9.816,0,17.803,7.986,17.803,17.802v160.248c0,27.389,22.282,49.671,49.67,49.671
				c27.388,0,49.67-22.282,49.67-49.671H407.279z"/>
		</g>
		<path style="fill:#1D1D1B;" d="M272.333,307.577V465.18v2.645c0,5.166-4.203,9.368-9.368,9.368c-5.166,0-9.368-4.203-9.368-9.368
			h-15c0,13.437,10.932,24.368,24.368,24.368c13.436,0,24.368-10.932,24.368-24.368v-2.645V307.577H272.333z"/>
		<g id="XMLID_43_">
			<rect x="221.727" y="316.011" style="fill:#1D1D1B;" width="15" height="75.907"/>
		</g>
		<g id="XMLID_45_">
			<rect x="373.542" y="197.934" style="fill:#1D1D1B;" width="15" height="227.721"/>
		</g>
	</g>
	<g id="XMLID_48_">
		<path style="fill:#FFFFFF;" d="M332.716,130.46h-15c0-5.328-0.332-10.691-0.986-15.941l14.885-1.855
			C332.346,118.526,332.716,124.514,332.716,130.46z"/>
	</g>
	<g id="XMLID_47_">
		<path style="fill:#FFFFFF;" d="M311.372,90.635c-5.81-17.678-15.683-34.204-28.551-47.792l10.891-10.314
			c14.38,15.184,25.414,33.657,31.91,53.422L311.372,90.635z"/>
	</g>
</g>
<g>
</g>
<g>
</g>
<g>
</g>
<g>
</g>
<g>
</g>
<g>
</g>
<g>
</g>
<g>
</g>
<g>
</g>
<g>
</g>
<g>
</g>
<g>
</g>
<g>
</g>
<g>
</g>
<g>
</g>
</svg>
