<?xml version="1.0" encoding="iso-8859-1"?>
<!-- Generator: Adobe Illustrator 19.0.0, SVG Export Plug-In . SVG Version: 6.00 Build 0)  -->
<svg version="1.1" id="Layer_1" xmlns="http://www.w3.org/2000/svg" xmlns:xlink="http://www.w3.org/1999/xlink" x="0px" y="0px"
	 viewBox="0 0 486.397 486.397" style="enable-background:new 0 0 486.397 486.397;" xml:space="preserve">
<g id="XMLID_1757_">
	<g id="XMLID_955_">
		<polygon style="fill:#CA9E67;" points="142.313,37.451 142.313,52.415 247.063,82.343 247.063,179.611 239.58,187.093 
			239.58,224.504 217.134,246.951 172.241,246.951 127.348,291.843 112.384,299.326 89.938,299.326 104.902,329.254 
			119.866,329.254 134.831,381.629 187.205,404.076 202.17,419.04 194.688,448.968 97.42,448.968 74.973,471.415 74.973,478.897 
			227.942,478.897 227.942,404.076 276.991,404.076 276.991,44.933 269.509,37.451 		"/>
	</g>
	<g id="XMLID_1102_">
		<polygon style="fill:#B17F4A;" points="134.831,448.968 97.42,448.968 74.973,478.897 127.348,478.897 		"/>
	</g>
	<g id="XMLID_1115_">
		<polygon style="fill:#B17F4A;" points="262.027,37.451 262.027,389.111 232.098,389.111 224.616,389.111 209.652,389.111 
			209.652,478.897 232.098,478.897 232.098,404.076 262.027,404.076 276.991,404.076 276.991,44.933 		"/>
	</g>
	<g id="XMLID_1156_">
		<polygon style="fill:#D5B185;" points="89.938,299.326 149.795,299.326 149.795,329.254 104.902,329.254 		"/>
	</g>
	<g id="XMLID_1155_">
		<circle style="fill:#D5B185;" cx="179.723" cy="314.29" r="59.857"/>
	</g>
	<g id="XMLID_474_">
		<path style="fill:#1D1D1B;" d="M112.384,486.397H67.228l0.25-7.742c0.598-18.521,15.582-33.029,34.113-33.029h18.276v15h-18.276
			c-7.606,0-14.146,4.36-17.234,10.771h28.028L112.384,486.397L112.384,486.397z"/>
	</g>
	<g id="XMLID_504_">
		<polygon style="fill:#1D1D1B;" points="172.259,217.022 157.259,217.022 157.259,179.594 239.563,179.594 239.563,149.683 
			254.563,149.683 254.563,194.594 172.259,194.594 		"/>
	</g>
	<g id="XMLID_505_">
		<rect x="134.813" y="179.611" style="fill:#1D1D1B;" width="15" height="29.929"/>
	</g>
	<g id="XMLID_508_">
		
			<rect x="246.99" y="0.039" transform="matrix(-1 -0.0052 0.0052 -1 508.9175 23.8482)" style="fill:#1D1D1B;" width="15" height="22.447"/>
	</g>
	<g id="XMLID_510_">
		<rect x="247.063" y="52.397" style="fill:#FFFFFF;" width="14.964" height="15"/>
	</g>
	<g>
		<path style="fill:#1D1D1B;" d="M269.491,0.04v29.91H134.813v28.122l104.75,29.929V142.2h15V76.687l-104.75-29.929V44.95h119.678
			v232.906c-3.98-5.891-8.692-11.328-14.08-16.153c-6.933-6.21-14.766-11.202-23.159-14.872
			c9.002-6.842,14.828-17.656,14.828-29.809v-14.965h-15v14.965c0,12.366-10.061,22.428-22.428,22.428h-14.964v0.049
			c-2.468,0.064-4.942,0.227-7.416,0.5c-31.315,3.458-57.886,23.926-70.134,51.826H81.859l0.6,8.057
			c0.026,0.352,0.681,8.695,4.182,17.15c4.912,11.861,13.333,18.761,23.834,19.623c2.059,17.862,9.537,34.809,21.652,48.335
			c14.874,16.606,35.53,26.85,57.556,28.755v31.88H149.81c-18.531,0-33.515,14.509-34.113,33.029l-0.25,7.742h119.996v-74.821
			h26.585v-15h-41.585v74.821h-87.867c3.088-6.411,9.628-10.771,17.234-10.771h54.873v-61.556h-7.5
			c-20.533,0-40.173-8.779-53.883-24.087c-13.897-15.516-20.278-35.576-17.969-56.485c3.665-33.182,30.408-59.925,63.588-63.588
			c2.582-0.286,5.151-0.436,7.7-0.459h0.269c17.997-0.095,34.984,6.307,48.517,18.427c15.308,13.71,24.087,33.35,24.087,53.883h15
			c0-1.668-0.052-3.331-0.147-4.987h0.147V37.45v-7.5V0.04H269.491z M110.421,316.851c-0.168,1.521-0.295,3.042-0.383,4.561
			c-6.25-1.606-9.482-8.742-11.099-14.586h13.216C111.389,310.105,110.797,313.447,110.421,316.851z"/>
		<path style="fill:#1D1D1B;" d="M389.223,276.861c-16.512,0-29.946,13.434-29.946,29.946v127.196
			c0,20.618-16.774,37.393-37.393,37.393c-20.619,0-37.393-16.774-37.393-37.393v-97.268h-15v97.268
			c0,28.89,23.503,52.393,52.393,52.393s52.393-23.503,52.393-52.393V306.808c0-8.241,6.705-14.946,14.946-14.946
			c8.241,0,14.946,6.705,14.946,14.946h15C419.17,290.295,405.736,276.861,389.223,276.861z"/>
	</g>
</g>
<g>
</g>
<g>
</g>
<g>
</g>
<g>
</g>
<g>
</g>
<g>
</g>
<g>
</g>
<g>
</g>
<g>
</g>
<g>
</g>
<g>
</g>
<g>
</g>
<g>
</g>
<g>
</g>
<g>
</g>
</svg>
