<?xml version="1.0" encoding="iso-8859-1"?>
<!-- Generator: Adobe Illustrator 19.0.0, SVG Export Plug-In . SVG Version: 6.00 Build 0)  -->
<svg version="1.1" id="Layer_1" xmlns="http://www.w3.org/2000/svg" xmlns:xlink="http://www.w3.org/1999/xlink" x="0px" y="0px"
	 viewBox="0 0 492.5 492.5" style="enable-background:new 0 0 492.5 492.5;" xml:space="preserve">
<g id="XMLID_1176_">
	<g id="XMLID_971_">
		<rect x="124.582" y="378.828" style="fill:#F9B233;" width="242.918" height="113.672"/>
	</g>
	<g id="XMLID_970_">
		<path style="fill:#B66E00;" d="M248.346,485.936h-4.156c-78.363,0-141.889-63.526-141.889-141.888V60.153
			c0-28.519,23.119-51.639,51.639-51.639h184.656c28.519,0,51.639,23.119,51.639,51.639v283.895
			C390.234,422.411,326.709,485.936,248.346,485.936z"/>
	</g>
	<g id="XMLID_1209_">
		<circle style="fill:#F9B233;" cx="246.25" cy="310.625" r="45.469"/>
	</g>
	<g id="XMLID_1302_">
		<path style="fill:#F9B233;" d="M367.5,98.438c0-25.112-20.357-45.469-45.469-45.469c-22.524,0-41.172,16.394-44.787,37.891
			h-61.989c-3.615-21.496-22.263-37.891-44.787-37.891C145.357,52.969,125,73.326,125,98.438c0,19.789,12.664,36.577,30.312,42.826
			V295.47h181.875V141.263C354.836,135.015,367.5,118.227,367.5,98.438z"/>
	</g>
	<g id="XMLID_1211_">
		<polygon style="fill:#F39200;" points="185.625,234.844 246.25,204.531 306.875,234.844 246.25,265.156 		"/>
	</g>
	<g id="XMLID_1208_">
		<circle style="fill:#CA9E67;" cx="200.781" cy="280.313" r="45.469"/>
	</g>
	<g id="XMLID_1210_">
		<circle style="fill:#CA9E67;" cx="291.719" cy="280.313" r="45.469"/>
	</g>
	<g id="XMLID_540_">
		<polygon style="fill:#1D1D1B;" points="273.208,226.395 246.25,212.917 219.291,226.395 212.583,212.98 246.25,196.146 
			279.916,212.98 		"/>
	</g>
	<g id="XMLID_496_">
		<rect x="200.859" y="166.641" style="fill:#FFFFFF;" width="15" height="22.734"/>
	</g>
	<g id="XMLID_497_">
		<rect x="276.641" y="166.641" style="fill:#FFFFFF;" width="15" height="22.734"/>
	</g>
	<g id="XMLID_502_">
		<rect x="215.937" y="121.25" style="fill:#1D1D1B;" width="60.625" height="15"/>
	</g>
	<g id="XMLID_503_">
		
			<rect x="174.345" y="93.725" transform="matrix(-0.7071 -0.7071 0.7071 -0.7071 232.7889 316.0249)" style="fill:#1D1D1B;" width="15" height="32.151"/>
	</g>
	<g id="XMLID_543_">
		
			<rect x="294.587" y="102.301" transform="matrix(-0.7071 -0.7071 0.7071 -0.7071 452.6935 407.1137)" style="fill:#1D1D1B;" width="32.151" height="15"/>
	</g>
	<path style="fill:#1D1D1B;" d="M481.172,272.656v-15h-83.437V63.51c0-35.02-28.49-63.51-63.51-63.51h-175.95
		c-35.02,0-63.51,28.49-63.51,63.51v194.147H11.328v15h83.438v15.313H49.219v15h45.547v40.047c0,29.043,8.339,56.171,22.734,79.132
		V492.5h15v-50.347c27.388,30.816,67.298,50.269,111.672,50.269h4.157c44.374,0,84.283-19.452,111.671-50.268V492.5h15v-70.352
		c14.396-22.961,22.734-50.089,22.734-79.132v-40.047h45.547v-15h-45.547v-15.313H481.172z M109.766,63.51
		c0-26.748,21.761-48.51,48.51-48.51h175.949c26.749,0,48.51,21.762,48.51,48.51v194.147h-38.051l-0.066-111.349
		C362.991,137.64,375,119.028,375,98.438c0-29.207-23.762-52.969-52.969-52.969c-23.77,0-44.189,15.594-50.744,37.891h-50.074
		c-6.556-22.297-26.974-37.891-50.744-37.891c-29.207,0-52.969,23.762-52.969,52.969c0,20.591,12.009,39.202,30.384,47.87
		l-0.067,111.349h-38.051C109.766,257.657,109.766,63.51,109.766,63.51z M329.687,280.313c0,2.622-0.267,5.183-0.776,7.656h-29.615
		v15h22.871c-6.928,9.287-17.998,15.313-30.449,15.313c-0.027,0-0.053-0.002-0.08-0.002c0-0.026,0.002-0.051,0.002-0.076h-2.248
		c-19.856-1.207-35.643-17.737-35.643-37.891c0-20.935,17.033-37.969,37.969-37.969c12.451,0,23.521,6.025,30.449,15.313h-22.871v15
		h29.615C329.42,275.13,329.687,277.691,329.687,280.313z M200.861,318.279c-0.027,0-0.053,0.002-0.08,0.002
		c-12.451,0-23.521-6.025-30.449-15.313h22.871v-15h-29.615c-0.508-2.474-0.776-5.034-0.776-7.656s0.268-5.183,0.776-7.656h29.615
		v-15h-22.871c6.928-9.287,17.998-15.313,30.449-15.313c20.936,0,37.969,17.033,37.969,37.969c0,20.154-15.786,36.684-35.643,37.891
		h-2.248C200.859,318.229,200.861,318.254,200.861,318.279z M157.877,134.217c-15.179-5.345-25.378-19.724-25.378-35.779
		c0-20.937,17.033-37.969,37.969-37.969c18.583,0,34.309,13.304,37.391,31.635l1.052,6.256h74.677l1.052-6.256
		c3.083-18.331,18.808-31.635,37.391-31.635c20.936,0,37.969,17.032,37.969,37.969c0,16.056-10.198,30.435-25.377,35.779
		l-5.012,1.765l0.064,107.438c-9.63-9.905-23.083-16.076-37.956-16.076c-19.295,0-36.208,10.375-45.469,25.835
		c-9.261-15.46-26.173-25.835-45.469-25.835c-14.873,0-28.325,6.171-37.956,16.076l0.065-107.438L157.877,134.217z M246.25,307.446
		c6.303,10.523,16.153,18.681,27.886,22.823c-4.678,10.771-15.415,18.325-27.886,18.325s-23.208-7.554-27.886-18.325
		C230.097,326.127,239.947,317.969,246.25,307.446z M109.766,272.656h38.607c-0.364,2.501-0.561,5.056-0.561,7.656
		s0.197,5.155,0.561,7.656h-38.607C109.766,287.968,109.766,272.656,109.766,272.656z M382.734,343.016
		c0,27.196-8.127,52.525-22.068,73.703H360v1.011c-24.145,35.97-65.188,59.692-111.671,59.692h-4.157
		c-46.483,0-87.527-23.721-111.672-59.692v-1.011h-0.666c-13.941-21.178-22.068-46.507-22.068-73.703v-40.047h43.148
		c8.508,17.903,26.763,30.313,47.868,30.313c0.885,0,1.766-0.024,2.64-0.067c6.212,17.672,23.06,30.379,42.828,30.379
		c19.769,0,36.616-12.708,42.828-30.379c0.875,0.043,1.755,0.067,2.641,0.067c21.104,0,39.36-12.41,47.868-30.313h43.148v40.047
		H382.734z M382.734,287.969h-38.607c0.364-2.501,0.56-5.056,0.56-7.656s-0.197-5.155-0.56-7.656h38.607V287.969z"/>
	<g id="XMLID_546_">
		<rect x="208.437" y="378.828" style="fill:#1D1D1B;" width="15" height="22.734"/>
	</g>
	<g id="XMLID_547_">
		<rect x="238.75" y="378.828" style="fill:#1D1D1B;" width="15" height="53.047"/>
	</g>
	<g id="XMLID_548_">
		<rect x="269.062" y="378.828" style="fill:#1D1D1B;" width="15" height="22.734"/>
	</g>
	<g id="XMLID_495_">
		<rect x="178.047" y="159.141" style="fill:#1D1D1B;" width="45.469" height="15"/>
	</g>
	<g id="XMLID_498_">
		<rect x="268.984" y="159.141" style="fill:#1D1D1B;" width="45.469" height="15"/>
	</g>
</g>
<g>
</g>
<g>
</g>
<g>
</g>
<g>
</g>
<g>
</g>
<g>
</g>
<g>
</g>
<g>
</g>
<g>
</g>
<g>
</g>
<g>
</g>
<g>
</g>
<g>
</g>
<g>
</g>
<g>
</g>
</svg>
