<?xml version="1.0" encoding="iso-8859-1"?>
<!-- Generator: Adobe Illustrator 19.0.0, SVG Export Plug-In . SVG Version: 6.00 Build 0)  -->
<svg version="1.1" id="Layer_1" xmlns="http://www.w3.org/2000/svg" xmlns:xlink="http://www.w3.org/1999/xlink" x="0px" y="0px"
	 viewBox="0 0 494.649 494.649" style="enable-background:new 0 0 494.649 494.649;" xml:space="preserve">
<g id="XMLID_1010_">
	<g id="XMLID_1111_">
		<path style="fill:#E94E1B;" d="M317.861,487.15h-56.432l-14.105-14.107l-14.105,14.107h-56.432v-20.488
			c0-27.641,22.408-50.049,50.049-50.049h40.976c27.641,0,50.049,22.408,50.049,50.049V487.15z"/>
	</g>
	<g id="XMLID_1110_">
		<rect x="212.056" y="247.325" style="fill:#E94E1B;" width="70.537" height="49.376"/>
	</g>
	<g id="XMLID_1112_">
		<rect x="212.056" y="296.7" style="fill:#BE1622;" width="70.537" height="42.322"/>
	</g>
	<g id="XMLID_1113_">
		<polygon style="fill:#E94E1B;" points="275.538,381.345 219.109,381.345 212.055,339.022 282.592,339.022 		"/>
	</g>
	<g id="XMLID_1114_">
		<polygon style="fill:#BE1622;" points="268.485,416.613 226.163,416.613 219.109,374.291 275.538,374.291 		"/>
	</g>
	<g id="XMLID_1107_">
		<path style="fill:#BE1622;" d="M247.324,254.378L247.324,254.378c-31.165,0-56.429-25.264-56.429-56.429V70.983l56.429-21.161
			l56.429,21.161v126.966C303.753,229.114,278.489,254.378,247.324,254.378z"/>
	</g>
	<g id="XMLID_1106_">
		<path style="fill:#E94E1B;" d="M120.358,7.5c0,0-35.886,1.83-35.268,49.376h56.429C141.519,56.876,113.284,32.369,120.358,7.5z"/>
	</g>
	<g id="XMLID_1092_">
		<path style="fill:#BE1622;" d="M120.358,148.573L120.358,148.573c-19.478,0-35.268-15.79-35.268-35.268V56.876h70.537v56.429
			C155.626,132.783,139.836,148.573,120.358,148.573z"/>
	</g>
	<g id="XMLID_1109_">
		<path style="fill:#E94E1B;" d="M374.282,7.5c0,0,35.886,1.83,35.268,49.376h-56.429C353.121,56.876,381.356,32.369,374.282,7.5z"
			/>
	</g>
	<g id="XMLID_1108_">
		<path style="fill:#BE1622;" d="M374.282,148.573L374.282,148.573c19.478,0,35.268-15.79,35.268-35.268V56.876h-70.537v56.429
			C339.014,132.783,354.804,148.573,374.282,148.573z"/>
	</g>
	<g id="XMLID_173_">
		<rect x="331.522" y="14.554" style="fill:#1D1D1B;" width="15" height="28.214"/>
	</g>
	<g>
		<path style="fill:#1D1D1B;" d="M382.706,16.303c11.21,3.573,19.353,14.086,19.353,26.465h15C417.058,19.185,397.873,0,374.29,0
			h-9.206l1.861,9.017c0.04,0.196,3.799,19.981-5.488,31.502c-4.715,5.849-12.073,8.746-22.494,8.857h-7.441v63.93
			c0,23.582,19.186,42.768,42.768,42.768c23.583,0,42.769-19.186,42.769-42.768v-63.93h-43.506
			C381.667,38.902,382.978,25.445,382.706,16.303z M402.058,113.305c0,15.311-12.457,27.768-27.769,27.768
			s-27.768-12.457-27.768-27.768v-48.93h55.536v48.93H402.058z"/>
		<path style="fill:#1D1D1B;" d="M133.226,40.563c-9.397-11.596-5.559-31.367-5.523-31.546L129.564,0h-9.207
			C96.775,0,77.589,19.185,77.589,42.768h15c0-12.379,8.142-22.892,19.353-26.465c-0.273,9.142,1.039,22.599,9.153,33.072H77.589
			v63.93c0,23.582,19.186,42.768,42.769,42.768s42.768-19.186,42.768-42.768v-63.93h-7.44
			C145.29,49.265,137.943,46.382,133.226,40.563z M148.126,113.305c0,15.311-12.457,27.768-27.768,27.768
			s-27.769-12.456-27.769-27.768v-48.93h55.537V113.305z"/>
	</g>
	<g id="XMLID_235_">
		<rect x="148.126" y="14.554" style="fill:#1D1D1B;" width="15" height="28.214"/>
	</g>
	<g id="XMLID_268_">
		<rect x="190.895" y="14.107" style="fill:#1D1D1B;" width="28.214" height="15"/>
	</g>
	<g id="XMLID_269_">
		<rect x="268.485" y="14.107" style="fill:#1D1D1B;" width="28.215" height="15"/>
	</g>
	<g id="XMLID_276_">
		<rect x="240.27" y="373.845" style="fill:#1D1D1B;" width="14.107" height="15"/>
	</g>
	<g id="XMLID_280_">
		<rect x="226.163" y="289.2" style="fill:#1D1D1B;" width="42.322" height="15"/>
	</g>
	<g id="XMLID_281_">
		<rect x="233.216" y="331.523" style="fill:#1D1D1B;" width="28.215" height="15"/>
	</g>
	<path style="fill:#1D1D1B;" d="M307.888,225.428l73.902-36.951v-25.796h-15v16.526L311.203,207
		c0.021-0.665,0.051-1.327,0.051-1.997V65.786l-21.161-7.935V35.715h-15v16.51l-27.769-10.413L212.502,54.87V35.715h-15v24.781
		l-14.107,5.29v139.217c0,0.67,0.03,1.332,0.051,1.997l-55.587-27.794V162.68h-15v25.796l73.902,36.951
		c2.528,7.475,6.411,14.328,11.341,20.284l19.646,163.721c-27.205,2.927-48.46,26.02-48.46,53.989v31.228h42.076
		c14.936,0,28.134-7.575,35.961-19.084c7.826,11.508,21.025,19.084,35.961,19.084h42.076v-31.228
		c0-27.97-21.256-51.063-48.461-53.99l19.647-163.72C301.477,239.757,305.36,232.903,307.888,225.428z M198.394,76.18l48.929-18.349
		l48.93,18.349v128.823c0,26.98-21.95,48.929-48.93,48.929s-48.929-21.95-48.929-48.929V76.18z M279.715,260.083l-17.884,149.03
		h-7.007h-15h-7.007l-17.883-149.03c9.504,5.615,20.573,8.849,32.39,8.849S270.211,265.698,279.715,260.083z M211.363,479.649
		h-27.076v-16.228c0-21.675,17.634-39.309,39.309-39.309h16.227v27.076C239.824,466.882,227.056,479.649,211.363,479.649z
		 M310.361,463.422v16.228h-27.076c-15.693,0-28.461-12.768-28.461-28.461v-27.076h16.227
		C292.727,424.113,310.361,441.747,310.361,463.422z"/>
</g>
<g>
</g>
<g>
</g>
<g>
</g>
<g>
</g>
<g>
</g>
<g>
</g>
<g>
</g>
<g>
</g>
<g>
</g>
<g>
</g>
<g>
</g>
<g>
</g>
<g>
</g>
<g>
</g>
<g>
</g>
</svg>
