<?xml version="1.0" encoding="iso-8859-1"?>
<!-- Generator: Adobe Illustrator 19.0.0, SVG Export Plug-In . SVG Version: 6.00 Build 0)  -->
<svg version="1.1" id="Layer_1" xmlns="http://www.w3.org/2000/svg" xmlns:xlink="http://www.w3.org/1999/xlink" x="0px" y="0px"
	 viewBox="0 0 487.065 487.065" style="enable-background:new 0 0 487.065 487.065;" xml:space="preserve">
<g id="XMLID_1098_">
	<g id="XMLID_978_">
		<path style="fill:#BF76B3;" d="M243.531,426.267L243.531,426.267c-58.871,0-106.595-47.724-106.595-106.595V7.5h213.191v312.172
			C350.128,378.543,302.403,426.267,243.531,426.267z"/>
	</g>
	<g id="XMLID_1100_">
		<path style="fill:#F9B233;" d="M197.849,136.937l45.684-30.456l30.456,22.842v15.228l-30.456,22.842
			C243.531,167.393,194.874,135.409,197.849,136.937z"/>
	</g>
	<g id="XMLID_983_">
		<circle style="fill:#A3195B;" cx="190.234" cy="83.639" r="53.298"/>
	</g>
	<g id="XMLID_1097_">
		<circle style="fill:#A3195B;" cx="296.829" cy="83.639" r="53.298"/>
	</g>
	<g id="XMLID_1096_">
		<circle style="fill:#FFFFFF;" cx="190.234" cy="83.639" r="30.456"/>
	</g>
	<g id="XMLID_1099_">
		<circle style="fill:#FFFFFF;" cx="296.829" cy="83.639" r="30.456"/>
	</g>
	<g id="XMLID_982_">
		<path style="fill:#A3195B;" d="M190.234,365.355L190.234,365.355c-29.436,0-53.298-23.862-53.298-53.298v-137.05l0,0
			c29.435,0,53.298,23.862,53.298,53.298V365.355z"/>
	</g>
	<g id="XMLID_1091_">
		<path style="fill:#A3195B;" d="M296.829,365.355L296.829,365.355c29.436,0,53.298-23.862,53.298-53.298v-137.05l0,0
			c-29.436,0-53.298,23.862-53.298,53.298V365.355z"/>
	</g>
	<g id="XMLID_979_">
		<circle style="fill:#A3195B;" cx="243.531" cy="372.969" r="60.912"/>
	</g>
	<g id="XMLID_340_">
		<path style="fill:#1D1D1B;" d="M190.233,121.595c-20.929,0-37.955-17.027-37.955-37.956s17.027-37.955,37.955-37.955
			c20.929,0,37.956,17.027,37.956,37.955C228.19,104.568,211.163,121.595,190.233,121.595z M190.233,60.684
			c-12.658,0-22.955,10.298-22.955,22.955c0,12.658,10.298,22.956,22.955,22.956c12.658,0,22.956-10.298,22.956-22.956
			C213.19,70.981,202.893,60.684,190.233,60.684z"/>
	</g>
	<g id="XMLID_362_">
		<path style="fill:#1D1D1B;" d="M296.829,121.595c-20.929,0-37.956-17.027-37.956-37.956s17.027-37.955,37.956-37.955
			s37.955,17.027,37.955,37.955C334.786,104.568,317.759,121.595,296.829,121.595z M296.829,60.684
			c-12.658,0-22.956,10.298-22.956,22.955c0,12.658,10.298,22.956,22.956,22.956s22.955-10.298,22.955-22.956
			C319.786,70.981,309.488,60.684,296.829,60.684z"/>
	</g>
	<g id="XMLID_367_">
		<rect x="182.621" y="76.139" style="fill:#1D1D1B;" width="15.228" height="15"/>
	</g>
	<g id="XMLID_368_">
		<rect x="289.216" y="76.139" style="fill:#1D1D1B;" width="15.228" height="15"/>
	</g>
	<g id="XMLID_373_">
		<rect x="205.577" y="205.462" style="fill:#1D1D1B;" width="15" height="15.228"/>
	</g>
	<g id="XMLID_374_">
		<rect x="236.031" y="213.077" style="fill:#1D1D1B;" width="15" height="30.456"/>
	</g>
	<g id="XMLID_375_">
		<rect x="266.488" y="205.462" style="fill:#1D1D1B;" width="15" height="15.228"/>
	</g>
	<g>
		<path style="fill:#1D1D1B;" d="M129.436,0v167.507v144.551v15.228c0,49.61,31.831,91.919,76.14,107.596v37.183h-22.956v15h37.956
			V439.06c7.417,1.521,15.095,2.32,22.956,2.32c7.867,0,15.551-0.801,22.975-2.324v33.008h-22.956v15h37.956v-52.189
			c44.298-15.682,76.121-57.986,76.121-107.589v-15.085V167.507V0H129.436z M251.031,83.639c0-25.253,20.545-45.797,45.798-45.797
			s45.797,20.544,45.797,45.797s-20.544,45.798-45.797,45.798S251.031,108.892,251.031,83.639z M268.808,137.567l-25.276,20.221
			l-25.276-20.221c10.663-5.563,19.484-14.186,25.276-24.71C249.324,123.381,258.145,132.004,268.808,137.567z M190.233,129.437
			c-25.253,0-45.797-20.545-45.797-45.798s20.544-45.797,45.797-45.797c25.253,0,45.798,20.544,45.798,45.797
			S215.487,129.437,190.233,129.437z M144.436,183.099c21.688,3.529,38.297,22.393,38.297,45.063v129.08
			c-21.697-3.59-38.297-22.485-38.297-45.184V183.099z M342.627,183.121v129.08c0,22.669-16.609,41.533-38.297,45.063v-128.96
			C304.329,205.605,320.93,186.71,342.627,183.121z M342.627,167.507h-68.639v15h36.22c-12.78,11.154-20.878,27.542-20.878,45.797
			v144.551h7.642c15.902,0,30.385-6.159,41.214-16.207c-12.544,40.35-50.232,69.732-94.654,69.732
			c-44.464,0-82.18-29.438-94.688-69.846c10.862,10.116,25.412,16.321,41.39,16.321h7.5V228.162
			c0-18.193-8.062-34.528-20.788-45.655h36.13v-15h-68.64v-43.948c11.154,12.78,27.543,20.878,45.797,20.878
			c3.851,0,7.614-0.376,11.268-1.064l42.03,33.624l42.03-33.624c3.654,0.688,7.417,1.064,11.268,1.064
			c18.255,0,34.644-8.098,45.797-20.878L342.627,167.507L342.627,167.507z M296.829,22.842c-22.94,0-42.947,12.774-53.298,31.579
			c-10.351-18.805-30.358-31.579-53.298-31.579c-18.255,0-34.644,8.098-45.797,20.878V15h198.19v28.72
			C331.474,30.94,315.085,22.842,296.829,22.842z"/>
		<rect x="218.69" y="472.064" style="fill:#1D1D1B;" width="25.842" height="15"/>
		<rect x="280.621" y="472.064" style="fill:#1D1D1B;" width="23.842" height="15"/>
	</g>
</g>
<g>
</g>
<g>
</g>
<g>
</g>
<g>
</g>
<g>
</g>
<g>
</g>
<g>
</g>
<g>
</g>
<g>
</g>
<g>
</g>
<g>
</g>
<g>
</g>
<g>
</g>
<g>
</g>
<g>
</g>
</svg>
