<?xml version="1.0" encoding="iso-8859-1"?>
<!-- Generator: Adobe Illustrator 19.0.0, SVG Export Plug-In . SVG Version: 6.00 Build 0)  -->
<svg version="1.1" id="Layer_1" xmlns="http://www.w3.org/2000/svg" xmlns:xlink="http://www.w3.org/1999/xlink" x="0px" y="0px"
	 viewBox="0 0 484.785 484.785" style="enable-background:new 0 0 484.785 484.785;" xml:space="preserve">
<g id="XMLID_1224_">
	<g id="XMLID_525_">
		<polygon style="fill:#F9B233;" points="151.466,108.276 196.93,62.813 196.93,100.698 189.352,108.276 		"/>
	</g>
	<g id="XMLID_1289_">
		<path style="fill:#86CBED;" d="M7.5,358.323c0-129.728,105.165-234.893,234.893-234.893s234.893,105.165,234.893,234.893"/>
	</g>
	<g id="XMLID_527_">
		<path style="fill:#61BB5D;" d="M52.963,358.323c0-104.619,84.811-189.43,189.43-189.43s189.43,84.811,189.43,189.43"/>
	</g>
	<g id="XMLID_1275_">
		<path style="fill:#81C97D;" d="M66.512,359.928c0-97.136,78.744-175.881,175.881-175.881s175.881,78.745,175.881,175.881"/>
	</g>
	<g id="XMLID_1290_">
		<path style="fill:#A0D69E;" d="M127.13,365.9c0-63.658,51.605-115.263,115.263-115.263S357.656,302.242,357.656,365.9"/>
	</g>
	<g id="XMLID_528_">
		<path style="fill:#A0D69E;" d="M121.158,359.928c0-63.658,51.605-115.263,115.263-115.263s115.263,51.605,115.263,115.263"/>
	</g>
	<g id="XMLID_1063_">
		<path style="fill:#61BB5D;" d="M287.856,131.007v-53.04c0-25.109-20.354-45.463-45.463-45.463S196.93,52.858,196.93,77.967v53.04
			h30.309v113.658H196.93v90.926v68.195h90.926v-68.195v-90.926h-30.309V131.007H287.856z"/>
	</g>
	<g id="XMLID_579_">
		<path style="fill:#86CBED;" d="M212.084,403.786c0-16.739,13.57-30.309,30.309-30.309s30.309,13.57,30.309,30.309"/>
	</g>
	<g id="XMLID_449_">
		<rect x="219.661" y="62.89" style="fill:#1D1D1B;" width="15.154" height="15"/>
	</g>
	<g id="XMLID_453_">
		<rect x="212.161" y="282.551" style="fill:#1D1D1B;" width="15" height="22.732"/>
	</g>
	<g id="XMLID_500_">
		<rect x="257.624" y="282.551" style="fill:#1D1D1B;" width="15" height="22.732"/>
	</g>
	<g id="XMLID_454_">
		<rect x="234.893" y="290.128" style="fill:#1D1D1B;" width="15" height="30.31"/>
	</g>
	<g id="XMLID_530_">
		
			<rect x="318.253" y="-1.962" transform="matrix(-0.3163 -0.9487 0.9487 -0.3163 400.3363 348.5028)" style="fill:#1D1D1B;" width="15.001" height="63.9"/>
	</g>
	<g>
		<path style="fill:#1D1D1B;" d="M484.785,358.323c0-57.905-20.747-113.957-58.42-157.831
			c-34.34-39.992-80.731-67.673-131.748-78.902c0.48-1.833,0.738-3.756,0.738-5.738V77.967c0-29.204-23.759-52.963-52.963-52.963
			c-24.894,0-45.818,17.267-51.456,40.45l-70.45,50.321h68.943v0.077c0,1.982,0.258,3.905,0.738,5.738
			c-51.017,11.229-97.408,38.91-131.748,78.902C20.747,244.366,0,300.418,0,358.323v7.5h166.698v15.231h15V259.819h-15v91.004
			H15.124C16.827,299.177,36.09,249.522,69.8,210.265c33.667-39.208,79.666-65.808,130.057-75.355
			c3.53,2.273,7.725,3.598,12.227,3.598c4.221,0,7.654,3.434,7.654,7.654v83.349c0,4.221-3.434,7.654-7.654,7.654h-3.188
			c-10.734,0-19.467,8.732-19.467,19.467V391.82c0,10.734,8.732,19.467,19.467,19.467h66.992c10.734,0,19.467-8.732,19.467-19.467
			V256.632c0-10.734-8.732-19.467-19.467-19.467H272.7c-4.221,0-7.654-3.434-7.654-7.654v-83.349c0-4.221,3.434-7.654,7.654-7.654
			c4.501,0,8.697-1.325,12.227-3.598c50.391,9.547,96.39,36.147,130.057,75.355c33.71,39.258,52.973,88.912,54.676,140.559H318.087
			V259.82h-15v121.235h15v-15.231h166.698V358.323z M167.293,100.775l22.137-15.812v15.812
			C189.43,100.775,167.293,100.775,167.293,100.775z M220.857,396.286c3.109-8.902,11.586-15.309,21.536-15.309
			s18.426,6.406,21.536,15.309H220.857z M272.701,123.508c-12.491,0-22.654,10.163-22.654,22.654v83.349
			c0,12.491,10.163,22.654,22.654,22.654h3.188c2.463,0,4.467,2.004,4.467,4.467V391.82c0,1.184-0.471,2.254-1.225,3.054
			c-4.018-16.56-18.96-28.896-36.738-28.896s-32.72,12.337-36.738,28.896c-0.754-0.8-1.225-1.871-1.225-3.054V256.632
			c0-2.463,2.004-4.467,4.467-4.467h3.188c12.491,0,22.654-10.163,22.654-22.654v-83.349c0-12.491-10.163-22.654-22.654-22.654
			c-4.221,0-7.654-3.435-7.654-7.655V77.967c0-20.933,17.03-37.963,37.963-37.963s37.963,17.03,37.963,37.963v37.886
			C280.355,120.073,276.922,123.508,272.701,123.508z"/>
		<polygon style="fill:#1D1D1B;" points="249.893,418.903 234.893,418.978 235.079,456.903 204.507,456.903 204.507,471.903 
			235.153,471.903 235.153,472.018 250.153,471.943 250.153,471.903 280.278,471.903 280.278,456.903 250.079,456.903 		"/>
	</g>
</g>
<g>
</g>
<g>
</g>
<g>
</g>
<g>
</g>
<g>
</g>
<g>
</g>
<g>
</g>
<g>
</g>
<g>
</g>
<g>
</g>
<g>
</g>
<g>
</g>
<g>
</g>
<g>
</g>
<g>
</g>
</svg>
