<?xml version="1.0" encoding="iso-8859-1"?>
<!-- Generator: Adobe Illustrator 19.0.0, SVG Export Plug-In . SVG Version: 6.00 Build 0)  -->
<svg version="1.1" id="Layer_1" xmlns="http://www.w3.org/2000/svg" xmlns:xlink="http://www.w3.org/1999/xlink" x="0px" y="0px"
	 viewBox="0 0 485.347 485.347" style="enable-background:new 0 0 485.347 485.347;" xml:space="preserve">
<g id="XMLID_1116_">
	<g id="XMLID_1077_">
		<path style="fill:#9F9F9F;" d="M138.58,350.622c0-72.393,58.687-131.08,131.08-131.08c72.394,0,131.08,58.687,131.08,131.08"/>
	</g>
	<g id="XMLID_981_">
		<path style="fill:#878787;" d="M138.58,350.622c0-72.393,44.878-131.08,100.238-131.08s123.369,58.687,123.369,131.08"/>
	</g>
	<g id="XMLID_1062_">
		<polygon style="fill:#878787;" points="146.291,296.648 76.896,296.648 7.5,327.49 7.5,350.622 138.58,350.622 		"/>
	</g>
	<g id="XMLID_1076_">
		<circle style="fill:#9F9F9F;" cx="323.635" cy="335.201" r="46.264"/>
	</g>
	<g id="XMLID_224_">
		<path style="fill:#1D1D1B;" d="M454.715,358.122h-38.553v-15h38.553c8.62,0,15.632-7.012,15.632-15.632v-84.816
			c0-8.62-7.012-15.632-15.632-15.632h-46.264c-16.891,0-30.632-13.741-30.632-30.632v-77.106c0-8.62-7.012-15.632-15.632-15.632
			v-15c16.891,0,30.632,13.741,30.632,30.632v77.106c0,8.62,7.012,15.632,15.632,15.632h46.264
			c16.891,0,30.632,13.741,30.632,30.632v84.816C485.347,344.38,471.605,358.122,454.715,358.122z"/>
	</g>
	<path style="fill:#1D1D1B;" d="M269.661,211.668c-73.904,0-134.482,58.152-138.381,131.101L15,343.101V331.99l63.487-28.216h52.172
		v-45.678h-15v30.678H75.304L0,322.242v35.902l146.08-0.418v-7.479c0-68.142,55.438-123.58,123.58-123.58
		c65.655,0,119.507,51.467,123.352,116.173l-15.614,0.19v-15.54c0-29.645-24.118-53.763-53.764-53.763s-53.764,24.118-53.764,53.763
		c0,27.102,20.155,49.583,46.264,53.242v0.943H269.66v15h61.474v-30.421h-7.5c-21.375,0-38.764-17.389-38.764-38.764
		c0-21.374,17.389-38.763,38.764-38.763c21.374,0,38.764,17.389,38.764,38.763v30.724l30.842-0.374v0.493h15v-8.085
		C408.241,273.835,346.074,211.668,269.661,211.668z"/>
	<g id="XMLID_221_">
		<polygon style="fill:#1D1D1B;" points="165.725,396.675 123.159,396.675 123.159,381.675 157.698,381.675 201.735,315.62 
			214.216,323.94 		"/>
	</g>
	<g id="XMLID_228_">
		<rect x="207.975" y="343.122" style="fill:#1D1D1B;" width="53.974" height="15"/>
	</g>
	<g id="XMLID_229_">
		<rect x="92.317" y="312.279" style="fill:#FFFFFF;" width="15.421" height="15"/>
	</g>
	<g id="XMLID_230_">
		<rect x="84.817" y="242.674" style="fill:#1D1D1B;" width="15" height="38.553"/>
	</g>
</g>
<g>
</g>
<g>
</g>
<g>
</g>
<g>
</g>
<g>
</g>
<g>
</g>
<g>
</g>
<g>
</g>
<g>
</g>
<g>
</g>
<g>
</g>
<g>
</g>
<g>
</g>
<g>
</g>
<g>
</g>
</svg>
