<?xml version="1.0" encoding="iso-8859-1"?>
<!-- Generator: Adobe Illustrator 19.0.0, SVG Export Plug-In . SVG Version: 6.00 Build 0)  -->
<svg version="1.1" id="Layer_1" xmlns="http://www.w3.org/2000/svg" xmlns:xlink="http://www.w3.org/1999/xlink" x="0px" y="0px"
	 viewBox="0 0 489.993 489.993" style="enable-background:new 0 0 489.993 489.993;" xml:space="preserve">
<g id="XMLID_1223_">
	<g id="XMLID_1391_">
		<path style="fill:#878787;" d="M367.494,489.993H122.497V160.778c0-67.654,54.844-122.498,122.498-122.498l0,0
			c67.654,0,122.498,54.844,122.498,122.498L367.494,489.993z"/>
	</g>
	<g id="XMLID_1226_">
		<path style="fill:#B2B2B2;" d="M168.434,489.993c0-42.284,34.278-76.561,76.561-76.561s76.561,34.278,76.561,76.561"/>
	</g>
	<g id="XMLID_1435_">
		<path style="fill:#FFFFFF;" d="M189.074,352.182L189.074,352.182c-7.171,0-12.984-5.813-12.984-12.984V254.98
			c0-5.514,4.47-9.984,9.984-9.984h3c5.514,0,9.984,4.47,9.984,9.984v87.218C199.058,347.712,194.588,352.182,189.074,352.182z"/>
	</g>
	<g id="XMLID_1225_">
		<path style="fill:#FFFFFF;" d="M300.916,352.182L300.916,352.182c7.171,0,12.984-5.813,12.984-12.984V254.98
			c0-5.514-4.47-9.984-9.984-9.984h-3c-5.514,0-9.984,4.47-9.984,9.984v87.218C290.932,347.712,295.402,352.182,300.916,352.182z"/>
	</g>
	<g id="XMLID_895_">
		<polygon style="fill:#BE1622;" points="244.995,191.403 267.964,168.435 275.62,153.122 244.995,137.81 214.371,153.122 
			222.027,168.435 		"/>
	</g>
	<g id="XMLID_1413_">
		<circle style="fill:#DADADA;" cx="244.995" cy="229.684" r="45.937"/>
	</g>
	<g id="XMLID_1412_">
		<circle style="fill:#B2B2B2;" cx="290.932" cy="206.715" r="45.937"/>
	</g>
	<g id="XMLID_1414_">
		<circle style="fill:#B2B2B2;" cx="199.058" cy="206.715" r="45.937"/>
	</g>
	<g id="XMLID_933_">
		<rect x="237.495" y="436.399" style="fill:#1D1D1B;" width="15" height="30.625"/>
	</g>
	<g id="XMLID_935_">
		<rect x="214.527" y="436.399" style="fill:#1D1D1B;" width="15" height="15.313"/>
	</g>
	<g id="XMLID_934_">
		<rect x="260.464" y="436.399" style="fill:#1D1D1B;" width="15" height="15.313"/>
	</g>
	<g id="XMLID_823_">
		<rect x="191.403" y="107.342" style="fill:#FFFFFF;" width="15.313" height="15"/>
	</g>
	<g id="XMLID_824_">
		<rect x="283.276" y="107.342" style="fill:#FFFFFF;" width="15.313" height="15"/>
	</g>
	<path style="fill:#1D1D1B;" d="M421.086,198.903v-15h-46.093v-23.125c0-68.294-52.937-124.458-119.934-129.611l18.208-18.208
		L262.66,2.352l-10.165,10.166V0h-15v12.517L227.33,2.352l-10.607,10.607l18.208,18.208
		c-66.997,5.154-119.934,61.317-119.934,129.611v23.125H68.905v15h46.093v15.624H68.905v15h46.093v260.465h15V229.527h20.75
		c4.02,8.479,10.208,15.731,17.843,21.051v78.636c0,16.8,13.668,30.468,30.469,30.468h7.5v-97.47
		c8.347,12.895,22.747,20.91,38.437,20.91c15.691,0,30.091-8.014,38.436-20.91v97.47h7.5c16.801,0,30.469-13.668,30.469-30.468
		v-78.636c7.635-5.319,13.823-12.572,17.843-21.051h20.75v260.465h15V229.527h46.093v-15h-46.093v-15.624H421.086z M129.997,160.778
		c0-63.41,51.588-114.998,114.998-114.998s114.998,51.588,114.998,114.998v23.125h-20.75c-8.574-18.085-27.003-30.625-48.311-30.625
		c-1.74,0-3.458,0.09-5.156,0.253l-40.78-24.467l-40.781,24.467c-1.698-0.163-3.416-0.253-5.156-0.253
		c-21.309,0-39.737,12.54-48.311,30.625h-20.75L129.997,160.778L129.997,160.778z M266.28,159.328
		c-8.823,4.609-16.206,11.602-21.285,20.129c-5.079-8.527-12.462-15.52-21.285-20.129l21.285-12.771L266.28,159.328z
		 M129.997,214.527v-15.624h16.201c-0.375,2.551-0.577,5.159-0.577,7.813s0.201,5.26,0.577,7.812h-16.201V214.527z M161.421,214.527
		c-0.523-2.523-0.799-5.135-0.799-7.812c0-2.676,0.277-5.289,0.8-7.813h29.981v-15h-23.256c7.008-9.471,18.254-15.625,30.913-15.625
		c21.194,0,38.437,17.243,38.437,38.438c0,21.194-17.242,38.437-38.437,38.437c-12.659,0-23.906-6.154-30.913-15.625h23.257v-15
		H161.421z M183.59,329.214v-71.353c2.58,0.782,5.242,1.369,7.969,1.754v83.124C186.81,340.096,183.59,335.023,183.59,329.214z
		 M244.995,268.121c-9.854,0-18.949-4.704-24.681-12.39c10.326-4.495,18.963-12.157,24.681-21.757
		c5.718,9.6,14.355,17.262,24.681,21.757C263.944,263.417,254.85,268.121,244.995,268.121z M306.401,329.214
		c0,5.81-3.22,10.882-7.969,13.525v-83.124c2.727-0.385,5.389-0.973,7.969-1.754V329.214z M290.932,245.152
		c-21.194,0-38.436-17.242-38.436-38.437c0-21.194,17.242-38.438,38.436-38.438c12.659,0,23.905,6.154,30.913,15.625h-23.256v15
		h29.981c0.523,2.523,0.8,5.136,0.8,7.813c0,2.676-0.277,5.288-0.799,7.812h-29.982v15h23.257
		C314.837,238.998,303.591,245.152,290.932,245.152z M359.993,214.527h-16.201c0.375-2.551,0.577-5.158,0.577-7.812
		c0-2.654-0.201-5.261-0.577-7.813h16.201V214.527z"/>
</g>
<g>
</g>
<g>
</g>
<g>
</g>
<g>
</g>
<g>
</g>
<g>
</g>
<g>
</g>
<g>
</g>
<g>
</g>
<g>
</g>
<g>
</g>
<g>
</g>
<g>
</g>
<g>
</g>
<g>
</g>
</svg>
