<?xml version="1.0" encoding="iso-8859-1"?>
<!-- Generator: Adobe Illustrator 19.0.0, SVG Export Plug-In . SVG Version: 6.00 Build 0)  -->
<svg version="1.1" id="Layer_1" xmlns="http://www.w3.org/2000/svg" xmlns:xlink="http://www.w3.org/1999/xlink" x="0px" y="0px"
	 viewBox="0 0 489.989 489.989" style="enable-background:new 0 0 489.989 489.989;" xml:space="preserve">
<g id="XMLID_1232_">
	<g id="XMLID_1067_">
		<polygon style="fill:#9D9D9C;" points="248.648,409.413 270.57,445.951 248.648,482.488 307.108,482.488 336.339,453.258 
			336.339,438.643 307.108,409.413 		"/>
	</g>
	<g id="XMLID_976_">
		<polygon style="fill:#9D9D9C;" points="102.498,263.263 44.038,277.878 22.115,314.415 22.115,329.03 190.188,329.03 		"/>
	</g>
	<g id="XMLID_973_">
		<path style="fill:#9D9D9C;" d="M219.418,321.723c-72.645,0-131.535-58.89-131.535-131.535V73.268L14.808,29.929V7.5h160.765
			l58.46,175.38h116.92c0,0,122.997,11.203,124.228,131.535c0,0-0.547,113.265-109.613,124.228l36.538-51.152l-36.538-58.46
			L219.418,321.723z"/>
	</g>
	<g id="XMLID_972_">
		<path style="fill:#B2B2B2;" d="M175.573,7.5l58.46,175.38h116.92c0,0,122.997,11.203,124.228,131.535
			c0,0-0.547,113.265-109.613,124.228l36.538-51.152l-36.538-58.46h-146.15L102.498,7.5H175.573"/>
	</g>
	<g id="XMLID_535_">
		<rect x="124.42" y="29.23" style="fill:#FFFFFF;" width="14.615" height="15"/>
	</g>
	<path style="fill:#1D1D1B;" d="M343.645,175.38H239.438L180.979,0H7.308v34.2l29.23,17.335v21.732h15V60.432l6.923,4.106v45.268h15
		V73.434l6.922,4.105V182.88c0,26.357,6.674,51.183,18.416,72.883H87.883c-40.4,0-73.268,32.868-73.268,73.268v7.5h219.417h102.305
		c28.1,0,50.961,22.86,50.961,50.96c0,25.805-19.284,47.176-44.195,50.497c-3.76-20.492-21.74-36.074-43.302-36.074h-64.399
		l26.422,44.037l-26.422,44.038h64.399c21.854,0,40.033-16.005,43.451-36.908c0.13-0.014,0.263-0.018,0.393-0.033v0.402
		c76.664,0,139.035-62.371,139.035-139.035S420.31,175.38,343.645,175.38z M299.801,474.988h-37.907l17.423-29.038l-17.422-29.037
		h37.906c16.011,0,29.037,13.026,29.037,29.037C328.839,461.962,315.813,474.988,299.801,474.988z M30.096,321.53
		c3.692-28.599,28.2-50.768,57.787-50.768h20.189c15.157,21.659,35.746,39.249,59.78,50.768H30.096z M385.81,431.071
		c10.257-11.63,16.488-26.892,16.488-43.581c0-31.369-22.019-57.676-51.408-64.322c-2.999-37.666-34.587-67.405-73.012-67.405
		h-21.922v15h21.922c29.586,0,54.075,22.171,57.768,50.768H234.033c-76.452,0-138.65-62.198-138.65-138.65V68.996L73.46,55.995
		V36.73h-15v10.368l-6.923-4.106v-13.57h-15v4.674l-14.23-8.439V15h147.859l58.46,175.38h115.019
		c68.393,0,124.035,55.642,124.035,124.035C467.681,368.01,433.508,413.776,385.81,431.071z"/>
</g>
<g>
</g>
<g>
</g>
<g>
</g>
<g>
</g>
<g>
</g>
<g>
</g>
<g>
</g>
<g>
</g>
<g>
</g>
<g>
</g>
<g>
</g>
<g>
</g>
<g>
</g>
<g>
</g>
<g>
</g>
</svg>
