<?xml version="1.0" encoding="iso-8859-1"?>
<!-- Generator: Adobe Illustrator 19.0.0, SVG Export Plug-In . SVG Version: 6.00 Build 0)  -->
<svg version="1.1" id="Layer_1" xmlns="http://www.w3.org/2000/svg" xmlns:xlink="http://www.w3.org/1999/xlink" x="0px" y="0px"
	 viewBox="0 0 487.783 487.783" style="enable-background:new 0 0 487.783 487.783;" xml:space="preserve">
<g id="XMLID_1173_">
	<g id="XMLID_1135_">
		<polygon style="fill:#3AAA35;" points="351.517,357.273 343.699,357.273 343.699,310.362 70.049,310.362 75.85,355.888 
			132.597,357.273 163.871,365.091 163.871,388.547 179.508,404.184 359.336,404.184 382.791,396.366 382.791,372.91 		"/>
	</g>
	<g id="XMLID_1171_">
		<path style="fill:#CBBBA0;" d="M312.424,83.623h-46.911l-70.367,54.73l-23.456,54.73v62.549v7.819h75.81
			c17.61,14.64,40.234,23.456,64.924,23.456c56.135,0,101.641-45.507,101.641-101.641S368.559,83.623,312.424,83.623z"/>
	</g>
	<g id="XMLID_1132_">
		<path style="fill:#D5C9B3;" d="M202.964,263.45c0,0-28.016-135.522,109.46-179.827c0,0-58.639-13.031-117.279,54.73
			c0,0-34.532,46.911-23.456,117.279L202.964,263.45z"/>
	</g>
	<g id="XMLID_1167_">
		<circle style="fill:#D5C9B3;" cx="312.424" cy="200.902" r="39.093"/>
	</g>
	<g id="XMLID_1080_">
		<path style="fill:#95C11F;" d="M453.159,310.362H30.956c-12.954,0-23.456-10.501-23.456-23.456l0,0
			c0-12.954,10.501-23.456,23.456-23.456h242.376l62.579,16.325l31.244-8.506L453.159,310.362z"/>
	</g>
	<g id="XMLID_1169_">
		<polyline style="fill:#008D36;" points="273.331,263.45 335.911,279.775 367.154,271.269 453.159,310.362 218.601,310.362 		"/>
	</g>
	<path style="fill:#1D1D1B;" d="M360.335,349.773h-1c-8.798,0-15.955-7.158-15.955-15.956s7.157-15.956,15.955-15.956h128.448
		l-105.715-48.052c10.992-8.206,20.236-18.699,27.097-31.049c12.76-22.967,15.812-49.529,8.594-74.792
		c-8.885-31.097-29.348-56.873-57.62-72.579c-28.272-15.707-60.968-19.462-92.064-10.578c-38.39,10.968-70.211,36.23-89.6,71.131
		c-17.772,31.99-23.141,68.566-15.469,104.008h-25.13v15h140.087c14.07,11.274,31.775,17.713,50.24,17.713
		c7.273,0,14.666-0.998,21.999-3.094c5.704-1.63,11.174-3.763,16.393-6.317l51.94,23.609H30.956
		c-8.798,0-15.956-7.158-15.956-15.956c0-7.713,5.501-14.163,12.786-15.637h2.851v-0.302c0.107-0.002,0.211-0.016,0.318-0.016
		h101.642v-15H77.549v-63.185h8.137v-15H54.412v15h8.137v63.185H30.956c-0.107,0-0.212,0.007-0.318,0.008v-63.194h8.137v-15H7.5v15
		h8.137v67.258C6.306,265.361,0,275.408,0,286.906c0,17.069,13.887,30.956,30.956,30.956h36.033
		c-2.816,4.663-4.44,10.123-4.44,15.956c0,17.069,13.887,30.956,30.956,30.956h46.911c8.798,0,15.956,7.158,15.956,15.955
		c0,17.069,13.887,30.956,30.955,30.956h173.008c17.069,0,30.956-13.887,30.956-30.956
		C391.292,363.66,377.405,349.773,360.335,349.773z M346.081,271.146c-22.555,6.446-45.78,0.126-61.943-14.643v-0.554h-0.597
		c-8.316-7.79-14.7-17.846-18.051-29.577c-3.718-13.009-2.145-26.687,4.425-38.514c6.571-11.827,17.354-20.388,30.363-24.104
		c10.02-2.862,20.559-1.653,29.671,3.409c9.111,5.062,15.706,13.369,18.569,23.392c2.181,7.632,1.259,15.657-2.596,22.596
		c-3.855,6.939-10.182,11.961-17.815,14.142l4.121,14.423c11.484-3.281,21.004-10.838,26.805-21.28
		c5.802-10.441,7.189-22.517,3.908-34.002c-3.965-13.874-13.095-25.375-25.709-32.383c-12.614-7.008-27.201-8.684-41.076-4.72
		c-16.861,4.818-30.838,15.913-39.355,31.243c-8.517,15.329-10.554,33.058-5.735,49.92c2.696,9.435,6.996,17.983,12.501,25.456
		h-85.176c-7.931-32.861-3.321-66.994,13.195-96.723c17.444-31.399,46.071-54.125,80.609-63.993
		c27.243-7.784,55.889-4.492,80.658,9.268c24.77,13.761,42.697,36.343,50.48,63.588c6.118,21.41,3.531,43.921-7.282,63.386
		C385.238,250.94,367.491,265.029,346.081,271.146z M360.335,396.685H187.327c-8.798,0-15.955-7.158-15.955-15.956
		c0-17.069-13.887-30.955-30.956-30.955H93.504c-8.798,0-15.956-7.158-15.956-15.956s7.158-15.956,15.956-15.956H332.82
		c-2.816,4.663-4.44,10.123-4.44,15.956c0,17.069,13.887,30.956,30.955,30.956h1c8.798,0,15.956,7.158,15.956,15.955
		C376.292,389.527,369.133,396.685,360.335,396.685z"/>
	<g id="XMLID_183_">
		<rect x="195.145" y="365.41" style="fill:#FFFFFF;" width="86.004" height="15"/>
	</g>
	<g id="XMLID_186_">
		<rect x="296.788" y="365.41" style="fill:#FFFFFF;" width="15.637" height="15"/>
	</g>
</g>
<g>
</g>
<g>
</g>
<g>
</g>
<g>
</g>
<g>
</g>
<g>
</g>
<g>
</g>
<g>
</g>
<g>
</g>
<g>
</g>
<g>
</g>
<g>
</g>
<g>
</g>
<g>
</g>
<g>
</g>
</svg>
