<?xml version="1.0" encoding="iso-8859-1"?>
<!-- Generator: Adobe Illustrator 19.0.0, SVG Export Plug-In . SVG Version: 6.00 Build 0)  -->
<svg version="1.1" id="Layer_1" xmlns="http://www.w3.org/2000/svg" xmlns:xlink="http://www.w3.org/1999/xlink" x="0px" y="0px"
	 viewBox="0 0 491.874 491.874" style="enable-background:new 0 0 491.874 491.874;" xml:space="preserve">
<g id="XMLID_1876_">
	<g id="XMLID_956_">
		<circle style="fill:#575756;" cx="245.937" cy="398.587" r="67.845"/>
	</g>
	<g id="XMLID_926_">
		<circle style="fill:#575756;" cx="245.937" cy="237.456" r="118.728"/>
	</g>
	<g id="XMLID_980_">
		<polygon style="fill:#BE1622;" points="203.534,449.47 245.937,364.665 288.34,449.47 245.937,466.431 		"/>
	</g>
	<g id="XMLID_957_">
		<circle style="fill:#797978;" cx="245.937" cy="195.053" r="76.325"/>
	</g>
	<g id="XMLID_264_">
		<rect x="238.436" style="fill:#1D1D1B;" width="15" height="101.767"/>
	</g>
	<g id="XMLID_265_">
		<rect x="203.534" y="416.529" style="fill:#FFFFFF;" width="16.961" height="15"/>
	</g>
	<g id="XMLID_266_">
		<rect x="237.456" y="416.529" style="fill:#FFFFFF;" width="16.961" height="15"/>
	</g>
	<g id="XMLID_279_">
		<rect x="271.378" y="416.529" style="fill:#FFFFFF;" width="16.961" height="15"/>
	</g>
	<path style="fill:#1D1D1B;" d="M364.055,282.112c5.267-13.983,8.11-29.055,8.11-44.656c0-12.104-1.716-23.813-4.912-34.903h84.455
		l7.574,23.915l14.3-4.528l-10.889-34.386H361.872c-5.22-12.08-12.27-23.19-20.806-32.975l74.586-52.21l21.178,14.119l8.32-12.481
		l-29.705-19.804L330.4,143.735c-22.386-20.194-52.013-32.507-84.464-32.507s-62.078,12.313-84.464,32.507L76.428,84.204
		l-29.705,19.804l8.32,12.481l21.179-14.119l74.585,52.21c-8.536,9.785-15.586,20.895-20.806,32.975H29.181l-10.889,34.386
		l14.3,4.528l7.574-23.915h84.455c-3.195,11.089-4.912,22.799-4.912,34.903c0,15.602,2.843,30.673,8.11,44.656L27.396,299.834
		l-7.002,35.008l14.709,2.941l4.992-24.958l94.042-16.596c4.892,9.312,10.951,17.966,18.017,25.779l-59.47,84.957l19.804,29.705
		l12.48-8.32l-14.119-21.179l52.16-74.514c7.681,6.661,16.235,12.454,25.547,17.191c-11.522,13.544-17.965,30.787-17.965,48.74
		c0,29.739,17.322,55.502,42.403,67.747v25.539h15v-20.117c5.754,1.411,11.759,2.176,17.942,2.176s12.188-0.764,17.942-2.176v20.117
		h15v-25.539c25.081-12.245,42.403-38.008,42.403-67.747c0-17.953-6.443-35.196-17.965-48.74
		c9.312-4.738,17.866-10.53,25.547-17.191l52.16,74.514l-14.119,21.179l12.48,8.32l19.804-29.705l-59.47-84.957
		c7.066-7.813,13.125-16.466,18.017-25.779l94.042,16.596l4.992,24.958l14.709-2.941l-7.001-35.008L364.055,282.112z
		 M285.528,353.127c13.189,11.498,20.753,28.067,20.753,45.46c0,33.274-27.07,60.345-60.345,60.345s-60.345-27.071-60.345-60.345
		c0-17.392,7.564-33.961,20.753-45.46l9.201-8.021l-11.314-4.583c-42.234-17.11-69.524-57.566-69.524-103.067
		c0-61.332,49.896-111.228,111.228-111.228s111.228,49.896,111.228,111.228c0,45.501-27.29,85.957-69.524,103.067l-11.314,4.583
		L285.528,353.127z"/>
</g>
<g>
</g>
<g>
</g>
<g>
</g>
<g>
</g>
<g>
</g>
<g>
</g>
<g>
</g>
<g>
</g>
<g>
</g>
<g>
</g>
<g>
</g>
<g>
</g>
<g>
</g>
<g>
</g>
<g>
</g>
</svg>
