<?xml version="1.0" encoding="iso-8859-1"?>
<!-- Generator: Adobe Illustrator 19.0.0, SVG Export Plug-In . SVG Version: 6.00 Build 0)  -->
<svg version="1.1" id="Layer_1" xmlns="http://www.w3.org/2000/svg" xmlns:xlink="http://www.w3.org/1999/xlink" x="0px" y="0px"
	 viewBox="0 0 491.491 491.491" style="enable-background:new 0 0 491.491 491.491;" xml:space="preserve">
<g id="XMLID_880_">
	<g id="XMLID_922_">
		<rect x="163.778" y="124.595" style="fill:#36A9E1;" width="163.933" height="187.352"/>
	</g>
	<g id="XMLID_826_">
		<rect x="163.778" y="124.595" style="fill:#1D71B8;" width="78.063" height="187.352"/>
	</g>
	<g id="XMLID_959_">
		<polygon style="fill:#1D71B8;" points="132.553,77.758 241.842,7.5 280.873,62.144 241.842,132.401 163.778,132.401 		"/>
	</g>
	<g id="XMLID_958_">
		<polygon style="fill:#36A9E1;" points="241.842,7.5 265.26,69.951 241.842,132.401 327.711,132.401 358.936,77.758 		"/>
	</g>
	<g id="XMLID_2_">
		<path style="fill:#1D1D1B;" d="M335.211,319.446H156.278v-192.58l-34.196-51.293L239.639,0h12.211l117.557,75.573l-34.196,51.293
			L335.211,319.446L335.211,319.446z M171.278,304.446h148.933V122.324l28.255-42.38L247.444,15h-3.4l-101.02,64.943l28.254,42.38
			L171.278,304.446L171.278,304.446z"/>
	</g>
	<g id="XMLID_93_">
		<rect x="195.31" y="335.365" style="fill:#1D1D1B;" width="15" height="156.126"/>
	</g>
	<g id="XMLID_94_">
		<rect x="234.342" y="335.365" style="fill:#1D1D1B;" width="15" height="156.126"/>
	</g>
	<g id="XMLID_91_">
		<rect x="273.373" y="335.365" style="fill:#1D1D1B;" width="15" height="156.126"/>
	</g>
	<g>
		<path style="fill:#1D1D1B;" d="M351.13,491.185c-21.353,0-38.726-17.372-38.726-38.725V335.365h15V452.46
			c0,13.082,10.644,23.725,23.726,23.725s23.726-10.643,23.726-23.725h15C389.855,473.813,372.483,491.185,351.13,491.185z"/>
	</g>
	<g>
		<path style="fill:#1D1D1B;" d="M140.359,491.185c-21.353,0-38.725-17.372-38.725-38.725h15c0,13.082,10.643,23.725,23.725,23.725
			c13.083,0,23.726-10.643,23.726-23.725V335.365h15V452.46C179.085,473.813,161.713,491.185,140.359,491.185z"/>
	</g>
	<g id="XMLID_99_">
		<rect x="187.197" y="124.901" style="fill:#FFFFFF;" width="117.095" height="15"/>
	</g>
	<g id="XMLID_100_">
		<rect x="179.391" y="265.415" style="fill:#FFFFFF;" width="31.225" height="15"/>
	</g>
	<g id="XMLID_101_">
		<rect x="280.873" y="265.415" style="fill:#FFFFFF;" width="31.226" height="15"/>
	</g>
</g>
<g>
</g>
<g>
</g>
<g>
</g>
<g>
</g>
<g>
</g>
<g>
</g>
<g>
</g>
<g>
</g>
<g>
</g>
<g>
</g>
<g>
</g>
<g>
</g>
<g>
</g>
<g>
</g>
<g>
</g>
</svg>
