<?xml version="1.0" encoding="iso-8859-1"?>
<!-- Generator: Adobe Illustrator 19.0.0, SVG Export Plug-In . SVG Version: 6.00 Build 0)  -->
<svg version="1.1" id="Layer_1" xmlns="http://www.w3.org/2000/svg" xmlns:xlink="http://www.w3.org/1999/xlink" x="0px" y="0px"
	 viewBox="0 0 491.528 491.528" style="enable-background:new 0 0 491.528 491.528;" xml:space="preserve">
<g id="XMLID_1334_">
	<g id="XMLID_1236_">
		<polygon style="fill:#F9B233;" points="34.19,50.387 64.621,50.387 72.229,57.995 72.229,80.818 		"/>
	</g>
	<g id="XMLID_1240_">
		<path style="fill:#EDEDED;" d="M148.306,240.58V80.818h-3.211c2.042-4.665,3.211-9.797,3.211-15.215
			c0-21.008-17.031-38.039-38.039-38.039s-38.038,17.03-38.038,38.039s17.03,38.039,38.039,38.039c2.606,0,5.149-0.267,7.608-0.767
			v145.314h7.608v4.876c0,9.912,8.035,17.947,17.947,17.947h35.307V240.58H148.306z"/>
	</g>
	<g id="XMLID_1468_">
		<path style="fill:#FFFFFF;" d="M406.969,225.365c0,63.025-51.091,114.116-114.116,114.116S178.737,288.39,178.737,225.365v-7.608
			h220.624L406.969,225.365z"/>
	</g>
	<g id="XMLID_1235_">
		<path style="fill:#EDEDED;" d="M247.207,225.365c0,42.016,34.061,76.077,76.077,76.077H338.5l-83.685-83.685h-7.608V225.365z"/>
	</g>
	<g id="XMLID_1234_">
		<polygon style="fill:#FFFFFF;" points="414.577,248.188 262.422,248.188 262.422,217.757 384.146,217.757 		"/>
	</g>
	<g id="XMLID_1220_">
		<polygon style="fill:#575756;" points="460.223,293.834 315.676,293.834 270.03,248.188 414.577,248.188 		"/>
	</g>
	<g id="XMLID_728_">
		<rect x="368.93" y="263.512" style="fill:#1D1D1B;" width="68.47" height="15"/>
	</g>
	<g id="XMLID_729_">
		<rect x="346.107" y="240.688" style="fill:#1D1D1B;" width="68.47" height="15"/>
	</g>
	<g id="XMLID_734_">
		<rect x="270.138" y="354.696" style="fill:#1D1D1B;" width="15" height="114.116"/>
	</g>
	<g id="XMLID_735_">
		<rect x="231.991" y="476.528" style="fill:#1D1D1B;" width="22.823" height="15"/>
	</g>
	<g id="XMLID_688_">
		<rect x="95.052" y="50.495" style="fill:#1D1D1B;" width="15.215" height="15"/>
	</g>
	<g>
		<path style="fill:#1D1D1B;" d="M486.4,186.427l-6.708-13.416l-34.741,17.37l43.398-43.397l-10.606-10.607l-50.241,50.241
			l16.861-42.152l-13.927-5.57l-28.545,71.362H171.237v15.108c0,2.593,0.106,5.162,0.267,7.715h-7.983
			c-4.254,0-7.715-3.461-7.715-7.715V65.603c0-8.358-2.273-16.191-6.219-22.931h21.542v-15h-19.932l17.064-17.064L157.655,0
			L139.18,18.476l-6.5-16.487l-13.955,5.502l5.872,14.895c-4.509-1.499-9.324-2.323-14.33-2.323
			c-16.84,0-31.564,9.196-39.443,22.823H3.179l71.486,51.061c8.351,10.467,21.202,17.193,35.602,17.193h0.108v121.831
			c0,25.11,20.429,45.539,45.539,45.539h27.567c19.76,40.499,61.359,68.469,109.372,68.469c37.348,0,71.749-16.588,94.974-45.647
			h72.397v-15H338.499c-35.278,0-64.41-26.78-68.159-61.077h139.735L486.4,186.427z M64.83,68.49L49.985,57.887h15.41
			c-0.43,2.51-0.667,5.085-0.667,7.716C64.729,66.573,64.77,67.534,64.83,68.49z M155.914,263.512
			c-16.839,0-30.539-13.7-30.539-30.539V96.142h-15.108c-16.839,0-30.539-13.7-30.539-30.539s13.7-30.539,30.539-30.539
			s30.539,13.7,30.539,30.539v159.763c0,12.525,10.19,22.715,22.715,22.715h9.869c1.001,5.269,2.323,10.425,3.981,15.432h-21.457
			V263.512z M338.499,301.334h29.193c-19.827,19.638-46.356,30.647-74.84,30.647c-58.788,0-106.616-47.827-106.616-106.615v-0.108
			h69.039C259.083,267.839,294.944,301.334,338.499,301.334z"/>
		<polygon style="fill:#1D1D1B;" points="315.568,354.696 300.568,354.696 300.568,476.528 262.422,476.528 262.422,491.528 
			308.068,491.528 315.568,491.528 338.499,491.528 338.499,476.528 315.568,476.528 		"/>
	</g>
</g>
<g>
</g>
<g>
</g>
<g>
</g>
<g>
</g>
<g>
</g>
<g>
</g>
<g>
</g>
<g>
</g>
<g>
</g>
<g>
</g>
<g>
</g>
<g>
</g>
<g>
</g>
<g>
</g>
<g>
</g>
</svg>
