<?xml version="1.0" encoding="iso-8859-1"?>
<!-- Generator: Adobe Illustrator 19.0.0, SVG Export Plug-In . SVG Version: 6.00 Build 0)  -->
<svg version="1.1" id="Layer_1" xmlns="http://www.w3.org/2000/svg" xmlns:xlink="http://www.w3.org/1999/xlink" x="0px" y="0px"
	 viewBox="0 0 492.008 492.008" style="enable-background:new 0 0 492.008 492.008;" xml:space="preserve">
<g id="XMLID_904_">
	<g id="XMLID_1401_">
		<path style="fill:#636362;" d="M355.053,385.406c-67.932,0-123.002-55.07-123.002-123.002s55.07-123.002,123.002-123.002"/>
	</g>
	<g id="XMLID_1397_">
		<path style="fill:#4A4A4A;" d="M362.254,352.605h-98.401v-46.439c0-51.342,41.621-92.963,92.963-92.963h5.439L362.254,352.605
			L362.254,352.605z"/>
	</g>
	<g id="XMLID_1396_">
		<polygon style="fill:#F9B233;" points="296.653,401.806 267.195,418.206 267.195,328.005 296.653,328.005 		"/>
	</g>
	<g id="XMLID_1399_">
		<polygon style="fill:#F9B233;" points="362.254,352.605 329.453,377.206 329.453,278.804 362.254,278.804 		"/>
	</g>
	<g id="XMLID_1398_">
		<polygon style="fill:#E94E1B;" points="329.453,377.206 296.653,401.806 296.653,303.404 329.453,303.405 		"/>
	</g>
	<g id="XMLID_1186_">
		<path style="fill:#E94E1B;" d="M132.65,114.802H42.449v-3.75c0-49.817,40.384-90.201,90.201-90.201l0,0V114.802z"/>
	</g>
	<g id="XMLID_1153_">
		<rect x="132.65" y="24.601" style="fill:#F9B233;" width="139.402" height="90.201"/>
	</g>
	<g id="XMLID_1189_">
		<path style="fill:#636362;" d="M362.254,139.402h-64.136c-23.453,0-46.516-23.445-46.516-46.899l12.25-67.903h55.936
			c23.453,0,42.466,19.012,42.466,42.465V139.402z"/>
	</g>
	<g id="XMLID_1190_">
		<circle style="fill:#FFFFFF;" cx="288.453" cy="65.601" r="32.8"/>
	</g>
	<g id="XMLID_902_">
		<rect x="289.153" y="328.005" style="fill:#1D1D1B;" width="15" height="73.801"/>
	</g>
	<g id="XMLID_889_">
		<rect x="321.953" y="303.404" style="fill:#1D1D1B;" width="15" height="73.802"/>
	</g>
	<path style="fill:#1D1D1B;" d="M336.953,452.46v-51.655h-15v51.57c-18.765,3.431-33.037,19.891-33.037,39.633h15
		c0-13.951,11.35-25.301,25.3-25.301c13.951,0,25.301,11.35,25.301,25.301h15C369.517,472.433,355.485,456.08,336.953,452.46z"/>
	<g id="XMLID_755_">
		<rect x="280.252" y="58.102" style="fill:#1D1D1B;" width="16.4" height="15"/>
	</g>
	<path style="fill:#1D1D1B;" d="M449.559,462.103l-56.165-56.163l48.076,19.23l5.57-13.928l-77.287-30.914V146.902v-15v-49.9
		c0-8.971-1.831-17.522-5.136-25.301h46.838v-15h-31.094l28.197-28.197L397.95,2.897l-28.197,28.197V0h-15v40.556
		c-11.914-14.321-29.859-23.455-49.9-23.455H124.45c-44.83,0-81.302,36.472-81.302,81.301v23.9h210.888
		c9.929,12.494,24.347,21.266,40.803,23.826c-42.277,21.617-71.288,65.622-71.288,116.277c0,32.027,11.626,62.63,32.801,86.518
		v77.484h15V295.205c0-39.01,36.773-71.11,83.4-74.247v167.554l41.793,82.249l13.416-6.709l-20.332-40.663l49.321,49.321
		L449.559,462.103z M288.452,40.301c13.951,0,25.301,11.35,25.301,25.301c0,13.95-11.35,25.3-25.301,25.3s-25.301-11.35-25.301-25.3
		C263.152,51.65,274.501,40.301,288.452,40.301z M58.149,98.401c0-36.559,29.743-66.301,66.302-66.301h0.7v75.201H58.149V98.401z
		 M140.151,107.302V32.101h123.257c-14.32,11.914-23.455,29.859-23.455,49.901c0,8.971,1.831,17.521,5.136,25.3H140.151z
		 M304.853,131.902c-25.269,0-46.196-18.882-49.447-43.276c7.291,10.432,19.382,17.275,33.047,17.275
		c22.222,0,40.301-18.078,40.301-40.3c0-13.666-6.844-25.757-17.277-33.048c24.394,3.251,43.277,24.179,43.277,49.448v49.9h-0.7
		L304.853,131.902L304.853,131.902z M256.353,295.205v28.831c-11.577-18.314-17.801-39.591-17.801-61.631
		c0-63.688,51.813-115.502,115.501-115.502h0.7v59.028C299.846,209.194,256.353,247.985,256.353,295.205z"/>
	<g id="XMLID_760_">
		<rect x="206.451" y="41.701" style="fill:#1D1D1B;" width="24.601" height="15"/>
	</g>
</g>
<g>
</g>
<g>
</g>
<g>
</g>
<g>
</g>
<g>
</g>
<g>
</g>
<g>
</g>
<g>
</g>
<g>
</g>
<g>
</g>
<g>
</g>
<g>
</g>
<g>
</g>
<g>
</g>
<g>
</g>
</svg>
