<?xml version="1.0" encoding="iso-8859-1"?>
<!-- Generator: Adobe Illustrator 19.0.0, SVG Export Plug-In . SVG Version: 6.00 Build 0)  -->
<svg version="1.1" id="Layer_1" xmlns="http://www.w3.org/2000/svg" xmlns:xlink="http://www.w3.org/1999/xlink" x="0px" y="0px"
	 viewBox="0 0 495.334 495.334" style="enable-background:new 0 0 495.334 495.334;" xml:space="preserve">
<g id="XMLID_923_">
	<g id="XMLID_71_">
		<rect x="133.301" y="350.595" style="fill:#6A975C;" width="30.497" height="137.238"/>
	</g>
	<g id="XMLID_855_">
		<polygon style="fill:#447D33;" points="186.672,464.96 163.799,487.833 163.799,350.595 186.672,350.595 		"/>
	</g>
	<g id="XMLID_860_">
		<rect x="331.534" y="350.595" style="fill:#6A975C;" width="30.497" height="137.238"/>
	</g>
	<g id="XMLID_856_">
		<polygon style="fill:#447D33;" points="308.661,464.96 331.534,487.833 331.534,350.595 308.661,350.595 		"/>
	</g>
	<g id="XMLID_1040_">
		<polygon style="fill:#6A975C;" points="140.926,182.86 34.185,182.86 26.561,152.362 148.55,152.362 		"/>
	</g>
	<g id="XMLID_851_">
		<polygon style="fill:#447D33;" points="133.301,205.733 57.058,205.733 41.809,182.86 140.926,182.86 		"/>
	</g>
	<g id="XMLID_853_">
		<polygon style="fill:#6A975C;" points="354.407,182.86 461.148,182.86 468.772,152.362 346.783,152.362 		"/>
	</g>
	<g id="XMLID_852_">
		<polygon style="fill:#447D33;" points="362.031,205.733 438.275,205.733 453.523,182.86 354.407,182.86 		"/>
	</g>
	<g id="XMLID_1024_">
		<path style="fill:#6A975C;" d="M293.412,106.616h-91.951V53.475c0-25.392,20.584-45.975,45.975-45.975l0,0
			c25.392,0,45.975,20.584,45.975,45.975L293.412,106.616L293.412,106.616z"/>
	</g>
	<g id="XMLID_1025_">
		<path style="fill:#447D33;" d="M247.437,7.5L247.437,7.5c-25.392,0-45.975,20.584-45.975,45.975v53.141l46.205-7.624V7.5"/>
	</g>
	<g id="XMLID_1007_">
		<path style="fill:#CA9E67;" d="M247.666,434.463L247.666,434.463c-63.162,0-114.365-51.203-114.365-114.365V213.357
			c0-63.162,51.203-114.365,114.365-114.365l0,0c63.162,0,114.365,51.203,114.365,114.365v106.741
			C362.031,383.26,310.828,434.463,247.666,434.463z"/>
	</g>
	<g id="XMLID_1023_">
		<path style="fill:#98774D;" d="M247.666,434.463L247.666,434.463c-63.162,0-114.365-51.203-114.365-114.365V213.357
			c0-63.162,51.203-114.365,114.365-114.365l0,0"/>
	</g>
	<g id="XMLID_78_">
		<path style="fill:#1D1D1B;" d="M247.666,441.963c-67.197,0-121.865-54.668-121.865-121.865V213.357
			c0-67.196,54.668-121.865,121.865-121.865s121.865,54.668,121.865,121.865v106.741
			C369.531,387.294,314.863,441.963,247.666,441.963z M247.666,106.492c-58.926,0-106.865,47.939-106.865,106.865v106.741
			c0,58.926,47.939,106.865,106.865,106.865s106.865-47.939,106.865-106.865V213.357
			C354.531,154.432,306.592,106.492,247.666,106.492z"/>
	</g>
	<g id="XMLID_102_">
		<path style="fill:#1D1D1B;" d="M300.912,91.368h-15V53.246c0-21.089-17.157-38.246-38.246-38.246S209.42,32.157,209.42,53.246
			v38.122h-15V53.246C194.42,23.886,218.306,0,247.666,0s53.246,23.886,53.246,53.246V91.368z"/>
	</g>
	<g>
		<path style="fill:#1D1D1B;" d="M362.031,144.862v15h98.628c-0.919,5.566-2.85,10.794-5.587,15.497h-77.794v15h63.776
			c-7.328,4.964-16.156,7.873-25.654,7.873h-38.12v15h38.122c33.564,0,60.871-27.307,60.871-60.871v-7.5H362.031V144.862z"/>
		<path style="fill:#1D1D1B;" d="M34.674,159.862h98.628v-15H19.061v7.5c0,33.564,27.306,60.871,60.87,60.871h38.122v-15H79.931
			c-9.498,0-18.326-2.91-25.654-7.873h63.775v-15H40.26C37.523,170.656,35.593,165.428,34.674,159.862z"/>
		<path style="fill:#1D1D1B;" d="M178.903,449.579l-0.001,6.596c0,6.918-2.928,13.162-7.604,17.57v-54.531h-15v60.995h0.906
			c-0.809,0.082-1.63,0.125-2.461,0.125h-14.212v-91.616h-15v106.616h29.212c21.592,0,39.158-17.566,39.158-39.158v-6.397
			l0.269-15.183l-14.998-0.265L178.903,449.579z"/>
		<path style="fill:#1D1D1B;" d="M354.531,480.333h-14.212c-0.831,0-1.652-0.042-2.461-0.125h1.176v-60.995h-15v54.788
			c-4.835-4.421-7.873-10.775-7.873-17.827v-21.712h-15v21.712c0,21.592,17.566,39.158,39.158,39.158h29.212V388.717h-15V480.333z"
			/>
	</g>
	<path style="fill:#1D1D1B;" d="M346.782,205.608v-15h-7.749v-15.373h-15v15.373h-23.122v-30.746h15.373v-15h-15.373v-15.373h-15
		v15.373h-30.746V114.24h-15v30.622H209.42v-15.373h-15v15.373h-15.373v15h15.373v30.746h-23.122v-15.373h-15v15.373h-7.749v15
		h7.749v30.746h-7.749v15h7.749V282.1h-7.749v15h7.749v30.746h-7.749v15h7.749v22.997h15v-22.997h23.122v30.746h-15.373v15h15.373
		v15.373h15v-15.373h30.746v30.622h15v-30.622h30.746v15.373h15v-15.373h15.373v-15h-15.373v-30.746h23.122v22.997h15v-22.997h7.749
		v-15h-7.749V297.1h7.749v-15h-7.749v-30.746h7.749v-15h-7.749v-30.746H346.782z M194.42,327.846h-23.122V297.1h23.122V327.846z
		 M194.42,282.1h-23.122v-30.746h23.122V282.1z M194.42,236.355h-23.122v-30.746h23.122V236.355z M240.166,373.592H209.42v-30.746
		h30.746V373.592z M240.166,327.846H209.42V297.1h30.746V327.846z M240.166,282.1H209.42v-30.746h30.746V282.1z M240.166,236.355
		H209.42v-30.746h30.746V236.355z M240.166,190.608H209.42v-30.746h30.746V190.608z M285.912,373.592h-30.746v-30.746h30.746
		V373.592z M285.912,327.846h-30.746V297.1h30.746V327.846z M285.912,282.1h-30.746v-30.746h30.746V282.1z M285.912,236.355h-30.746
		v-30.746h30.746V236.355z M285.912,190.608h-30.746v-30.746h30.746V190.608z M324.034,327.846h-23.122V297.1h23.122V327.846z
		 M324.034,282.1h-23.122v-30.746h23.122V282.1z M324.034,236.355h-23.122v-30.746h23.122V236.355z"/>
	<g id="XMLID_138_">
		<rect x="224.793" y="45.746" style="fill:#FFFFFF;" width="15.248" height="15"/>
	</g>
	<g id="XMLID_139_">
		<rect x="255.291" y="45.746" style="fill:#FFFFFF;" width="15.248" height="15"/>
	</g>
</g>
<g>
</g>
<g>
</g>
<g>
</g>
<g>
</g>
<g>
</g>
<g>
</g>
<g>
</g>
<g>
</g>
<g>
</g>
<g>
</g>
<g>
</g>
<g>
</g>
<g>
</g>
<g>
</g>
<g>
</g>
</svg>
