<?xml version="1.0" encoding="iso-8859-1"?>
<!-- Generator: Adobe Illustrator 19.0.0, SVG Export Plug-In . SVG Version: 6.00 Build 0)  -->
<svg version="1.1" id="Layer_1" xmlns="http://www.w3.org/2000/svg" xmlns:xlink="http://www.w3.org/1999/xlink" x="0px" y="0px"
	 viewBox="0 0 487.563 487.563" style="enable-background:new 0 0 487.563 487.563;" xml:space="preserve">
<g id="XMLID_897_">
	<g id="XMLID_989_">
		<polygon style="fill:#92BBDD;" points="289.512,118.02 289.512,95.154 320,64.666 335.244,64.666 335.244,118.02 		"/>
	</g>
	<g id="XMLID_810_">
		<polygon style="fill:#65859F;" points="365.732,422.898 304.756,422.898 312.378,369.545 304.756,316.191 365.732,316.191 
			388.597,361.923 		"/>
	</g>
	<g id="XMLID_990_">
		<polygon style="fill:#92BBDD;" points="478.302,308.862 464.817,194.24 426.707,156.13 426.383,158.4 396.219,133.264 
			335.244,118.02 7.5,118.02 30.366,201.862 98.963,262.837 335.244,268.6 335.244,270.459 414.73,270.459 434.329,316.191 
			419.085,346.679 403.841,361.923 419.085,369.545 449.573,369.545 480.061,339.057 480.061,308.569 		"/>
	</g>
	<g id="XMLID_988_">
		<polygon style="fill:#65859F;" points="304.756,270.459 144.695,270.459 60.853,239.971 22.744,178.996 220.914,178.996 
			266.646,201.862 		"/>
	</g>
	<g id="XMLID_119_">
		<rect x="205.671" y="141.008" style="fill:#FFFFFF;" width="15.243" height="15"/>
	</g>
	<g id="XMLID_121_">
		<path style="fill:#1D1D1B;" d="M342.744,102.776h-15v-30.61h-0.122c-16.879,0-30.61,13.731-30.61,30.609h-15
			c0-25.149,20.461-45.61,45.61-45.61h15.122L342.744,102.776L342.744,102.776z"/>
	</g>
	<g id="XMLID_79_">
		<path style="fill:#1D1D1B;" d="M350.487,247.471v-15c16.879,0,30.61-13.732,30.61-30.61v-0.122h-30.61v-15h45.61v15.122
			C396.098,227.011,375.637,247.471,350.487,247.471z"/>
	</g>
	<path style="fill:#1D1D1B;" d="M327.622,110.52H0v7.5c0,88.19,71.748,159.939,159.939,158.762h228.659v1.177
		c21.081,0,38.231,17.151,38.231,38.232s-17.15,38.231-38.231,38.231v7.622h-0.122v-12.372c0-22.597-18.384-40.981-40.981-40.981
		h-50.238v27.372c0,13.026,6.116,24.643,15.619,32.154c-9.42,6.421-15.619,17.234-15.619,29.469v32.712h55.578
		c19.653,0,35.642-15.989,35.642-35.641v-17.712h45.854c29.352,0,53.232-23.88,53.232-53.232v-53.354
		C487.561,182.269,415.813,110.52,327.622,110.52z M312.256,323.691h35.238c14.326,0,25.981,11.655,25.981,25.981v12.372h-35.238
		c-14.326,0-25.981-11.655-25.981-25.981V323.691z M373.476,394.757c0,11.381-9.26,20.641-20.642,20.641h-40.578v-17.712
		c0-11.382,9.26-20.642,20.642-20.642h5.34h35.238V394.757z M92.515,246.294h36.936v-15H69.625
		c-5.498-4.393-10.668-9.178-15.472-14.311h98.164v-16.177H41.042c-3.202-4.585-6.145-9.362-8.81-14.311h173.439
		c43.768,0,79.802,33.669,83.61,76.463H159.939C135.611,262.959,112.667,256.931,92.515,246.294z M472.561,323.813
		c0,21.081-17.15,38.232-38.232,38.232h-18.74c15.688-9.271,26.24-26.349,26.24-45.854c0-29.352-23.88-53.232-53.231-53.232h-84.247
		c-3.845-51.078-46.635-91.463-98.68-91.463H25.234c-5.717-14.349-9.214-29.815-10.043-45.976h312.431
		c79.919,0,144.939,65.02,144.939,144.939V323.813z"/>
</g>
<g>
</g>
<g>
</g>
<g>
</g>
<g>
</g>
<g>
</g>
<g>
</g>
<g>
</g>
<g>
</g>
<g>
</g>
<g>
</g>
<g>
</g>
<g>
</g>
<g>
</g>
<g>
</g>
<g>
</g>
</svg>
