<?xml version="1.0" encoding="iso-8859-1"?>
<!-- Generator: Adobe Illustrator 19.0.0, SVG Export Plug-In . SVG Version: 6.00 Build 0)  -->
<svg version="1.1" id="Layer_1" xmlns="http://www.w3.org/2000/svg" xmlns:xlink="http://www.w3.org/1999/xlink" x="0px" y="0px"
	 viewBox="0 0 490.212 490.212" style="enable-background:new 0 0 490.212 490.212;" xml:space="preserve">
<g id="XMLID_1073_">
	<g id="XMLID_1072_">
		<path style="fill:#77AAD4;" d="M314.088,448.22h-99.641l7.665-30.659l-7.665-30.659h99.641c16.932,0,30.659,13.726,30.659,30.659
			l0,0C344.747,434.494,331.021,448.22,314.088,448.22z"/>
	</g>
	<g id="XMLID_1129_">
		<path style="fill:#4A8DC6;" d="M482.712,308.125v-20.701c0-72.052-58.41-130.462-130.462-130.462H47.919
			c-22.02,0-39.583,18.38-38.584,40.377l5.829,128.246l38.324,7.665v22.994l15.329,7.665H376.5l6.569,45.988H398.4l68.982-53.653
			h-12.331C471.58,346.562,482.712,328.663,482.712,308.125z"/>
	</g>
	<g id="XMLID_1055_">
		<polygon style="fill:#77AAD4;" points="237.441,287.262 314.088,287.262 344.747,333.25 275.765,333.25 		"/>
	</g>
	<g id="XMLID_1133_">
		<path style="fill:#77AAD4;" d="M398.4,164.626L398.4,164.626H15.165L7.5,225.944h390.9c43.157,0,78.681,32.443,83.658,74.26
			c0.42-4.259,0.654-8.573,0.654-12.943C482.712,231.512,447.634,181.16,398.4,164.626z"/>
	</g>
	<g id="XMLID_296_">
		<rect x="130.136" y="287.426" style="fill:#1D1D1B;" width="38.323" height="15"/>
	</g>
	<g id="XMLID_298_">
		<path style="fill:#1D1D1B;" d="M360.076,340.75h-68.982c-29.493,0-53.488-23.995-53.488-53.488h15
			c0,21.223,17.266,38.488,38.488,38.488h31.875c-10.095-9.735-16.381-23.391-16.381-38.488h15
			c0,21.223,17.266,38.488,38.488,38.488V340.75z"/>
	</g>
	<g>
		<path style="fill:#1D1D1B;" d="M490.212,287.262c0-75.983-61.816-137.8-137.8-137.8H39.966C17.929,149.462,0,167.39,0,189.427
			v110.456c0,22.037,17.929,39.965,39.966,39.965h119.626v-15H39.966C26.199,324.848,15,313.649,15,299.883V189.427
			c0-13.766,11.199-24.965,24.966-24.965h312.446c67.712,0,122.8,55.088,122.8,122.8c0,55.521-37.041,102.545-87.705,117.682
			c2.257-4.951,3.311-10.411,3.016-16.043c-0.954-18.22-16.678-32.492-35.796-32.492H69.118c-4.317,0-7.829-3.512-7.829-7.829h-15
			c0,12.588,10.241,22.829,22.829,22.829h285.608c10.95,0,20.289,8.199,20.817,18.276c0.28,5.372-1.594,10.469-5.278,14.352
			c-3.139,3.308-7.219,5.336-11.665,5.87c-2.05,0.102-6.113,0.155-8.188,0.155v15c1.282,0,4.559-0.021,5.832-0.056v0.056
			c1.246,0,2.486-0.074,3.717-0.209C432.447,420.919,490.212,360.712,490.212,287.262z"/>
		<path style="fill:#1D1D1B;" d="M314.088,379.403H206.947v7.5c0,12.549,6.091,23.7,15.47,30.659
			c-9.379,6.959-15.47,18.11-15.47,30.659v7.5h107.141c18.474,0,33.92-13.198,37.415-30.659h0.744v-7.5v-7.5h-0.744
			C348.008,392.6,332.562,379.403,314.088,379.403z M223.193,394.403h90.895c10.147,0,18.79,6.558,21.913,15.659h-90.896
			C234.959,410.061,226.316,403.503,223.193,394.403z M314.088,440.721h-90.895c3.123-9.101,11.766-15.659,21.912-15.659h90.896
			C332.878,434.162,324.234,440.721,314.088,440.721z"/>
	</g>
	<path style="fill:#1D1D1B;" d="M252.77,34.491c-16.014,0-30.128,8.264-38.323,20.746c-8.195-12.481-22.309-20.746-38.323-20.746
		c-25.268,0-45.824,20.557-45.824,45.824h15c0-16.996,13.828-30.824,30.824-30.824c5.778,0,11.188,1.602,15.815,4.379
		c-13.126,1.652-23.315,12.877-23.315,26.445h15c0-6.431,5.231-11.662,11.661-11.662c6.431,0,11.662,5.231,11.662,11.662v61.317h15
		V80.315c0-6.431,5.231-11.662,11.662-11.662c6.43,0,11.661,5.231,11.661,11.662h15c0-13.568-10.189-24.793-23.315-26.445
		c4.627-2.778,10.037-4.379,15.815-4.379c16.996,0,30.823,13.828,30.823,30.824h15C298.594,55.048,278.037,34.491,252.77,34.491z"/>
</g>
<g>
</g>
<g>
</g>
<g>
</g>
<g>
</g>
<g>
</g>
<g>
</g>
<g>
</g>
<g>
</g>
<g>
</g>
<g>
</g>
<g>
</g>
<g>
</g>
<g>
</g>
<g>
</g>
<g>
</g>
</svg>
