<?xml version="1.0" encoding="iso-8859-1"?>
<!-- Generator: Adobe Illustrator 19.0.0, SVG Export Plug-In . SVG Version: 6.00 Build 0)  -->
<svg version="1.1" id="Layer_1" xmlns="http://www.w3.org/2000/svg" xmlns:xlink="http://www.w3.org/1999/xlink" x="0px" y="0px"
	 viewBox="0 0 490.796 490.796" style="enable-background:new 0 0 490.796 490.796;" xml:space="preserve">
<g id="XMLID_1038_">
	<g id="XMLID_1021_">
		<rect x="376.739" y="207.977" style="fill:#BE1622;" width="41.715" height="41.715"/>
	</g>
	<g id="XMLID_1041_">
		<rect x="376.739" y="291.408" style="fill:#BE1622;" width="41.715" height="75.087"/>
	</g>
	<g id="XMLID_1020_">
		<rect x="259.937" y="333.123" style="fill:#BE1622;" width="41.715" height="41.715"/>
	</g>
	<g id="XMLID_1022_">
		<rect x="259.937" y="249.693" style="fill:#BE1622;" width="41.715" height="41.715"/>
	</g>
	<g id="XMLID_1036_">
		<rect x="259.937" y="166.262" style="fill:#BE1622;" width="41.715" height="41.715"/>
	</g>
	<g id="XMLID_1037_">
		<polygon style="fill:#BE1622;" points="376.739,166.262 335.024,166.262 335.024,124.547 385.082,132.89 393.425,149.576 		"/>
	</g>
	<g id="XMLID_1019_">
		<polygon style="fill:#BE1622;" points="234.908,449.925 243.251,433.239 268.28,416.553 293.309,416.553 301.652,433.239 
			259.937,474.954 		"/>
	</g>
	<g id="XMLID_994_">
		<polygon style="fill:#BE1622;" points="201.536,433.239 176.507,416.553 151.478,416.553 143.135,433.239 176.507,474.954 
			193.193,466.611 		"/>
	</g>
	<g id="XMLID_992_">
		<rect x="143.135" y="82.832" style="fill:#F9B233;" width="41.715" height="41.715"/>
	</g>
	<g id="XMLID_996_">
		<rect x="143.135" y="374.838" style="fill:#F9B233;" width="41.715" height="41.715"/>
	</g>
	<g id="XMLID_1054_">
		<rect x="193.193" y="441.582" style="fill:#F9B233;" width="50.058" height="41.715"/>
	</g>
	<g id="XMLID_1042_">
		<rect x="259.937" y="374.838" style="fill:#F9B233;" width="41.715" height="41.715"/>
	</g>
	<g id="XMLID_1047_">
		<rect x="259.937" y="291.407" style="fill:#F9B233;" width="41.715" height="41.715"/>
	</g>
	<g id="XMLID_1050_">
		<rect x="259.937" y="207.977" style="fill:#F9B233;" width="41.715" height="41.715"/>
	</g>
	<g id="XMLID_1053_">
		<polygon style="fill:#F9B233;" points="335.024,166.262 309.995,174.605 276.623,149.576 335.024,124.547 		"/>
	</g>
	<g id="XMLID_1052_">
		<rect x="376.739" y="249.693" style="fill:#F9B233;" width="41.715" height="41.715"/>
	</g>
	<g id="XMLID_1051_">
		<polygon style="fill:#F9B233;" points="418.454,207.977 376.739,207.977 376.739,157.919 410.111,157.919 		"/>
	</g>
	<g id="XMLID_991_">
		<rect x="143.135" y="124.547" style="fill:#BE1622;" width="41.715" height="41.715"/>
	</g>
	<g id="XMLID_995_">
		<rect x="143.135" y="333.123" style="fill:#BE1622;" width="41.715" height="41.715"/>
	</g>
	<g id="XMLID_993_">
		<polygon style="fill:#BE1622;" points="181.231,83.065 143.135,82.832 118.106,49.46 84.734,49.46 74.773,16.398 111.898,6.023 
			176.507,41.117 		"/>
	</g>
	<g id="XMLID_1101_">
		<path style="fill:#F9B233;" d="M204.379,333.122h-80.773c-3.037,0-5.5-2.462-5.5-5.5v-155.86c0-3.038,2.462-5.5,5.5-5.5h80.773
			c3.038,0,5.5,2.462,5.5,5.5v155.86C209.879,330.66,207.417,333.122,204.379,333.122z"/>
	</g>
	<g id="XMLID_322_">
		<g id="XMLID_323_">
			<rect x="134.792" y="192.134" style="fill:#1D1D1B;" width="58.401" height="15"/>
		</g>
		<g id="XMLID_329_">
			<rect x="134.792" y="292.251" style="fill:#1D1D1B;" width="58.401" height="15"/>
		</g>
		<path style="fill:#1D1D1B;" d="M425.955,199.634c0-45.538-37.049-82.587-82.588-82.587h-8.343
			c-45.538,0-82.587,37.048-82.587,82.587v208.575c0,14.266-11.606,25.872-25.872,25.872h-8.343
			c-14.266,0-25.872-11.606-25.872-25.872v-67.613c13.891-0.533,25.029-11.993,25.029-26.012V184.801
			c0-14.019-11.138-25.48-25.029-26.013V82.832c0-45.519-37.018-82.556-82.531-82.587L93.187,0.001L93.077,0
			c-15.704,0-28.48,12.776-28.48,28.48s12.776,28.48,28.48,28.48h16.686c14.266,0,25.872,11.606,25.872,25.872v75.955
			c-13.891,0.533-25.029,11.994-25.029,26.013v129.784c0,14.019,11.138,25.48,25.029,26.012v67.613
			c0,45.539,37.048,82.587,82.587,82.587h8.343c45.539,0,82.587-37.048,82.587-82.587V199.634c0-14.266,11.606-25.872,25.872-25.872
			h8.343c14.266,0,25.872,11.606,25.872,25.872v150.174c0,15.704,12.776,28.48,28.48,28.48s28.48-12.776,28.48-28.492
			L425.955,199.634z M410.955,199.646l0.001,0.831h-26.717v-0.843c0-8.564-2.653-16.517-7.172-23.092l19.068-19.067
			C405.397,169.044,410.955,183.704,410.955,199.646z M384.239,257.192h26.81l0.044,26.715H384.24v-26.715H384.239z
			 M384.239,242.192v-26.715h26.742l0.044,26.715H384.239z M276.343,166.165l23.941,11.97c-3.882,6.25-6.132,13.615-6.132,21.499
			v0.843h-26.715v-0.843C267.437,187.462,270.688,176.041,276.343,166.165z M294.131,409.053h-26.715
			c0.006-0.281,0.021-0.561,0.021-0.843v-25.872h26.715v25.872C294.152,408.492,294.134,408.771,294.131,409.053z M267.437,367.337
			v-26.715h26.715v26.715H267.437z M267.437,325.622v-26.715h26.715v26.715H267.437z M267.437,283.908v-26.715h26.715v26.715
			H267.437z M267.437,242.192v-26.715h26.715v26.715H267.437z M177.372,409.053h-26.715c-0.003-0.282-0.021-0.561-0.021-0.843
			v-25.872h26.715v25.872C177.35,408.492,177.366,408.771,177.372,409.053z M177.35,367.337h-26.715v-26.715h26.715V367.337z
			 M150.635,90.332h26.715v26.715h-26.715V90.332z M150.635,132.047h26.715v26.715h-26.715V132.047z M109.763,41.96H93.077
			c-7.433,0-13.48-6.047-13.48-13.48c0-7.417,6.021-13.454,13.431-13.48l16.625,0.244l0.11,0.001
			c34.732,0,63.417,26.338,67.161,60.087h-26.991C146.4,56.367,129.737,41.96,109.763,41.96z M125.606,314.584V184.801
			c0-6.087,4.952-11.038,11.038-11.038h54.697c6.086,0,11.038,4.952,11.038,11.038v129.784c0,5.746-4.414,10.475-10.029,10.987
			h-56.715C130.02,325.059,125.606,320.33,125.606,314.584z M152.529,424.053h28.019c2.808,6.652,7.331,12.408,13.009,16.72
			l-12.064,24.128C167.205,455.612,156.637,441.083,152.529,424.053z M218.222,475.797c-8.197,0-16.056-1.469-23.332-4.154
			l12.075-24.15c3.579,1.027,7.352,1.589,11.257,1.589h8.343c1.222,0,2.428-0.064,3.623-0.17l12.467,24.934
			c-5.16,1.265-10.546,1.951-16.09,1.951L218.222,475.797L218.222,475.797z M256.814,468.623l-11.943-23.886
			c8.665-4.36,15.58-11.704,19.37-20.684h28.018C287.551,443.569,274.36,459.802,256.814,468.623z M310.896,166.671l-25.569-12.784
			c10.763-11.683,25.58-19.57,42.196-21.413v26.99C321.394,160.606,315.741,163.115,310.896,166.671z M343.367,158.762h-0.843
			v-26.715h0.843c15.937,0,30.593,5.557,42.161,14.82l-19.068,19.068C359.885,161.415,351.931,158.762,343.367,158.762z
			 M397.719,363.289c-7.434,0-13.48-6.047-13.48-13.48v-50.901h26.878l0.083,50.901C411.2,357.242,405.153,363.289,397.719,363.289z
			"/>
	</g>
</g>
<g>
</g>
<g>
</g>
<g>
</g>
<g>
</g>
<g>
</g>
<g>
</g>
<g>
</g>
<g>
</g>
<g>
</g>
<g>
</g>
<g>
</g>
<g>
</g>
<g>
</g>
<g>
</g>
<g>
</g>
</svg>
